<svg width="86" height="24" viewBox="0 0 86 24" fill="none" xmlns="http://www.w3.org/2000/svg">
<g clip-path="url(#clip0_26865_162168)">
<path d="M22.836 13.5562L21.394 10.661V8.9937C21.394 6.22992 19.1758 3.99158 16.4401 3.99158H13.9757C14.154 3.62527 14.252 3.21347 14.252 2.77895C14.252 1.24295 13.016 0 11.4886 0C9.96126 0 8.72526 1.24295 8.72526 2.77895C8.72526 3.21347 8.82324 3.62527 9.00162 3.99158H6.53724C3.8015 3.99158 1.58327 6.22992 1.58327 8.9937V10.661L0.111162 13.5487C-0.037054 13.8392 -0.037054 14.1853 0.111162 14.4758L1.58327 17.3305V18.9979C1.58327 21.7617 3.8015 24 6.53724 24H16.4401C19.1758 24 21.394 21.7617 21.394 18.9979V17.3305L22.8335 14.4657C22.9766 14.1802 22.9766 13.8442 22.836 13.5562ZM9.98136 15.9158C9.98136 17.1713 8.96898 18.1895 7.72044 18.1895C6.4719 18.1895 5.45951 17.1713 5.45951 15.9158V11.8737C5.45951 10.6181 6.4719 9.6 7.72044 9.6C8.96898 9.6 9.98136 10.6181 9.98136 11.8737V15.9158ZM17.2666 15.9158C17.2666 17.1713 16.2542 18.1895 15.0056 18.1895C13.7571 18.1895 12.7447 17.1713 12.7447 15.9158V11.8737C12.7447 10.6181 13.7571 9.6 15.0056 9.6C16.2542 9.6 17.2666 10.6181 17.2666 11.8737V15.9158Z" fill="white"/>
<path d="M33.2358 19.0839C32.1091 19.0839 31.1323 18.8203 30.3053 18.2929C29.4903 17.7535 28.855 16.9984 28.3996 16.0276C27.9561 15.0448 27.7344 13.9002 27.7344 12.5937C27.7344 11.2753 27.9621 10.1307 28.4175 9.15986C28.873 8.18906 29.5202 7.43996 30.3592 6.91256C31.1982 6.37322 32.193 6.10352 33.3437 6.10352C34.2425 6.10352 35.0696 6.27734 35.8247 6.62492C36.5798 6.9725 37.197 7.4759 37.6764 8.13512C38.1678 8.79428 38.4375 9.59732 38.4855 10.5442H35.2493C35.1894 9.93296 34.9976 9.4475 34.674 9.08798C34.3504 8.7164 33.9069 8.53064 33.3437 8.53064C32.8642 8.53064 32.4267 8.68646 32.0312 8.99804C31.6476 9.29768 31.3421 9.75314 31.1143 10.3644C30.8985 10.9637 30.7907 11.7068 30.7907 12.5937C30.7907 13.4687 30.8985 14.2118 31.1143 14.8231C31.3301 15.4224 31.6177 15.8778 31.9773 16.1894C32.3488 16.501 32.7683 16.6569 33.2358 16.6569C33.6313 16.6569 33.9729 16.579 34.2605 16.4232C34.5602 16.2553 34.7999 16.0156 34.9797 15.704C35.1714 15.3924 35.2853 15.0148 35.3213 14.5714H38.5574C38.4615 15.4942 38.1858 16.2973 37.7304 16.9805C37.2869 17.6517 36.6876 18.1731 35.9325 18.5446C35.1774 18.9042 34.2785 19.0839 33.2358 19.0839Z" fill="white"/>
<path d="M43.408 18.8685V5.56445H46.2126V18.8685H43.408ZM40.1719 18.8685V16.6032H49.4847V18.8685H40.1719ZM41.4304 7.82974V5.56445H44.8103V7.82974H41.4304Z" fill="white"/>
<path d="M55.0955 18.8673V8.87127H57.9001V18.8673H55.0955ZM51.8594 18.8673V16.602H61.1722V18.8673H51.8594ZM53.1179 11.1366V8.87127H56.4978V11.1366H53.1179ZM54.9876 7.54089V4.91602H57.9721V7.54089H54.9876Z" fill="white"/>
<path d="M70.1468 18.868V12.7014C70.1468 12.186 70.0148 11.7725 69.7514 11.4609C69.4874 11.1493 69.14 10.9934 68.7086 10.9934C68.2172 10.9934 67.7618 11.1612 67.3418 11.4968C66.9344 11.8205 66.503 12.3838 66.0476 13.1868L65.6522 10.8137C66.1076 10.0346 66.659 9.48329 67.3058 9.15965C67.9532 8.82407 68.6126 8.65625 69.284 8.65625C70.0508 8.65625 70.7042 8.81807 71.2436 9.14171C71.7944 9.46529 72.2144 9.91475 72.5018 10.4901C72.8012 11.0654 72.9512 11.7425 72.9512 12.5216V18.868H70.1468ZM63.4766 18.868V8.87201H66.1916L66.2816 10.6519V18.868H63.4766Z" fill="white"/>
<path d="M79.9694 19.0837C78.8906 19.0837 77.9618 18.874 77.1824 18.4545C76.4156 18.035 75.8222 17.4357 75.4028 16.6567C74.9834 15.8776 74.7734 14.9487 74.7734 13.87C74.7734 12.7793 74.9834 11.8444 75.4028 11.0654C75.8222 10.2863 76.4276 9.69299 77.2184 9.28553C78.0218 8.86601 78.9866 8.65625 80.1134 8.65625C81.875 8.65625 83.1512 9.15965 83.9426 10.1665C84.7454 11.1613 85.0814 12.5336 84.9494 14.2835H77.003L77.021 12.3598H82.091C82.055 11.9044 81.851 11.5388 81.4796 11.2631C81.1082 10.9755 80.6462 10.8317 80.0954 10.8317C79.232 10.8317 78.5972 11.1013 78.1892 11.6407C77.7818 12.1801 77.5784 12.9651 77.5784 13.9958C77.5784 14.5112 77.6678 14.9846 77.8478 15.4162C78.0278 15.8476 78.2912 16.1952 78.6386 16.4589C78.9986 16.7106 79.442 16.8364 79.9694 16.8364C80.5328 16.8364 81.0062 16.6986 81.3896 16.423C81.785 16.1473 82.025 15.7997 82.109 15.3802H84.9134C84.7934 16.5188 84.29 17.4238 83.4032 18.0949C82.5284 18.7541 81.3836 19.0837 79.9694 19.0837Z" fill="white"/>
</g>
<defs>
<clipPath id="clip0_26865_162168">
<rect width="85.2" height="24" fill="white"/>
</clipPath>
</defs>
</svg>
