<svg width="74" height="24" viewBox="0 0 74 24" fill="none" xmlns="http://www.w3.org/2000/svg">
<path d="M10.7026 19V4.68H12.8826V19H10.7026ZM1.69258 19V4.68H3.88258V19H1.69258ZM2.97258 12.71V10.65H11.6126V12.71H2.97258ZM20.4995 19.33C18.9728 19.33 17.7261 18.82 16.7595 17.8C15.7928 16.7733 15.3095 15.4633 15.3095 13.87C15.3095 12.31 15.7861 11.0167 16.7395 9.99C17.6995 8.95667 18.9195 8.44 20.3995 8.44C21.8728 8.44 23.0661 8.89333 23.9795 9.8C24.8995 10.7 25.3595 11.83 25.3595 13.19V14.3H16.4695V12.84H23.2195C23.1728 12.1 22.8961 11.4867 22.3895 11C21.8895 10.5133 21.2261 10.27 20.3995 10.27C19.5128 10.27 18.7928 10.5933 18.2395 11.24C17.6928 11.88 17.4195 12.7467 17.4195 13.84C17.4195 14.9667 17.7261 15.8633 18.3395 16.53C18.9595 17.19 19.7395 17.52 20.6795 17.52C21.1195 17.52 21.4995 17.46 21.8195 17.34C22.1395 17.22 22.4261 17.0567 22.6795 16.85C22.9395 16.6367 23.2328 16.2933 23.5595 15.82L25.1295 16.75C24.7295 17.45 24.3095 17.97 23.8695 18.31C23.4295 18.6433 22.9428 18.8967 22.4095 19.07C21.8828 19.2433 21.2461 19.33 20.4995 19.33ZM27.4857 19V8.77H29.5657V10.65L29.2757 10.39H29.6257C29.8124 9.83667 30.1857 9.37333 30.7457 9C31.3057 8.62667 31.889 8.44 32.4957 8.44C32.6757 8.44 32.859 8.45667 33.0457 8.49C33.239 8.51667 33.409 8.55333 33.5557 8.6C33.709 8.64667 33.7857 8.67 33.7857 8.67V10.83C33.7857 10.83 33.6824 10.7967 33.4757 10.73C33.269 10.6633 33.0524 10.6133 32.8257 10.58C32.6057 10.54 32.4157 10.52 32.2557 10.52C31.529 10.52 30.9124 10.8 30.4057 11.36C29.9057 11.9133 29.6557 12.6 29.6557 13.42V19H27.4857ZM35.5763 19V8.77H37.6563V10.52L37.4463 10.27H37.7163C38.0097 9.73667 38.453 9.3 39.0463 8.96C39.6463 8.61333 40.2797 8.44 40.9463 8.44C41.673 8.44 42.313 8.61333 42.8663 8.96C43.4263 9.30667 43.833 9.78333 44.0863 10.39C44.473 9.75 44.9697 9.26667 45.5763 8.94C46.183 8.60667 46.8563 8.44 47.5963 8.44C48.7697 8.44 49.663 8.79 50.2763 9.49C50.8897 10.19 51.1963 11.1733 51.1963 12.44V19H49.0463V12.81C49.0463 11.9633 48.873 11.3367 48.5263 10.93C48.1797 10.5233 47.6497 10.32 46.9363 10.32C46.2363 10.32 45.6497 10.6033 45.1763 11.17C44.7097 11.7367 44.4763 12.43 44.4763 13.25V19H42.3063V12.82C42.3063 11.98 42.133 11.3533 41.7863 10.94C41.4397 10.5267 40.913 10.32 40.2063 10.32C39.513 10.32 38.9297 10.61 38.4563 11.19C37.983 11.7633 37.7463 12.46 37.7463 13.28V19H35.5763ZM58.4041 19.33C56.8775 19.33 55.6308 18.82 54.6641 17.8C53.6975 16.7733 53.2141 15.4633 53.2141 13.87C53.2141 12.31 53.6908 11.0167 54.6441 9.99C55.6041 8.95667 56.8241 8.44 58.3041 8.44C59.7775 8.44 60.9708 8.89333 61.8841 9.8C62.8041 10.7 63.2641 11.83 63.2641 13.19V14.3H54.3741V12.84H61.1241C61.0775 12.1 60.8008 11.4867 60.2941 11C59.7941 10.5133 59.1308 10.27 58.3041 10.27C57.4175 10.27 56.6975 10.5933 56.1441 11.24C55.5975 11.88 55.3241 12.7467 55.3241 13.84C55.3241 14.9667 55.6308 15.8633 56.2441 16.53C56.8641 17.19 57.6441 17.52 58.5841 17.52C59.0241 17.52 59.4041 17.46 59.7241 17.34C60.0441 17.22 60.3308 17.0567 60.5841 16.85C60.8441 16.6367 61.1375 16.2933 61.4641 15.82L63.0341 16.75C62.6341 17.45 62.2141 17.97 61.7741 18.31C61.3341 18.6433 60.8475 18.8967 60.3141 19.07C59.7875 19.2433 59.1508 19.33 58.4041 19.33ZM69.0904 19.33C68.4171 19.33 67.8204 19.25 67.3004 19.09C66.7871 18.93 66.3237 18.69 65.9104 18.37C65.5037 18.05 65.1837 17.7 64.9504 17.32C64.7237 16.9333 64.6104 16.74 64.6104 16.74L66.2304 15.77C66.2304 15.77 66.3237 15.91 66.5104 16.19C66.6971 16.47 66.9204 16.7167 67.1804 16.93C67.4471 17.1367 67.7404 17.2933 68.0604 17.4C68.3804 17.5067 68.7671 17.56 69.2204 17.56C69.8271 17.56 70.3104 17.4467 70.6704 17.22C71.0304 16.9867 71.2104 16.6467 71.2104 16.2C71.2104 15.84 71.0604 15.5533 70.7604 15.34C70.4604 15.1267 69.8004 14.9033 68.7804 14.67C67.4471 14.37 66.4837 13.96 65.8904 13.44C65.3037 12.92 65.0104 12.2533 65.0104 11.44C65.0104 10.56 65.3937 9.84 66.1604 9.28C66.9337 8.72 67.8837 8.44 69.0104 8.44C69.6037 8.44 70.1337 8.50667 70.6004 8.64C71.0737 8.76667 71.5004 8.96333 71.8804 9.23C72.2671 9.49667 72.5637 9.78 72.7704 10.08C72.9771 10.3733 73.0804 10.52 73.0804 10.52L71.5004 11.49C71.5004 11.49 71.4204 11.39 71.2604 11.19C71.1071 10.9833 70.9137 10.8033 70.6804 10.65C70.4537 10.4967 70.1971 10.3867 69.9104 10.32C69.6237 10.2467 69.3137 10.21 68.9804 10.21C68.4271 10.21 67.9771 10.3267 67.6304 10.56C67.2837 10.7933 67.1104 11.0633 67.1104 11.37C67.1104 11.7033 67.2471 11.9867 67.5204 12.22C67.7937 12.4467 68.4837 12.6867 69.5904 12.94C70.9504 13.2467 71.9104 13.6633 72.4704 14.19C73.0371 14.71 73.3204 15.34 73.3204 16.08C73.3204 17.0533 72.9271 17.84 72.1404 18.44C71.3537 19.0333 70.3371 19.33 69.0904 19.33Z" fill="black"/>
</svg>
