<svg width="123" height="24" viewBox="0 0 123 24" fill="none" xmlns="http://www.w3.org/2000/svg">
<path d="M12 2C6 2 3 7 3 11C3 15 6 19 9 20V22H11V20C11 20 12 20.4 13 20V22H15V20C18 19 21 15 21 11C21 7 18 2 12 2Z" fill="url(#paint0_linear_26865_162181)"/>
<path d="M4 9.00036C1 8.00036 0 10.0004 1 12.0004C2 14.0004 4 13.0004 5 11.0004C5.6 9.60036 5 9.00036 4 9.00036Z" fill="url(#paint1_linear_26865_162181)"/>
<path d="M20.005 9.00036C23.005 8.00036 24.005 10.0004 23.005 12.0004C22.005 14.0004 20.005 13.0004 19.005 11.0004C18.405 9.60036 19.005 9.00036 20.005 9.00036Z" fill="url(#paint2_linear_26865_162181)"/>
<path d="M9 2.9994C7.66667 1.66607 6.66667 1.1994 6 1.5994" stroke="#FF4D4D" stroke-width="0.6" stroke-linecap="round"/>
<path d="M15 2.9994C16.3333 1.66607 17.3333 1.1994 18 1.5994" stroke="#FF4D4D" stroke-width="0.6" stroke-linecap="round"/>
<path d="M9.00469 8.19883C9.66743 8.19883 10.2047 7.66157 10.2047 6.99883C10.2047 6.33609 9.66743 5.79883 9.00469 5.79883C8.34195 5.79883 7.80469 6.33609 7.80469 6.99883C7.80469 7.66157 8.34195 8.19883 9.00469 8.19883Z" fill="#050810"/>
<path d="M15.0047 8.19883C15.6674 8.19883 16.2047 7.66157 16.2047 6.99883C16.2047 6.33609 15.6674 5.79883 15.0047 5.79883C14.3419 5.79883 13.8047 6.33609 13.8047 6.99883C13.8047 7.66157 14.3419 8.19883 15.0047 8.19883Z" fill="#050810"/>
<path d="M9.20312 7.30078C9.47927 7.30078 9.70312 7.07692 9.70312 6.80078C9.70312 6.52464 9.47927 6.30078 9.20312 6.30078C8.92698 6.30078 8.70312 6.52464 8.70312 6.80078C8.70312 7.07692 8.92698 7.30078 9.20312 7.30078Z" fill="#00E5CC"/>
<path d="M15.2031 7.30078C15.4793 7.30078 15.7031 7.07692 15.7031 6.80078C15.7031 6.52464 15.4793 6.30078 15.2031 6.30078C14.927 6.30078 14.7031 6.52464 14.7031 6.80078C14.7031 7.07692 14.927 7.30078 15.2031 7.30078Z" fill="#00E5CC"/>
<path d="M41.2104 5.0459C44.4171 4.857 47.5959 5.94278 48.1335 9.55119C48.6668 13.1302 46.8749 15.7065 43.2366 16.229C43.1243 16.2416 43.0117 16.2521 42.8989 16.2604C39.2753 16.5299 36.3245 15.0759 36.0234 11.1971C35.7578 7.77532 37.7706 5.28801 41.2104 5.0459ZM43.0428 13.3407C43.6671 13.2168 44.1452 13.1078 44.5134 12.5225C45.1568 11.4998 45.1381 8.9952 44.0548 8.28664C43.4247 7.87461 41.8098 7.91198 41.0561 7.9789C40.5497 8.08934 39.9231 8.22344 39.6366 8.71502C39.1089 9.62036 39.2146 10.8512 39.3498 11.8315C39.5808 13.5079 41.6868 13.5487 43.0428 13.3407Z" fill="white"/>
<path d="M112.504 7.85206C113.775 7.8129 115.255 7.84944 116.542 7.85027C116.852 8.89932 117.128 9.96414 117.392 11.0251C117.492 11.4277 117.892 13.7212 118.115 13.9028C118.187 13.8491 118.218 13.8261 118.225 13.7303C118.375 11.7505 118.803 9.81825 119.1 7.87302C120.161 7.8454 121.223 7.84053 122.284 7.85847C122.183 8.37608 122.017 8.94323 121.88 9.45705C121.4 11.5769 120.52 14.1174 120.124 16.186C118.841 16.1913 117.558 16.1893 116.276 16.18C115.878 15.0581 115.53 13.9055 115.179 12.7684C115.05 12.351 114.711 10.5123 114.48 10.3696C114.366 10.4332 114.268 10.6048 114.243 10.7289C113.867 12.6171 113.232 14.3799 112.604 16.1972C111.345 16.1811 110.087 16.1815 108.828 16.1983C108.558 15.4432 108.104 13.4909 107.901 12.6577C107.538 11.1723 107.004 9.34398 106.719 7.86802L109.871 7.85495C110.049 8.93445 110.303 10.0088 110.467 11.1074C110.602 12.0023 110.642 13.3371 110.856 14.1672C111.19 13.4186 111.421 11.6615 111.652 10.7839C111.913 9.78851 112.207 8.83637 112.504 7.85206Z" fill="white"/>
<path d="M54.6792 7.73368C55.5917 7.56517 56.9916 7.8306 57.7398 8.3982C59.5409 9.73782 59.6061 13.2628 58.4114 14.9859C57.2774 16.6214 53.9436 16.8386 52.7381 15.1644C52.5571 14.9131 52.4445 14.224 52.1818 14.0257C52.0633 14.1842 52.1176 17.0125 52.1194 17.4242L52.1228 18.9871C51.1552 18.9583 50.0933 18.9812 49.1188 18.9832C49.0462 15.4748 49.0452 11.3634 49.1077 7.85599L51.9441 7.86278C51.9317 8.67216 51.9131 9.61378 51.9766 10.412C52.6683 8.78908 52.4799 8.0479 54.6792 7.73368ZM54.5486 13.5547C55.1368 13.4675 55.5056 13.4233 55.8901 12.9158C56.364 12.2901 56.2429 11.3436 55.6047 10.8845C55.067 10.4977 54.4515 10.5435 53.8333 10.56C53.2423 10.6082 52.8155 10.6219 52.397 11.1148C51.895 11.7062 51.9631 12.6622 52.5684 13.1546C53.0872 13.5769 53.9056 13.5826 54.5486 13.5547Z" fill="white"/>
<path d="M85.8285 5.04475C85.8804 5.04059 85.9323 5.037 85.9849 5.03392C88.5033 4.88431 91.4922 5.52511 92.3725 8.25652C92.5501 8.80764 92.5642 9.38236 92.5962 9.95669C91.4948 9.92778 90.233 9.95303 89.1207 9.95201C89.0873 9.56433 89.0559 8.82194 88.7738 8.53964C87.9865 7.67802 85.3277 7.76231 84.4898 8.45779C83.6287 9.17288 83.6441 11.9028 84.4052 12.7231C85.2367 13.6196 87.6416 13.6532 88.5994 12.9239C89.0745 12.5621 89.0835 11.8895 89.1091 11.3603L89.9439 11.3585C90.7594 11.3596 91.8121 11.3869 92.6065 11.3264C92.5238 12.4878 92.4404 13.4939 91.6692 14.4296C90.651 15.6217 89.1771 16.0799 87.6916 16.252C84.2801 16.6285 80.943 15.1598 80.6052 11.4071C80.282 7.82474 82.2195 5.39967 85.8285 5.04475Z" fill="white"/>
<path d="M101.319 7.73451C101.562 7.71983 101.804 7.7113 102.046 7.70899C104.877 7.70483 106.379 8.96278 106.347 11.8366C106.331 13.2646 106.355 14.7559 106.356 16.1894L103.447 16.188L103.44 14.2371C102.945 15.0832 102.547 15.8688 101.5 16.1463C100.279 16.4699 99.203 16.3761 98.1054 15.792C97.2098 15.0895 96.9482 13.7013 97.6207 12.8768C98.6376 11.6307 101.83 11.7658 103.317 11.5531C103.298 11.4046 103.252 11.0005 103.175 10.8943C102.701 10.2334 101.562 10.1975 100.917 10.6037C100.566 10.8242 100.537 11.0758 100.458 11.4382C99.3242 11.3257 98.46 11.4486 97.3874 11.3912C97.706 8.93073 98.8979 8.08205 101.319 7.73451ZM100.831 14.2168C101.641 14.2035 102.346 14.2746 103.031 13.81L103.247 13.4062L103.215 13.309C103.118 13.3069 102.984 13.2987 102.892 13.3167C102.425 13.3624 100.633 13.44 100.4 13.8432C100.449 14.0914 100.603 14.1332 100.831 14.2168Z" fill="white"/>
<path d="M63.9796 7.734C65.3869 7.53203 67.2968 7.9329 68.2989 9.01029C69.3067 10.0936 69.3061 11.2468 69.2664 12.6343C67.0961 12.6418 64.9259 12.6377 62.755 12.6222C62.8281 12.9637 62.9166 13.3296 63.1512 13.5183C63.9097 14.1277 65.8498 14.2668 66.2088 13.121C66.2582 12.9636 68.89 13.0245 69.1753 13.0236C69.458 13.3115 68.9785 14.4797 68.7259 14.7678C66.5332 17.2694 60.333 16.8819 59.9584 12.9013C59.6752 9.89082 61.0407 8.14219 63.9796 7.734ZM65.1785 11.0357C65.5145 11.0447 66.0209 11.1265 66.2441 10.8396C66.2511 10.2604 65.0227 10.0734 64.5617 10.0738C64.3893 10.0737 64.2168 10.0825 64.045 10.0999C63.55 10.2032 62.8756 10.3625 62.889 11.0121C63.3763 11.0754 64.6303 11.0395 65.1785 11.0357Z" fill="white"/>
<path d="M75.9461 7.72607C76.116 7.71626 76.2859 7.71056 76.4565 7.70902C78.9806 7.70075 79.8666 9.11023 79.8423 11.4679C79.8256 13.0261 79.832 14.625 79.8237 16.1867L76.7277 16.1887C76.7347 15.0781 76.9578 11.6514 76.3737 10.8978C76.1686 10.6328 75.8474 10.5564 75.5294 10.5141C74.9927 10.4427 74.0907 10.4026 73.6464 10.7525C73.2578 11.0581 73.2399 11.6147 73.1892 12.0657C73.1559 13.3931 73.1835 14.8465 73.1828 16.1837C72.2038 16.183 71.1703 16.1662 70.1977 16.2162C70.1016 14.2138 70.2086 12.1435 70.1663 10.1354C70.1503 9.39176 70.1599 8.59968 70.1907 7.8576C71.1363 7.87132 72.1 7.8626 73.0469 7.86318C73.0424 8.76448 73.0193 9.74604 73.0694 10.6386C73.3399 10.0488 73.3694 9.42983 73.8246 8.82948C74.4279 8.03317 75.0344 7.87818 75.9461 7.72607Z" fill="white"/>
<path d="M93.3839 5.16324L96.4465 5.15625C96.4978 8.06123 96.417 10.9878 96.46 13.8955C96.4709 14.6196 96.4921 15.4657 96.4312 16.1812L93.3672 16.184C93.4396 12.7564 93.4826 8.5805 93.3839 5.16324Z" fill="white"/>
<defs>
<linearGradient id="paint0_linear_26865_162181" x1="3" y1="2" x2="22.8895" y2="19.9006" gradientUnits="userSpaceOnUse">
<stop stop-color="#FF4D4D"/>
<stop offset="1" stop-color="#991B1B"/>
</linearGradient>
<linearGradient id="paint1_linear_26865_162181" x1="0.625" y1="8.73438" x2="4.97394" y2="13.3411" gradientUnits="userSpaceOnUse">
<stop stop-color="#FF4D4D"/>
<stop offset="1" stop-color="#991B1B"/>
</linearGradient>
<linearGradient id="paint2_linear_26865_162181" x1="18.7656" y1="8.73438" x2="23.1146" y2="13.3411" gradientUnits="userSpaceOnUse">
<stop stop-color="#FF4D4D"/>
<stop offset="1" stop-color="#991B1B"/>
</linearGradient>
</defs>
</svg>
