<svg width="62" height="64" viewBox="0 0 62 64" fill="none" xmlns="http://www.w3.org/2000/svg">
<path d="M60.8954 36.1496L57.0502 28.4292V23.983C57.0502 16.613 51.135 10.6441 43.8398 10.6441H37.2681C37.7436 9.66729 38.0049 8.56918 38.0049 7.41046C38.0049 3.3145 34.7091 0 30.636 0C26.5631 0 23.2671 3.3145 23.2671 7.41046C23.2671 8.56918 23.5284 9.66729 24.0041 10.6441H17.4325C10.1372 10.6441 4.22202 16.613 4.22202 23.983V28.4292L0.296429 36.1294C-0.0988098 36.9041 -0.0988098 37.827 0.296429 38.6017L4.22202 46.2143V50.6606C4.22202 58.0307 10.1372 63.9994 17.4325 63.9994H43.8398C51.135 63.9994 57.0502 58.0307 57.0502 50.6606V46.2143L60.8887 38.5748C61.2705 37.8136 61.2705 36.9176 60.8954 36.1496ZM26.6167 42.4417C26.6167 45.7898 23.9171 48.5048 20.5876 48.5048C17.2582 48.5048 14.5586 45.7898 14.5586 42.4417V31.6629C14.5586 28.3146 17.2582 25.5998 20.5876 25.5998C23.9171 25.5998 26.6167 28.3146 26.6167 31.6629V42.4417ZM46.0437 42.4417C46.0437 45.7898 43.3441 48.5048 40.0147 48.5048C36.6853 48.5048 33.9856 45.7898 33.9856 42.4417V31.6629C33.9856 28.3146 36.6853 25.5998 40.0147 25.5998C43.3441 25.5998 46.0437 28.3146 46.0437 31.6629V42.4417Z" fill="black"/>
</svg>
