<svg width="64" height="64" viewBox="0 0 64 64" fill="none" xmlns="http://www.w3.org/2000/svg">
<g clip-path="url(#clip0_27636_62155)">
<path fill-rule="evenodd" clip-rule="evenodd" d="M15.8359 34.2257C16.1746 34.1217 16.5959 34.2791 16.8306 34.607C16.9053 34.7084 16.9266 34.8524 16.9533 34.9804C16.9613 35.0177 16.8999 35.0684 16.8466 35.1137C16.5159 34.8524 16.2066 34.5964 15.9026 34.3377C15.8733 34.3111 15.8599 34.2657 15.8359 34.2257ZM22.3905 25.0978C22.9105 25.0125 23.4305 24.9378 23.9585 24.9645C24.0927 24.9691 24.2255 24.9924 24.3532 25.0338C24.8919 25.2231 25.4252 25.4258 25.9558 25.6311C26.0305 25.6578 26.0892 25.7271 26.1558 25.7778L26.1212 25.8498C25.8889 25.7741 25.6578 25.695 25.4278 25.6125C25.1212 25.5111 24.8599 25.4071 24.5879 25.3511C23.9212 25.2178 23.9212 25.2285 23.8092 25.3138L25.3398 25.6978C26.0732 26.0685 26.8065 26.4338 27.5345 26.8098C27.6465 26.8685 27.7745 26.9618 27.8198 27.0711C27.8892 27.2311 27.9878 27.2738 28.1318 27.2631C28.3078 27.2471 28.4838 27.2178 28.6998 27.1911L28.5932 27.4205C28.7291 27.6338 28.9718 27.4738 29.1691 27.5911C28.9718 27.9378 28.5105 27.8311 28.2785 28.1218L28.4412 28.3191L28.1212 28.5511C28.1212 28.8338 28.0198 28.9991 27.3052 29.1991L27.3745 29.4258L26.8518 29.5378L27.0385 29.8684H26.3718L26.3532 30.2338C26.1372 30.2071 25.9238 30.1858 25.7025 30.1618L25.5612 30.4898C25.4892 30.4684 25.4225 30.4604 25.3665 30.4284C25.1878 30.3271 25.0252 30.2791 24.8465 30.4444C24.7959 30.4898 24.6785 30.4818 24.5985 30.4658C24.5292 30.4498 24.4652 30.3884 24.4119 30.3538C24.1185 30.6071 24.1185 30.6071 23.8572 30.3618C23.7052 30.4844 23.5372 30.5591 23.3612 30.3911C23.1932 30.4631 23.0332 30.3378 22.8865 30.3538C22.6999 30.3724 22.6279 30.2604 22.5319 30.1671L22.1852 30.2551C22.1505 29.6258 21.6679 29.7484 21.2786 29.7138C21.2919 29.5218 21.4119 29.4684 21.5319 29.4631C21.6755 29.4584 21.8189 29.4782 21.9559 29.5218C22.3932 29.6551 22.8092 29.8418 23.2785 29.8898C23.8199 29.9458 24.3585 29.9671 24.8812 29.8498C25.5878 29.6924 26.2678 29.4524 26.7665 28.8764C26.8972 28.7271 26.9878 28.5378 27.0785 28.3564C27.1292 28.2551 27.1318 28.1324 27.0252 28.0471C26.7183 27.8017 26.3745 27.6064 26.0065 27.4684C26.0705 27.7884 25.9238 27.9538 25.6998 28.0578C25.6998 28.0951 25.6892 28.1244 25.6998 28.1378C25.9132 28.4444 25.9238 28.5644 25.6812 28.8498C25.5085 29.058 25.3136 29.2467 25.0998 29.4124C24.8496 29.6073 24.5356 29.7017 24.2194 29.677C23.9031 29.6524 23.6075 29.5104 23.3905 29.2791C23.2624 29.153 23.1439 29.0175 23.0359 28.8738C22.8279 28.5884 22.8332 28.5858 22.9479 28.2444C22.5079 28.0311 22.6065 27.6418 22.6705 27.2738C22.6919 27.1405 22.7452 27.0178 22.8012 26.8391C22.6945 26.8765 22.6225 26.8845 22.5692 26.9245C22.2076 27.16 21.9164 27.4889 21.7265 27.8764C21.7079 27.9191 21.6999 27.9671 21.6732 28.0018C21.6412 28.0418 21.5825 28.1031 21.5532 28.0951C21.4999 28.0791 21.4545 28.0231 21.4199 27.9751C21.3986 27.9431 21.4012 27.8898 21.3879 27.8231H21.0519L21.1932 27.3645C21.1586 27.3208 21.124 27.2773 21.0892 27.2338L21.3826 26.4765C21.2226 26.5458 21.1399 26.5938 21.0519 26.6125C20.9719 26.6311 20.8812 26.6125 20.7986 26.6125C20.7986 26.5298 20.7719 26.4258 20.8092 26.3671C21.2066 25.7805 21.6225 25.2258 22.3905 25.0978Z" fill="black"/>
<path fill-rule="evenodd" clip-rule="evenodd" d="M21.5034 28.7662C21.4954 28.6648 21.4927 28.5662 21.602 28.6008C21.6447 28.6168 21.6927 28.7288 21.6767 28.7795C21.65 28.8862 21.5727 28.8648 21.5034 28.7662Z" fill="black"/>
<path fill-rule="evenodd" clip-rule="evenodd" d="M31.9525 0.0230106C32.5552 -0.00898906 33.1605 -0.00632241 33.7632 0.0230106C34.4218 0.0496771 35.0832 0.0870101 35.7365 0.188342C36.8058 0.359008 37.8645 0.607005 38.9098 0.916336C40.1444 1.28433 41.3631 1.71366 42.5258 2.27899C45.7443 3.85968 48.4645 6.2975 50.387 9.32426C51.1657 10.5749 51.8163 11.8922 52.3577 13.2682C52.9417 14.7509 53.547 16.2282 54.019 17.7562C54.563 19.5002 54.8963 21.2921 55.2403 23.0815C55.499 24.4254 55.7256 25.7748 56.0136 27.1108C56.4296 29.0361 56.891 30.9507 57.331 32.8707C57.827 35.036 58.3976 37.1773 59.0109 39.3106C59.2829 40.2573 59.5256 41.212 59.7629 42.1693C60.0563 43.3319 60.3016 44.5053 60.4403 45.6972C60.5229 46.4386 60.6163 47.1826 60.6349 47.9292C60.6654 48.7117 60.6503 49.4952 60.5896 50.2759C60.4909 51.3772 60.3229 52.4572 59.9869 53.5078C59.4589 55.1147 58.6309 56.6068 57.547 57.9051L57.2003 58.3211L57.2483 58.3825C57.363 58.3211 57.483 58.2731 57.587 58.2011C58.1203 57.8331 58.5816 57.3825 59.0029 56.8945C60.0696 55.6678 60.9256 54.2998 61.6029 52.8172C62.2658 51.3832 62.5636 49.8075 62.4696 48.2306C62.4056 47.0999 62.2109 46.0066 61.6696 44.9959C61.6349 44.9239 61.6296 44.8359 61.5896 44.6733C61.7229 44.7666 61.8082 44.8013 61.8589 44.8653C62.1442 45.2119 62.4456 45.5533 62.6989 45.9266C63.5789 47.2439 63.9256 48.7319 63.9949 50.2999C64.0668 52.1328 63.6333 53.9502 62.7416 55.5532C61.7816 57.2998 60.3763 58.5931 58.6723 59.5691C58.1576 59.8651 57.6216 60.1291 57.0856 60.3904C56.667 60.5984 56.4243 60.9531 56.2376 61.3638C56.1511 61.5291 56.0988 61.7102 56.0837 61.8962C56.0686 62.0822 56.091 62.2693 56.1496 62.4464C56.1853 62.5665 56.1971 62.6925 56.1843 62.8171C56.171 63.0224 55.979 63.2304 55.811 63.2491C55.667 63.2651 55.4776 63.1344 55.411 62.9398C55.3371 62.7385 55.2835 62.5304 55.251 62.3184C55.1443 61.4811 54.8376 60.7184 54.4297 59.9985C53.9059 59.0967 53.2497 58.2787 52.483 57.5718C51.8133 56.9157 50.9915 56.4356 50.091 56.1745C49.4871 56.0052 48.8697 55.8884 48.2457 55.8252C48.0457 55.8038 47.8457 55.7185 47.659 55.8518C48.139 56.0118 48.627 56.1452 49.0937 56.3318C50.251 56.7931 51.2803 57.4785 52.2403 58.2731C53.0617 58.9531 53.787 59.7211 54.3577 60.6304C54.619 61.0438 54.8536 61.4704 54.963 61.9531C55.035 62.2811 55.075 62.6198 55.1416 62.9531C55.1763 63.1184 55.1363 63.2438 55.0003 63.3371C54.875 63.4251 54.675 63.4278 54.5657 63.3104C54.4729 63.1997 54.4006 63.0732 54.3523 62.9371C54.2723 62.7424 54.251 62.5131 54.1443 62.3371C53.1092 60.676 51.83 59.1801 50.3497 57.8998C49.923 57.5345 49.4724 57.2065 48.9177 57.0385C47.915 56.7345 46.9097 56.4972 45.8511 56.6278C45.2831 56.6945 44.7124 56.7131 44.1444 56.7691C43.4387 56.8491 42.7641 57.1039 42.1818 57.5105C41.3738 58.0689 40.6282 58.7126 39.9578 59.4305C39.0805 60.3425 38.2458 61.2944 37.4111 62.2438C37.0485 62.6571 36.7071 63.0944 36.5738 63.6597C36.5629 63.705 36.5523 63.7504 36.5418 63.7957C36.53 63.8514 36.5 63.9015 36.4566 63.9382C36.4131 63.9749 36.3587 63.9961 36.3018 63.9984H35.4752C35.3525 63.9984 35.2565 63.8704 35.2832 63.7478C35.3445 63.4598 35.4032 63.1718 35.4698 62.8838C35.6698 62.0171 35.9765 61.1904 36.4512 60.4385C36.5152 60.3345 36.5578 60.2038 36.7285 60.2251L36.7551 60.3558L36.8271 60.5611C37.5738 59.4011 38.3498 58.3371 39.4831 57.5345C40.2378 56.9905 41.0404 56.5265 41.8564 56.0678C41.7712 56.0439 41.6813 56.0421 41.5951 56.0625C41.1631 56.1772 40.7284 56.2865 40.3018 56.4198C39.2298 56.7505 38.2645 57.2998 37.3418 57.9291C36.9498 58.1958 36.5471 58.4438 36.2378 58.8171C35.0686 60.2449 34.1079 61.8314 33.3845 63.5291C33.341 63.6329 33.3054 63.7399 33.2778 63.8491C33.2667 63.8916 33.2419 63.9293 33.2072 63.9563C33.1725 63.9833 33.1298 63.9981 33.0858 63.9984H31.7685C31.6619 63.9984 31.6032 63.8624 31.6725 63.7797C32.0005 63.4064 32.3285 63.0278 32.6779 62.6731C33.4112 61.9238 34.2245 61.2544 34.7498 60.3158C34.8218 60.1878 34.9178 60.0758 35.0032 59.9558C35.6378 59.0678 36.4431 58.3371 37.1845 57.5505C37.4031 57.3211 37.6511 57.1238 37.8778 56.9105C37.9551 56.8385 38.0191 56.7585 38.0885 56.6838L38.0405 56.6172L37.6805 56.7265C37.5898 56.7718 37.4938 56.8091 37.4085 56.8598C36.7471 57.2438 36.0912 57.6385 35.4272 58.0145C34.3392 58.6278 33.2272 59.1851 32.2032 59.9105C31.4539 60.4438 30.6272 60.8651 29.8325 61.3318C29.7792 61.3638 29.7152 61.3718 29.6192 61.4064C29.5792 61.0464 30.0005 60.8704 29.9072 60.5104C29.8192 60.5478 29.7365 60.5638 29.6805 60.6118C29.3845 60.8678 29.0752 61.1184 28.8059 61.4011C28.4112 61.8198 28.0486 62.2678 27.6726 62.7024C27.3392 63.0838 27.0059 63.4651 26.6779 63.8517C26.6409 63.8961 26.5949 63.9322 26.543 63.9574C26.4911 63.9827 26.4343 63.9967 26.3766 63.9984H23.3686C23.3855 63.9621 23.3997 63.9247 23.4113 63.8864C23.4859 63.6464 23.6379 63.4278 23.6326 63.1398C23.3899 63.0918 23.2006 63.1424 23.0673 63.3451C22.9409 63.5327 22.82 63.7239 22.7046 63.9184C22.6779 63.9611 22.6406 63.9984 22.5926 63.9984H22.3446C22.2939 63.9984 22.2673 63.9397 22.2993 63.8997C22.4886 63.6651 22.6726 63.4251 22.8566 63.1851C22.8593 63.1798 22.8406 63.1531 22.8246 63.1211C22.7873 63.1318 22.7446 63.1371 22.7046 63.1558C22.2353 63.3958 21.766 63.6384 21.2993 63.8864C21.1612 63.9593 21.0075 63.9978 20.8513 63.9984H13.8754C13.806 63.9984 13.7714 63.9024 13.8247 63.8571C14.3847 63.3824 14.8967 62.8598 15.3127 62.2438C16.206 60.9211 16.7473 59.4518 17.0913 57.8998C17.102 57.8465 17.0833 57.7851 17.0753 57.6571C16.9767 57.7851 16.918 57.8491 16.8727 57.9238C16.628 58.3318 16.3283 58.7042 15.982 59.0305C15.2353 59.7185 14.4087 60.2251 13.3607 60.2678C12.5687 60.2998 11.7927 60.2678 11.0541 59.9291C9.8274 59.3691 9.12874 58.4091 8.93674 57.0705C8.87008 56.6172 8.89141 56.6145 8.45141 56.4865C7.29711 56.1768 6.21274 55.6491 5.25678 54.9318C4.24337 54.1752 3.49038 53.1221 3.10213 51.9185C2.76489 50.8458 2.62043 49.7217 2.67547 48.5986C2.6808 48.5079 2.71813 48.4199 2.73947 48.3319C2.8248 48.3932 2.86213 48.4466 2.8728 48.5079C2.9608 48.9159 3.03013 49.3292 3.1288 49.7345C3.35813 50.6812 3.81412 51.5052 4.50478 52.1879C5.19278 52.8705 6.02744 53.3052 6.93143 53.6065C7.88608 53.9212 8.84341 53.9745 9.78473 53.5638C10.4134 53.2797 10.977 52.8694 11.4407 52.3585C12.3154 51.4305 12.862 50.3319 13.1687 49.0972C13.1927 49.0066 13.182 48.9079 13.1874 48.8039C13.1474 48.8199 13.118 48.8199 13.1074 48.8332C13.0247 48.9666 12.9367 49.0999 12.8594 49.2386C12.102 50.5772 11.0487 51.6039 9.67007 52.2652C8.73408 52.7185 7.75542 52.9452 6.7101 52.6892C5.6642 52.4635 4.74056 51.8547 4.12079 50.9825C3.59203 50.2566 3.25455 49.4092 3.13946 48.5186C3.03622 47.7329 3.0542 46.9361 3.1928 46.1559C3.32613 44.9853 4.43545 43.0359 5.17144 42.7666C5.11811 42.9346 5.07811 43.0653 5.03011 43.1933C4.91545 43.5026 4.77145 43.7986 4.68345 44.1133C4.48016 44.8237 4.43465 45.57 4.55012 46.2999C4.63812 46.8652 4.79011 47.4092 5.09411 47.8999C5.48611 48.5292 6.01677 48.9852 6.74743 49.1399C7.04076 49.2012 7.34742 49.1772 7.64875 49.1879C8.02297 49.2008 8.38902 49.0766 8.67808 48.8386C9.11541 48.4972 9.43007 48.0599 9.65407 47.5559C10.1021 46.5559 10.2941 45.4839 10.4781 44.4119C10.6114 43.6226 10.7261 42.8279 10.8327 42.0306C10.9367 41.2813 11.0221 40.5293 11.1101 39.7773C11.1794 39.1586 11.2381 38.54 11.3074 37.9213C11.3714 37.3133 11.4461 36.708 11.5101 36.1C11.5741 35.4947 11.6354 34.8867 11.694 34.2787C11.7287 33.9054 11.7527 33.532 11.7847 33.1587L11.8834 32.0467C11.942 31.38 11.9927 30.7134 12.0567 30.0521C12.078 29.8334 12.0034 29.7001 11.8167 29.5801C11.3323 29.2678 10.8912 28.893 10.5047 28.4654C10.2381 28.1747 10.0034 27.8574 9.75273 27.5534C9.6594 27.4414 9.6034 27.2948 9.4434 27.2388C9.60209 27.8049 9.84961 28.3422 10.1767 28.8307C10.3367 29.0761 10.5261 29.3001 10.6994 29.5374C10.8674 29.7667 11.1847 29.8441 11.3234 30.1401C11.2487 30.1481 11.2007 30.1667 11.1634 30.1561C10.9666 30.1101 10.771 30.0594 10.5767 30.0041C9.24721 29.6197 8.05602 28.8617 7.14476 27.8201C5.98477 26.5214 5.39544 24.9508 5.25144 23.2255C5.16767 22.2844 5.18018 21.3373 5.28878 20.3988C5.48077 18.7935 5.87544 17.2362 6.48876 15.7455C6.90209 14.7429 7.39009 13.7695 7.89142 12.8069C8.43808 11.7589 9.13407 10.8069 9.9314 9.93758C11.2967 8.44693 12.8754 7.20694 14.534 6.07629C16.446 4.76963 18.4753 3.68164 20.606 2.78832C21.9873 2.20699 23.3819 1.68433 24.8299 1.31633C26.5766 0.873669 28.3232 0.43634 30.1152 0.209676C30.7259 0.129676 31.3365 0.0550103 31.9499 0.0230106H31.9525ZM27.0272 60.8758C26.8406 61.0358 26.6352 61.1718 26.4752 61.3558C25.8406 62.0758 25.2379 62.8198 24.6939 63.6731L24.5766 63.9611C24.6732 63.9378 24.76 63.8846 24.8246 63.8091C25.2886 63.3024 25.7606 62.8011 26.2086 62.2784C26.4859 61.9531 26.7286 61.5984 26.9766 61.2491C27.0406 61.1584 27.0566 61.0358 27.0992 60.9291L27.0272 60.8758ZM31.4272 51.0225C30.8054 51.5023 30.2231 52.0311 29.6859 52.6039L28.6992 53.6332C28.4218 53.9321 28.0772 54.1606 27.6939 54.2998C27.2959 54.4517 26.8745 54.5329 26.4486 54.5398C26.3312 54.5398 26.2166 54.5558 26.0459 54.5718C26.1206 54.7265 26.1606 54.8305 26.2166 54.9212C26.6166 55.5665 27.0192 56.2065 27.4166 56.8518C27.7792 57.4385 28.1526 58.0198 28.4806 58.6278C28.6619 58.9611 28.7606 59.3398 28.8966 59.7051C29.1019 59.7771 29.2699 59.6571 29.4352 59.5771C30.2085 59.2171 30.9792 58.8465 31.7472 58.4785C32.3152 58.2091 32.9125 57.9825 33.4432 57.6518C34.3685 57.0785 35.2565 56.4385 36.1578 55.8252C36.1978 55.7985 36.2272 55.7505 36.2698 55.7025C36.2085 55.6518 36.1685 55.6038 36.1205 55.5852C35.3552 55.2892 34.7152 54.7852 34.0672 54.2998C33.5947 53.9547 33.1441 53.5807 32.7179 53.1799C32.229 52.6875 31.8555 52.0928 31.6245 51.4385C31.5739 51.3079 31.5045 51.1852 31.4245 51.0225H31.4272ZM15.8353 51.7265C15.6753 51.9825 15.5767 52.2439 15.4833 52.5079C15.1478 53.4837 14.6472 54.3947 14.0034 55.2012C13.47 55.8678 12.79 56.2998 11.9714 56.5158C11.3581 56.6758 10.7341 56.7185 10.1047 56.7025C9.97673 56.6971 9.84607 56.7078 9.6834 56.7158C9.72607 56.8225 9.7394 56.8918 9.77673 56.9425C10.0434 57.3291 10.3901 57.5985 10.8434 57.7291C11.2621 57.8518 11.686 57.8198 12.1714 57.7905C12.654 57.6918 13.086 57.4838 13.4647 57.1665C14.0994 56.6358 14.5367 55.9558 14.894 55.2145C15.3607 54.2465 15.598 53.2118 15.806 52.1639C15.8327 52.0225 15.8273 51.8705 15.8353 51.7265ZM55.6883 39.4973C55.7096 39.5746 55.731 39.6493 55.7603 39.7826C55.8243 40.196 55.8963 40.6093 55.9523 41.02C56.0323 41.604 56.131 42.1853 56.1603 42.7719C56.2056 43.6893 56.2323 44.6093 56.123 45.5266C56.0243 46.3666 55.955 47.2146 55.8136 48.0492C55.5811 49.4458 55.1688 50.8064 54.587 52.0972C54.5656 52.1452 54.5603 52.2012 54.5336 52.3159C54.659 52.2359 54.739 52.2039 54.795 52.1452C55.0216 51.9239 55.2483 51.6999 55.4563 51.4652C56.179 50.6519 56.6776 49.7052 57.0456 48.6839C57.5256 47.3559 57.6536 45.9879 57.4323 44.6013C57.1576 42.8679 56.5523 41.2333 55.8403 39.5853C55.8191 39.5363 55.7978 39.4875 55.7763 39.4386L55.6883 39.4973ZM15.462 22.1055C15.4364 22.2432 15.4532 22.3854 15.51 22.5135C15.8407 23.1828 16.1767 23.8495 16.5207 24.5134C16.5873 24.6441 16.6967 24.7534 16.6007 24.9481C15.8433 25.1081 15.0593 25.2654 14.254 25.6281C14.4114 25.7294 14.5127 25.7881 14.606 25.8601C14.718 25.9454 14.9047 26.0148 14.846 26.1801C14.8194 26.2681 14.646 26.3081 14.534 26.3721C14.5794 26.3988 14.6487 26.4281 14.7127 26.4681C15.1553 26.7401 15.5927 27.0201 15.9047 27.4494C16.2727 27.9614 16.5153 28.5267 16.406 29.1667C16.1953 30.4174 15.59 31.4334 14.566 32.1854C14.422 32.292 14.2834 32.4067 14.1367 32.5107C14.0324 32.5812 13.9509 32.6805 13.9021 32.7965C13.8534 32.9125 13.8394 33.0402 13.862 33.164C13.8878 33.3431 13.9371 33.5179 14.0087 33.684C14.23 34.2067 14.5954 34.6174 15.0087 34.996C15.23 35.1987 15.4327 35.4333 15.6007 35.6813C15.7011 35.8275 15.7603 35.9979 15.772 36.1749C15.7837 36.3518 15.7476 36.5286 15.6673 36.6867C15.606 36.82 15.534 36.9507 15.4647 37.0813C15.3847 37.2413 15.39 37.3773 15.5233 37.5133C15.6327 37.6253 15.7367 37.7507 15.822 37.8813C15.9233 38.036 16.03 38.092 16.214 38.0147C16.4989 37.9049 16.8134 37.8992 17.102 37.9987C17.5287 38.1213 17.9073 38.3347 18.286 38.5586C18.6327 38.764 18.99 38.956 19.3526 39.1426C19.5313 39.236 19.726 39.276 19.9366 39.212C20.126 39.1533 20.2673 39.2386 20.3233 39.4146C20.3766 39.5853 20.3153 39.7026 20.126 39.7853C19.9393 39.8653 19.7606 39.9533 19.5686 40.02C19.302 40.1133 19.0326 40.2146 18.7313 40.2253C18.6966 39.94 19.0246 39.9906 19.07 39.8013C18.5207 39.4653 17.3553 39.4146 16.934 39.7106C17.102 40.0093 17.0273 40.2706 16.678 40.5453C16.3313 40.2786 16.6113 40.0066 16.6833 39.7453C16.6098 39.7299 16.534 39.7295 16.4603 39.7441C16.3867 39.7588 16.3168 39.7882 16.2547 39.8305C16.1927 39.8728 16.1399 39.9273 16.0995 39.9905C16.059 40.0538 16.0318 40.1246 16.0193 40.1986C15.9793 40.468 16.198 40.7746 16.494 40.796C16.782 40.8146 17.0753 40.7826 17.3633 40.764C17.5233 40.7506 17.6833 40.692 17.894 40.764C17.6193 41.092 17.2327 41.1026 16.942 41.2706C16.9473 41.404 17.1287 41.5 16.9927 41.62C16.8513 41.748 16.7393 41.6173 16.6407 41.54C16.4273 41.372 16.214 41.204 16.0247 41.0146C15.7849 40.8014 15.6352 40.5049 15.606 40.1853C15.5943 40.027 15.5555 39.8718 15.4913 39.7266C15.406 39.5293 15.406 39.3613 15.5793 39.22C15.5313 39.14 15.5047 39.0786 15.4593 39.028C15.2299 38.7324 15.0531 38.3996 14.9367 38.044C14.7954 37.6787 14.814 37.34 15.0647 37.028C15.1287 36.948 15.198 36.868 15.2353 36.7747C15.2966 36.6315 15.3388 36.4809 15.3607 36.3267C15.406 35.8867 15.19 35.5613 14.8754 35.2947C14.3794 34.8787 13.9154 34.436 13.6487 33.8254C13.6354 33.796 13.5847 33.78 13.55 33.756C13.5207 33.8014 13.486 33.828 13.4834 33.8574C13.4327 34.3507 13.3634 34.844 13.3447 35.3427C13.3074 36.348 13.4994 37.324 13.7767 38.2867C14.0914 39.38 14.5474 40.4146 15.078 41.4146C15.79 42.7533 16.51 44.0866 17.2433 45.4146C17.39 45.6759 17.59 45.9186 17.798 46.1346C18.326 46.6732 19.0033 46.8599 19.7286 46.8626C20.2673 46.8626 20.806 46.8466 21.342 46.7932C22.1286 46.7132 22.9153 46.5986 23.6993 46.4919C24.1873 46.4252 24.6726 46.3399 25.1606 46.2786C25.7206 46.2092 26.1739 46.4732 26.5526 46.8386C26.9792 47.2546 27.3659 47.7106 27.7446 48.1719C28.3312 48.8786 28.8032 49.6652 29.2219 50.4839C29.3552 50.7452 29.4085 50.7505 29.6139 50.5639C29.9605 50.2412 30.3072 49.9185 30.6645 49.6039C30.8432 49.4465 30.8992 49.2839 30.8432 49.0359C30.6875 48.3392 30.6115 47.6271 30.6165 46.9132C30.6219 46.4946 30.6325 46.0759 30.6645 45.6573C30.7045 45.0599 30.7445 44.4573 30.8245 43.8653C31.1061 41.8165 31.4279 39.7734 31.7899 37.7373C32.0219 36.4227 32.2752 35.1133 32.5045 33.7987C32.6645 32.8734 32.8192 31.948 32.9365 31.0174C33.0272 30.2894 33.0832 29.5507 33.1045 28.8174C33.1338 27.9321 33.1125 27.0441 33.1098 26.1561C33.1098 25.9508 33.1205 25.7428 33.0832 25.5428C33.0085 25.1641 33.0565 25.1294 32.6512 25.0361C32.117 24.9125 31.5767 24.8173 31.0325 24.7508C30.6432 24.7028 30.4805 24.6094 30.4432 24.2441C30.4272 24.1135 30.3765 23.9828 30.3339 23.8548C30.3099 23.7881 30.2699 23.7268 30.2112 23.6148L30.1445 24.3188C30.1205 24.5748 30.0672 24.6281 29.8059 24.6254C29.6592 24.6254 29.5125 24.6041 29.3685 24.6041C28.0992 24.6041 26.8299 24.5828 25.5659 24.6894C25.3126 24.7108 25.1046 24.6494 24.9633 24.4148C24.8566 24.2388 24.7286 24.0788 24.6059 23.9188C24.4379 23.6948 24.3766 23.6708 24.1206 23.7588C23.6006 23.9401 23.0859 24.1268 22.5686 24.3188C21.921 24.5802 21.3147 24.9341 20.7686 25.3694C20.5118 25.5709 20.2197 25.7229 19.9073 25.8174C19.8193 25.8441 19.7206 25.8388 19.5686 25.8521C19.622 25.6761 19.6326 25.5481 19.694 25.4521C19.8646 25.1721 20.054 24.9054 20.2406 24.6361C20.302 24.5481 20.3713 24.4681 20.4353 24.3828L20.3953 24.3215L19.8593 24.4201C19.47 24.5268 19.07 24.6068 18.694 24.7454C18.2993 24.8868 17.9847 24.8068 17.6647 24.5534C16.9125 23.9559 16.2537 23.2494 15.71 22.4575L15.462 22.1055ZM38.3738 46.0066L37.9818 46.2466C37.3951 46.6039 36.8085 46.9559 36.2245 47.3186C35.9765 47.4732 35.7338 47.6386 35.5045 47.8199C35.2778 48.0066 35.1738 48.2492 35.3125 48.5452C35.4378 48.8119 35.5605 49.0786 35.7045 49.3292C35.8298 49.5426 36.0352 49.6972 36.2725 49.7212C36.5658 49.7479 36.8805 49.7532 37.1685 49.6892C37.7471 49.5559 38.1605 49.1426 38.5765 48.7372C38.6912 48.638 38.7743 48.5073 38.8155 48.3613C38.8567 48.2153 38.8543 48.0605 38.8085 47.9159C38.6858 47.4359 38.5978 46.9426 38.4938 46.4572C38.4645 46.3186 38.4218 46.1826 38.3738 46.0066ZM37.6885 39.5826C37.3685 40.3586 37.1418 41.1746 36.8218 42.0093C36.4192 43.1639 36.0378 44.3293 35.6618 45.5373C35.7578 45.5106 35.8058 45.5106 35.8405 45.4893C36.5365 45.0626 37.2325 44.6253 37.9338 44.1986C38.0778 44.1106 38.1231 43.9906 38.1071 43.8306C38.0751 43.4839 38.0431 43.1319 38.0165 42.7826L37.8351 40.42C37.8138 40.1453 37.7818 39.8706 37.7578 39.5933C37.7338 39.5933 37.7125 39.588 37.6885 39.5826ZM45.9044 17.9028L46.1684 18.6628C46.3817 19.2788 46.5924 19.8975 46.8084 20.5668L48.355 25.7721C48.8537 27.4521 49.347 29.1374 49.843 30.8201C50.147 31.8387 50.4697 32.852 50.7577 33.876C50.9497 34.5614 51.0937 35.26 51.2537 36.0067C51.371 36.556 51.4857 37.108 51.5923 37.7133C51.683 37.996 51.6537 38.316 51.7977 38.58L51.8643 38.564L51.683 37.5987C51.5817 37.0493 51.4777 36.5 51.3817 35.8973C51.3417 35.7107 51.3043 35.5213 51.259 35.3347C51.0057 34.2787 50.787 33.212 50.4857 32.1694C49.963 30.3427 49.3844 28.5321 48.8377 26.7134C48.3977 25.2494 47.979 23.7801 47.5364 22.3188C47.3524 21.7135 47.1364 21.1188 46.9337 20.4655L46.6217 19.5695C46.5231 19.2842 46.4217 18.9935 46.3151 18.7108C46.2084 18.4282 46.0911 18.1508 45.9764 17.8735C45.9524 17.8824 45.9284 17.8913 45.9044 17.9002V17.9028ZM16.6033 38.1427C16.4353 38.14 16.2967 38.18 16.246 38.364C16.4017 38.4837 16.5912 38.5512 16.7875 38.5569C16.9838 38.5627 17.1769 38.5064 17.3393 38.396C17.0968 38.3037 16.8513 38.2192 16.6033 38.1427ZM13.95 31.9454C13.8807 31.8734 13.798 31.8174 13.75 31.9507C13.718 32.036 13.7314 32.1374 13.7234 32.252C13.942 32.1534 13.942 32.1534 13.95 31.9454ZM14.1154 28.7747C14.0683 28.7828 14.0233 28.8002 13.983 28.8258C13.9427 28.8515 13.908 28.8849 13.8807 28.9241C13.8304 29.0133 13.8072 29.1152 13.814 29.2174C13.8274 29.6227 13.8407 30.0334 13.8834 30.4361C13.9121 30.6377 13.9715 30.8337 14.0594 31.0174C14.222 31.3801 14.478 31.4627 14.8274 31.2867C14.974 31.2147 14.9874 31.1427 14.894 30.9934C14.7742 30.809 14.6595 30.6214 14.55 30.4307C14.51 30.2494 14.374 30.0814 14.462 29.8787C14.5687 29.6387 14.2594 29.5694 14.2647 29.3721V28.9961C14.2567 28.8947 14.2487 28.7641 14.1154 28.7747ZM14.07 26.1934C13.6312 26.1858 13.1993 26.3033 12.8247 26.5321C12.622 26.6521 12.6007 26.7188 12.6914 26.9534C12.782 27.1854 12.878 27.4148 12.998 27.6308C13.1687 27.9428 13.238 27.9641 13.558 27.8361C13.8391 27.7111 14.1481 27.6624 14.454 27.6948C14.9927 27.7534 15.406 28.0574 15.798 28.3987L16.0433 28.6041C16.062 28.5881 16.0807 28.5694 16.102 28.5561C16.0513 28.2761 16.0087 27.9534 15.7047 27.8521C15.286 27.7108 14.8407 27.6521 14.35 27.5401L13.71 27.5268C14.35 27.0761 14.9154 27.4094 15.542 27.5508C15.374 27.2441 15.134 27.1588 14.9287 27.0361C14.71 26.9028 14.4754 26.7908 14.262 26.6521C14.102 26.5534 13.942 26.4388 14.07 26.1934ZM41.3578 27.0601C40.7444 27.0334 40.2191 27.2734 39.7365 27.6228C39.6458 27.6921 39.5765 27.7961 39.4565 27.9347C39.6885 28.0041 39.8565 28.0574 40.0751 28.1081C40.1924 28.0681 40.3098 28.0281 40.4218 27.9854C41.2378 27.6814 42.0484 27.6788 42.8324 28.0681C43.1684 28.2361 43.4644 28.1747 43.8084 28.0547C43.7551 27.9721 43.7284 27.9107 43.6884 27.8654C43.3632 27.5193 42.9504 27.2678 42.4938 27.1374C42.1204 27.0201 41.7364 27.0761 41.3578 27.0601ZM21.31 17.2868C21.2859 17.404 21.2877 17.5251 21.3153 17.6415C21.5286 18.4975 21.7313 19.3562 21.9606 20.2068C22.238 21.2388 22.6806 22.2068 23.1766 23.1481C23.2299 23.2468 23.3393 23.3615 23.4379 23.3801C23.6716 23.4098 23.9086 23.362 24.1126 23.2441L22.8539 21.0041C22.2406 19.8095 21.774 18.5508 21.31 17.2868ZM27.7286 1.32433C27.1952 1.303 26.6486 1.335 26.1206 1.415C25.4913 1.50833 24.8673 1.647 24.2539 1.82033C23.4886 2.03366 22.7366 2.30032 21.982 2.54832C21.8753 2.58299 21.7846 2.64965 21.6886 2.70299C21.7633 2.74032 21.822 2.75098 21.8753 2.74032C22.6406 2.55899 23.4219 2.51365 24.2033 2.50032C24.5606 2.49499 24.9206 2.52432 25.2753 2.56699C25.7819 2.63099 26.2939 2.69499 26.7952 2.80698C28.0112 3.08432 29.1259 3.60698 30.1685 4.28964C31.4059 5.10563 32.5365 6.04962 33.5205 7.16428C34.0672 7.78294 34.5738 8.43093 35.0138 9.13493C35.4672 9.86559 35.8538 10.6309 36.2112 11.4176C36.9391 13.0202 37.4271 14.7029 37.8111 16.4202C37.9178 16.8815 37.9978 17.3482 38.0778 17.8175C38.1231 18.0948 38.2511 18.2628 38.5311 18.3242C38.8565 18.3988 39.0645 18.6042 39.1178 18.9935C39.1098 19.2655 38.9578 19.4575 38.7738 19.6335C38.4707 19.8975 38.2271 20.2229 38.0591 20.5882C38.1413 20.5752 38.2181 20.5392 38.2805 20.4842C38.4938 20.2548 38.7125 20.0255 38.9071 19.7775C39.1166 19.5273 39.2384 19.2154 39.2538 18.8895C39.2778 18.7562 39.3125 18.6228 39.3178 18.4895C39.3365 18.1588 39.2725 18.0895 38.9365 18.0415C38.8698 18.0308 38.8058 18.0042 38.7418 18.0015C38.5231 17.9828 38.4085 17.8335 38.3765 17.6522C38.2885 17.1242 38.3658 16.7055 39.0351 16.5642C39.2645 16.5162 39.4991 16.4842 39.7285 16.4522C40.1498 16.3909 40.5684 16.3109 40.9898 16.2735C41.3631 16.2415 41.4964 16.3615 41.5924 16.7189C41.6138 16.7962 41.6404 16.8709 41.6484 16.9509C41.6991 17.4282 41.6271 17.5508 41.2724 17.7188C41.2004 17.7535 41.1258 17.7828 41.0644 17.8308C41.0028 17.876 40.9555 17.938 40.9284 18.0095C40.8244 18.3935 41.1231 19.0282 41.4778 19.1962L43.2724 20.0495C43.3338 20.0788 43.4058 20.0895 43.4724 20.1108L43.5204 20.0415C43.4804 20.0202 43.4351 20.0068 43.4031 19.9775C42.9616 19.6269 42.4734 19.3397 41.9524 19.1242C41.8 19.0545 41.6461 18.9879 41.4911 18.9242C41.3904 18.8829 41.3044 18.8122 41.2445 18.7214C41.1846 18.6305 41.1534 18.5237 41.1551 18.4148C41.1471 18.1882 41.2751 18.0042 41.4964 17.9162L41.6538 17.8495C41.9178 17.7322 41.9684 17.6468 41.9524 17.3508C41.95 17.2944 41.9428 17.2382 41.9311 17.1828C41.7524 16.3989 41.6031 15.6095 41.3844 14.8362C40.8632 12.9472 40.124 11.1252 39.1818 9.40692C38.1998 7.6223 36.9497 5.99897 35.4752 4.59363C34.5523 3.6991 33.4928 2.95736 32.3365 2.39632C31.4811 1.97377 30.5683 1.67907 29.6272 1.52166C28.9987 1.41911 28.3647 1.35322 27.7286 1.32433ZM45.6457 17.2042C45.6724 17.2415 45.6937 17.2788 45.7471 17.2948L45.6884 17.1775L45.6457 17.2042ZM10.9447 10.4442C10.9214 10.4618 10.8937 10.4728 10.8647 10.4762C10.8313 10.5131 10.7957 10.5478 10.7581 10.5802C10.7314 10.6069 10.7047 10.6336 10.6381 10.6869L9.67007 11.6309C9.4354 11.8576 9.21674 12.1056 8.96074 12.3056C8.20341 12.8922 7.82742 13.7189 7.51009 14.5855C7.48661 14.6457 7.48015 14.7112 7.49142 14.7749C7.52609 14.9215 7.57942 15.0629 7.63009 15.2229L7.82742 15.2922C7.78209 15.4415 7.74742 15.5722 7.70209 15.6975C7.54742 16.1349 7.38742 16.5695 7.23542 17.0069C7.22209 17.0469 7.25676 17.1029 7.28609 17.2122C7.49942 16.7455 7.70742 16.3322 7.88608 15.9082C8.49408 14.4575 9.17674 13.0442 10.0701 11.7456C10.3101 11.3909 10.5554 11.0362 10.8247 10.6762C10.8354 10.6602 10.8434 10.6416 10.8834 10.5962C10.8861 10.5536 10.8914 10.5109 10.9234 10.4896L10.9447 10.4442ZM45.5471 16.8655C45.5548 16.8714 45.561 16.8791 45.5652 16.888C45.5694 16.8968 45.5714 16.9064 45.5711 16.9162C45.565 16.9246 45.5597 16.9336 45.5551 16.9429C45.5603 16.961 45.5665 16.9788 45.5737 16.9962L45.6217 17.0549C45.6271 17.0362 45.6404 17.0122 45.6351 16.9989C45.6271 16.9722 45.6031 16.9509 45.5817 16.8975C45.5701 16.8869 45.5586 16.8763 45.5471 16.8655ZM11.2007 11.9456C11.1927 11.9562 11.1794 11.9669 11.1287 11.9829C11.1154 12.0176 11.0994 12.0496 11.0461 12.1082C10.9433 12.2621 10.833 12.4107 10.7154 12.5536C10.5874 12.7402 10.4061 12.7002 10.2327 12.6629C9.8754 12.5882 9.62474 12.7056 9.4674 13.0442C9.23007 13.5429 8.96874 14.0309 8.73941 14.5375C8.60874 14.8255 8.44608 15.1135 8.42475 15.4975C8.64074 15.5055 8.83541 15.5162 9.03274 15.5189H9.64074C9.58319 15.7571 9.51287 15.9921 9.43007 16.2229C9.4034 16.3615 9.3714 16.4975 9.34207 16.6362L9.3954 16.6469C9.4434 16.5242 9.49407 16.4015 9.57407 16.2389C9.75007 15.8602 9.92073 15.4789 10.1074 15.1029C10.1607 14.9962 10.1981 14.8362 10.4167 14.8575C10.4167 14.9722 10.4274 15.0815 10.4167 15.1882C10.4034 15.3082 10.3714 15.4282 10.3421 15.5695C10.7181 15.6842 10.5714 16.0335 10.6487 16.2869C10.9207 16.2282 10.9261 15.7669 11.3101 15.9029V16.4495L11.3554 16.4549L12.526 13.6309C12.1794 13.6309 11.87 13.5776 11.5714 13.7189C11.5074 13.7482 11.4167 13.7162 11.2834 13.7082C11.4834 13.3082 11.654 12.9669 11.846 12.5962C11.8626 12.5606 11.8851 12.5282 11.9127 12.5002C11.9127 12.4602 11.91 12.4202 11.934 12.3989L11.95 12.3456C11.9367 12.3616 11.9234 12.3749 11.8754 12.3909C11.8647 12.4229 11.8514 12.4549 11.806 12.5109C11.7862 12.5475 11.7567 12.578 11.7207 12.5989C11.3927 13.0176 11.4807 13.0362 11.0327 12.8816C10.8221 12.8096 10.8247 12.8069 10.9074 12.4976C10.9821 12.3749 11.0567 12.2496 11.1687 12.0976C11.1687 12.0549 11.1661 12.0122 11.1874 11.9856L11.2007 11.9456ZM16.7287 10.1589C16.7207 10.1749 16.71 10.1882 16.6567 10.2016C16.406 10.5349 16.1393 10.8576 15.91 11.2069C15.4967 11.8416 15.1073 12.4896 14.7074 13.1349C14.334 13.7322 13.7874 14.1162 13.174 14.4175C13.1287 14.4389 13.0674 14.4335 12.9634 14.4469C12.9954 14.2895 13.006 14.1562 13.0514 14.0389C13.2333 13.5692 13.4371 13.1083 13.662 12.6576L13.6434 12.6042C13.6159 12.6312 13.5844 12.6537 13.55 12.6709C13.4754 12.8042 13.4034 12.9376 13.302 13.1082C12.6087 14.2389 12.1207 15.2869 12.1234 15.6415C12.1874 15.6522 12.2514 15.6709 12.318 15.6762C12.79 15.7109 12.8194 15.6949 13.0114 15.2362C13.0914 15.0495 13.2167 14.9162 13.4034 14.8362L13.87 14.6495C13.9874 14.6015 14.0967 14.4975 14.2594 14.5642C14.2674 14.6975 14.2327 14.8575 14.2967 14.9509C14.4087 15.1162 14.414 15.2842 14.422 15.4655C14.4274 15.5962 14.4674 15.7269 14.4914 15.8575C14.5687 15.7669 14.5954 15.6842 14.6247 15.5989C15.0034 14.5589 15.3633 13.5136 15.766 12.4789C16.0327 11.7962 16.3527 11.1349 16.646 10.4629C16.6807 10.3829 16.6807 10.2842 16.726 10.2176L16.7287 10.1589ZM27.3606 9.25226C27.3606 9.37226 27.3872 9.47626 27.4166 9.58025C27.5286 10.0069 27.6672 10.4282 27.7472 10.8602C27.8112 11.2149 27.8086 11.5802 27.8219 11.9429C27.8219 12.0309 27.7712 12.1216 27.7366 12.2362C27.4859 12.0816 27.6112 11.8149 27.4539 11.6629H27.1206C27.0806 11.8549 27.0939 12.0682 26.9979 12.1962C26.8219 12.4229 26.5846 12.6069 26.3686 12.8016C26.2539 12.9029 26.1606 12.8496 26.0939 12.7349L25.9712 12.5029C25.7979 12.5962 25.6593 12.6869 25.5126 12.7509C25.2033 12.8869 24.8859 13.0042 24.5793 13.1429C24.3526 13.2442 24.3393 13.2842 24.3926 13.5349C24.4299 13.7349 24.4833 13.9295 24.5179 14.1295C24.5526 14.3215 24.6513 14.4202 24.8459 14.4602C25.4673 14.5935 26.0779 14.7669 26.5979 15.1669C26.7526 14.8949 26.7526 14.8949 27.0459 14.7642C27.1259 14.7269 27.2059 14.6842 27.2912 14.6522C27.5046 14.5722 27.5979 14.6069 27.6912 14.8122C27.7526 14.9402 27.8006 15.0735 27.8672 15.2335C28.0272 14.8602 27.7552 14.5215 27.9126 14.1242C28.3312 14.6042 28.5526 15.1642 28.9126 15.6362C28.9507 15.5543 28.9707 15.4652 28.9712 15.3749C28.9766 15.0442 28.9712 14.7162 28.9766 14.3855C28.9766 14.2949 29.0112 14.2069 29.0299 14.1189L29.1152 14.1109C29.4085 14.5242 29.4619 15.0549 29.7179 15.4975C29.7315 15.1489 29.7226 14.7997 29.6912 14.4522C29.6805 14.3322 29.6912 14.2549 29.8245 14.2175C30.0379 14.3135 30.1339 14.5909 30.3979 14.6389C30.3179 13.9055 29.2699 11.6069 28.2699 10.2789C27.9659 9.94025 27.7366 9.53226 27.3632 9.24959L27.3606 9.25226ZM20.2486 11.1082C20.198 11.1989 20.1686 11.2416 20.15 11.2869C19.9873 11.7802 19.8166 12.2736 19.67 12.7696C19.5873 13.0496 19.438 13.2202 19.15 13.2762C18.91 13.3269 18.6753 13.4149 18.4353 13.4709C18.334 13.4949 18.198 13.5109 18.1207 13.4629C18.0567 13.4202 18.054 13.2789 18.0247 13.1802C17.854 13.3829 17.806 13.4122 17.5713 13.3056C17.2167 13.1402 16.8727 12.9456 16.5233 12.7696C16.3953 12.7029 16.2753 12.6016 16.07 12.6896C15.9553 13.0096 15.8273 13.3562 15.7047 13.7082C15.4407 14.4549 15.4727 14.3535 15.958 14.9162C16.0807 15.0442 16.23 14.9962 16.3687 14.9775C16.5127 14.9535 16.6513 14.8975 16.7953 14.8815C17.142 14.8469 17.4887 14.6682 17.774 14.8415C18.318 14.6709 18.806 14.5162 19.2966 14.3669C19.43 14.3269 19.534 14.3802 19.6006 14.5109C19.6593 14.6229 19.6913 14.7589 19.8193 14.8335C19.9206 14.6842 19.7846 14.4922 19.9873 14.3589L20.3606 15.0015L20.2486 11.1082ZM20.99 12.0629C20.734 12.0362 20.7046 12.0896 20.6966 12.3509C20.6913 12.4522 20.6886 12.5589 20.702 12.6576C20.782 13.1909 20.966 13.6869 21.166 14.1775C21.1713 14.1935 21.198 14.2042 21.2246 14.2175L21.4326 14.0842C21.5713 14.1802 21.6486 14.3189 21.8406 14.3189C22.3873 14.3135 22.9339 14.3562 23.4833 14.3509C23.7473 14.3482 23.9046 14.4629 24.0299 14.6709C24.0779 14.7509 24.0939 14.8762 24.2646 14.8469L24.0513 13.7962C23.9179 13.2762 23.8246 12.7429 23.5926 12.2256C23.4406 12.3776 23.2886 12.4069 23.1126 12.3482C22.9953 12.3119 22.8747 12.2869 22.7526 12.2736C22.166 12.1989 21.5793 12.1162 20.9926 12.0602L20.99 12.0629ZM48.3337 7.45761C48.571 7.89227 48.747 8.30027 48.7044 8.76693C48.6617 9.21492 48.7737 9.67892 48.587 10.1429C48.4617 10.0549 48.3524 9.92425 48.2884 9.94292C47.9764 10.0363 47.851 9.79092 47.683 9.63625C47.4179 9.38945 47.1635 9.13144 46.9204 8.86293L46.6431 8.5616C46.6227 8.57855 46.6022 8.59544 46.5817 8.61226C46.6751 8.73493 46.7684 8.86026 46.8751 9.02826C46.9817 9.19892 47.0991 9.36692 47.2004 9.54292C47.291 9.69759 47.3737 9.85758 47.2831 10.0896C47.0644 10.0629 46.8457 10.0389 46.6271 10.0043C46.4671 9.97758 46.3577 10.0043 46.2964 10.1909C46.2137 10.4522 46.1977 10.4469 45.8964 10.4309C45.9497 10.5429 45.9924 10.6442 46.0484 10.7402C46.1577 10.9376 46.1284 11.1082 45.9684 11.2629C45.8084 11.4229 45.6537 11.5882 45.4937 11.7456C45.4322 11.8115 45.3528 11.8582 45.2652 11.88C45.1777 11.9017 45.0857 11.8977 45.0004 11.8682C44.4084 11.7056 43.8084 11.5669 43.2138 11.4042C43.1284 11.3802 43.0458 11.2976 42.9844 11.2229C42.9044 11.1162 42.8458 10.9909 42.7711 10.8762C42.6538 10.6896 42.5311 10.5082 42.4084 10.3242C42.3682 10.4117 42.3552 10.5093 42.3711 10.6042C42.4031 10.9429 42.4511 11.2789 42.4644 11.6176C42.4778 11.8842 42.4004 11.9376 42.1418 11.8949C41.8644 11.8496 41.5924 11.7882 41.3151 11.7402C41.1444 11.7082 40.9658 11.6656 40.7764 11.8202L40.9924 12.3749C41.2324 12.3749 41.4351 12.3482 41.6244 12.3802C42.0937 12.4641 42.5226 12.6991 42.8458 13.0496C43.0538 13.2709 43.2564 13.4976 43.4884 13.7429L43.5364 13.7295C43.5258 13.7135 43.5151 13.6949 43.5098 13.6229C43.5471 13.4736 43.3444 13.3082 43.5578 13.1482C43.6404 13.2282 43.7284 13.3002 43.7924 13.3882C43.9471 13.5962 44.0884 13.8122 44.2431 14.0735L44.4804 14.4495L44.5444 14.4149C44.1646 13.5848 43.7851 12.7545 43.4057 11.9242C43.5524 11.9429 43.6271 11.9429 43.6938 11.9669C44.2084 12.1536 44.7204 12.3456 45.2324 12.5429C45.4297 12.6176 45.6244 12.7029 45.8164 12.7936C45.9817 12.8682 46.1151 12.8416 46.2351 12.7056C46.3684 12.5562 46.5071 12.4069 46.6457 12.2602C46.7791 12.1242 46.8991 12.1376 46.9977 12.2976C47.0404 12.3642 47.0671 12.4389 47.1044 12.5109C47.2937 12.8789 47.4857 13.2496 47.683 13.6655L48.107 14.4869L48.1737 14.4575C48.0564 14.1749 47.987 13.8762 47.8057 13.5669C47.6537 13.0816 47.3577 12.6442 47.2564 12.1136C47.619 12.2042 48.2217 12.9829 48.7684 14.0655L48.9204 14.2629L48.9684 14.2335C48.9172 14.1227 48.8709 14.0097 48.8297 13.8949C48.707 13.5082 48.571 13.1216 48.467 12.7322C48.4084 12.5109 48.371 12.2709 48.5257 12.0389L48.8164 12.1936L48.747 11.6416L48.819 11.5989C48.8777 11.6522 48.9524 11.6949 48.9924 11.7589C49.187 12.0469 49.3737 12.3456 49.5657 12.6389C49.5924 12.6816 49.643 12.7162 49.6804 12.7536C49.5844 12.1749 49.147 11.7402 49.0697 11.0842L49.483 11.3829C49.5204 10.9402 49.515 10.5322 49.595 10.1429C49.6804 9.72159 49.5337 9.35092 49.427 8.95626C49.491 8.96693 49.523 8.97226 49.5737 9.02293C49.819 9.35359 50.0617 9.68692 50.3124 10.0123C50.3657 10.0842 50.4457 10.1376 50.4964 10.2442L50.603 10.4122L50.6537 10.3722C50.5947 10.3078 50.5469 10.2339 50.5124 10.1536C50.2126 9.72117 49.9175 9.2856 49.627 8.84693C49.0377 8.0176 48.659 7.60161 48.3337 7.45761ZM30.8139 8.3296C30.8059 8.75893 31.0592 9.06293 30.9979 9.43626L30.0165 9.66825C30.2565 10.0389 30.1019 10.3002 29.8779 10.5509C29.7445 10.7029 29.6325 10.8762 29.4965 11.0256C29.3979 11.1322 29.3739 11.2336 29.4485 11.3616L29.8752 12.0949C29.9525 12.2229 30.0672 12.2709 30.2165 12.2656C30.4192 12.2576 30.6219 12.2656 30.8245 12.2629C31.1339 12.2549 31.4005 12.3216 31.5579 12.6282C31.5739 12.6656 31.6112 12.6922 31.6752 12.7669C31.6859 12.6096 31.6672 12.5056 31.7019 12.4202C31.7445 12.3136 31.8085 12.1562 31.8939 12.1322C32.1179 12.0709 32.3552 12.0682 32.5872 12.0522C32.6219 12.0496 32.6592 12.1002 32.6939 12.1296L32.8832 12.3029C32.9338 12.0096 32.6645 11.7749 32.8192 11.4762L33.1552 11.5829C33.0858 11.2549 32.9685 10.9296 32.9658 10.6069C32.9658 10.2789 33.1018 9.95892 33.2725 9.64692C33.5578 9.81225 33.6992 10.0629 33.8965 10.3216C34.3845 11.0282 34.8565 11.7429 35.2138 12.5456C35.6538 12.3376 35.9338 12.7269 36.2992 12.7802C36.2912 12.4976 35.9445 11.6042 35.7738 11.4682C35.6962 11.4092 35.5987 11.3825 35.5018 11.3936C35.3418 11.4229 35.1845 11.4976 34.9925 11.5616C34.9258 11.4576 34.8432 11.3536 34.7872 11.2362C34.4493 10.4936 34.026 9.79286 33.5258 9.14826C33.3232 8.89759 33.0992 8.66293 32.9179 8.45493L31.8752 9.21492C31.7445 9.30826 31.6245 9.29492 31.5232 9.16959L31.0725 8.6176C31.0059 8.5376 30.9312 8.46027 30.8139 8.3296Z" fill="black"/>
</g>
<defs>
<clipPath id="clip0_27636_62155">
<rect width="63.9994" height="63.9994" fill="white"/>
</clipPath>
</defs>
</svg>
