<svg width="64" height="64" viewBox="0 0 64 64" fill="none" xmlns="http://www.w3.org/2000/svg">
<path d="M31.9998 5.33398C15.9999 5.33398 8 18.6672 8 29.3338C8 40.0003 15.9999 50.6669 23.9999 53.3335V58.6668H29.3331V53.3335C29.3331 53.3335 31.9998 54.4002 34.6664 53.3335V58.6668H39.9997V53.3335C47.9996 50.6669 55.9996 40.0003 55.9996 29.3338C55.9996 18.6672 47.9996 5.33398 31.9998 5.33398Z" fill="url(#paint0_linear_27636_62168)"/>
<path d="M10.664 24.0003C2.66405 21.3337 -0.00258861 26.6669 2.66405 32.0002C5.33069 37.3335 10.664 34.6669 13.3306 29.3336C14.9306 25.6003 13.3306 24.0003 10.664 24.0003Z" fill="url(#paint1_linear_27636_62168)"/>
<path d="M53.3441 24.0003C61.344 21.3337 64.0106 26.6669 61.344 32.0002C58.6773 37.3335 53.3441 34.6669 50.6774 29.3336C49.0774 25.6003 50.6774 24.0003 53.3441 24.0003Z" fill="url(#paint2_linear_27636_62168)"/>
<path d="M23.9999 7.99901C20.4444 4.44349 17.7778 3.19906 16 4.26571" stroke="#FF4D4D" stroke-width="1.59999" stroke-linecap="round"/>
<path d="M40 7.99901C43.5555 4.44349 46.2222 3.19906 47.9999 4.26571" stroke="#FF4D4D" stroke-width="1.59999" stroke-linecap="round"/>
<path d="M24.0125 21.8628C25.7798 21.8628 27.2124 20.4302 27.2124 18.6629C27.2124 16.8956 25.7798 15.4629 24.0125 15.4629C22.2452 15.4629 20.8125 16.8956 20.8125 18.6629C20.8125 20.4302 22.2452 21.8628 24.0125 21.8628Z" fill="#050810"/>
<path d="M40.0125 21.8628C41.7798 21.8628 43.2124 20.4302 43.2124 18.6629C43.2124 16.8956 41.7798 15.4629 40.0125 15.4629C38.2452 15.4629 36.8125 16.8956 36.8125 18.6629C36.8125 20.4302 38.2452 21.8628 40.0125 21.8628Z" fill="#050810"/>
<path d="M24.5364 19.4694C25.2728 19.4694 25.8698 18.8724 25.8698 18.1361C25.8698 17.3997 25.2728 16.8027 24.5364 16.8027C23.8001 16.8027 23.2031 17.3997 23.2031 18.1361C23.2031 18.8724 23.8001 19.4694 24.5364 19.4694Z" fill="#00E5CC"/>
<path d="M40.5364 19.4694C41.2728 19.4694 41.8698 18.8724 41.8698 18.1361C41.8698 17.3997 41.2728 16.8027 40.5364 16.8027C39.8001 16.8027 39.2031 17.3997 39.2031 18.1361C39.2031 18.8724 39.8001 19.4694 40.5364 19.4694Z" fill="#00E5CC"/>
<defs>
<linearGradient id="paint0_linear_27636_62168" x1="8" y1="5.33398" x2="61.0382" y2="53.0683" gradientUnits="userSpaceOnUse">
<stop stop-color="#FF4D4D"/>
<stop offset="1" stop-color="#991B1B"/>
</linearGradient>
<linearGradient id="paint1_linear_27636_62168" x1="1.66406" y1="23.291" x2="13.2611" y2="35.5756" gradientUnits="userSpaceOnUse">
<stop stop-color="#FF4D4D"/>
<stop offset="1" stop-color="#991B1B"/>
</linearGradient>
<linearGradient id="paint2_linear_27636_62168" x1="50.0391" y1="23.291" x2="61.6361" y2="35.5756" gradientUnits="userSpaceOnUse">
<stop stop-color="#FF4D4D"/>
<stop offset="1" stop-color="#991B1B"/>
</linearGradient>
</defs>
</svg>
