<svg width="470" height="226" viewBox="0 0 470 226" fill="none" xmlns="http://www.w3.org/2000/svg">
<path d="M381.828 197.394L340.578 197.404L340.588 212.864H390.558L390.548 223.864H328.328V160.994L389.578 160.984L389.588 171.934H340.588L340.578 186.414L381.798 186.404L381.828 197.394Z" fill="#9F9F9F"/>
<path d="M73.26 205.322L23.97 205.302L14.23 223.862L0 223.772L41.4199 146.802L55.9399 146.742L97.4399 223.832L83.03 223.862L73.27 205.322H73.26ZM67.22 193.852L48.6 158.192L29.83 193.922L67.22 193.852Z" fill="#9F9F9F"/>
<path d="M164.304 218.173C153.684 226.913 134.014 226.763 120.904 223.333C113.064 221.283 106.024 217.473 100.344 212.273L108.014 203.573C118.594 214.223 136.684 217.083 150.684 213.283C155.924 211.863 159.554 207.913 157.884 203.683C154.124 194.153 113.984 201.723 104.714 185.553C100.654 178.463 103.814 169.973 110.504 165.553C125.554 155.613 154.294 157.513 168.034 170.263L160.444 178.623C154.284 173.253 146.594 170.643 138.334 170.253C130.964 169.903 121.524 170.293 116.394 175.083C115.544 175.883 115.074 178.313 115.424 179.413C116.594 183.133 123.694 184.533 128.734 185.033L145.094 186.643C153.734 187.493 165.504 190.333 169.194 197.933C172.614 204.963 170.414 213.123 164.294 218.173H164.304Z" fill="#9F9F9F"/>
<path d="M249.667 223.814L237.327 223.834L237.287 197.444H193.307L193.297 223.864L181.227 223.854V160.994L193.297 160.984L193.307 186.414H237.287L237.346 160.994H249.667V223.814Z" fill="#9F9F9F"/>
<path d="M469.76 161.122L439.12 202.122L439.07 223.862H427.02L427.08 202.252L396.25 161.162L410.42 161.002L433.11 191.332L455.72 160.992L469.76 161.122Z" fill="#9F9F9F"/>
<path d="M318.577 212.692L318.636 223.862H261.727V160.992H273.967L273.977 212.692H318.577Z" fill="#9F9F9F"/>
<path d="M300.201 132.95H169.731L169.711 65.93L207.761 27.56L234.981 0L253.721 19.06L284.691 50.47L300.201 66.26V132.95ZM281.691 114.37L281.731 73.88L243.711 35.64L234.821 26.73L207.751 53.99L188.181 73.9L188.251 114.38H281.681L281.691 114.37Z" fill="#9F9F9F"/>
</svg>
