<svg width="686" height="131" viewBox="0 0 686 131" fill="none" xmlns="http://www.w3.org/2000/svg">
<path d="M204.471 38.2624V128.64H177.01L176.021 111.846C172.498 119.264 167.059 125.239 159.247 127.974C150.366 131.092 140.788 131.274 131.846 128.448C119.493 124.542 114.144 113.673 113.852 100.865V38.2422L144.613 38.2624V93.3265C145.007 97.0506 145.471 100.633 147.782 103.399C150.093 106.164 153.797 106.881 157.34 106.891C168.239 106.901 173.578 98.2213 173.74 87.483V38.2624L204.471 38.2523V38.2624Z" fill="#9F9F9F"/>
<path d="M296.034 128.631L214.851 128.641L214.82 109.869L250.759 68.9139L260.418 59.4977L214.931 59.7702L214.992 38.2734H294.52L294.49 57.015L262.608 93.2063L249.074 107.467L296.034 107.114V128.631Z" fill="#9F9F9F"/>
<path d="M382.006 128.631L300.853 128.641L300.812 109.849L337.085 68.5102L346.228 59.528L300.944 59.7803L300.954 38.2734H380.351L380.341 57.1462L345.875 96.2946L335.117 107.366L381.976 107.093L382.006 128.631Z" fill="#9F9F9F"/>
<path d="M104.123 94.8703C103.397 79.116 91.9114 70.4265 76.9545 68.4383C81.0722 67.2979 84.8165 66.5106 88.157 64.6335C99.1577 58.4771 102.438 47.0828 100.571 34.8407C99.0972 25.2025 93.0922 17.7341 84.0595 13.9091C76.3086 10.6694 68.164 9.3978 59.4644 9.38771L0 9.29688V128.65L62.4719 128.629C68.8806 128.629 74.7241 127.691 80.7593 126.268C96.2007 121.878 104.87 111.079 104.123 94.8804V94.8703ZM52.4603 32.0855C56.2651 32.2167 59.9286 32.7718 63.249 34.1443C66.6602 36.2436 68.7595 39.0392 69.1834 43.3284C69.6173 47.7691 68.598 52.1088 65.1868 54.7631C62.0379 57.2156 58.001 57.9018 53.9741 58.134H30.0047L29.9946 32.0653H52.4603V32.0855ZM68.7292 102.853C65.3281 105.619 61.3517 106.497 57.1532 106.739L29.9946 106.759V80.3877L59.2222 80.4785C64.672 81.1749 69.4256 83.375 71.5046 88.3809C73.0992 93.4775 72.5744 98.8769 68.7292 102.853Z" fill="#9F9F9F"/>
<path d="M484.108 104.589L484.148 128.639L393.125 128.629V9.30697L424.25 9.29688L424.24 104.589H484.108Z" fill="#9F9F9F"/>
<path d="M684.398 67.7199C683.48 62.9664 681.794 58.5359 679.594 54.4283C673.519 42.9532 662.417 36.7262 649.569 36.4638C637.257 36.2115 626.952 42.166 621.341 53.4493L621.291 0L590.539 0.0201848V128.648H617.506L618.495 109.402C623.773 123.248 636.52 131.302 651.073 130.373C659.399 129.839 667.12 127.336 673.135 121.432C686.467 108.342 687.85 85.533 684.388 67.7199H684.398ZM645.129 106.283C640.153 108.483 634.522 108.423 630.071 105.748C626.377 103.528 623.874 99.6825 622.794 95.4538C619.989 84.4229 620.302 66.3575 630.596 60.8975C635.602 58.2432 641.929 58.4753 646.713 61.4728C650.316 63.7334 652.577 67.5484 653.596 71.7064C656.311 82.7677 656.069 101.439 645.119 106.273L645.129 106.283Z" fill="#9F9F9F"/>
<path d="M576.747 110.495C574.739 109.789 573.589 106.973 573.578 104.833L573.356 67.7237C573.306 60.003 570.319 52.7567 565 47.4279C553.696 36.0941 532.179 34.984 516.728 37.7291C512.388 38.4961 508.523 39.9797 504.678 41.867C496.089 46.5196 490.145 54.4017 488.55 64.2923L513.569 71.5386C514.376 63.283 520.523 57.8937 528.536 57.7423C532.563 57.3285 536.782 58.1561 539.607 61.1636C542.898 64.6455 543.533 69.4596 543.009 74.2535L519.978 78.8253C513.125 80.1878 506.696 82.4384 500.691 85.6579C491.497 90.593 486.754 99.7065 487.45 110.021C488.53 126.088 502.78 131.003 517.939 130.367C530.191 129.852 541.242 126.916 547.712 116.48C549.448 122.495 553.192 126.381 558.591 128.389C565.949 131.134 576.414 131.417 583.368 127.471L585.679 110.485C582.551 111 579.573 111.484 576.757 110.495H576.747ZM542.877 100.433C542.837 101.876 541.212 103.885 540.284 105.156C535.54 109.587 528.899 111.787 522.4 109.819C519.039 108.8 517.818 105.55 517.828 102.734C517.828 99.6257 519.281 96.5375 522.571 95.4475L529.707 93.096L543.15 89.9572L542.887 100.423L542.877 100.433Z" fill="#9F9F9F"/>
</svg>
