<svg width="549" height="111" viewBox="0 0 549 111" fill="none" xmlns="http://www.w3.org/2000/svg">
<path d="M289.683 108.372L276.353 108.412C275.143 108.412 273.853 107.302 273.853 105.932V64.9925C273.853 62.5025 273.463 59.8125 272.873 57.6325C271.183 51.3925 266.133 48.3925 259.863 48.2725C252.063 48.1225 244.733 53.2125 244.673 61.7925L244.393 105.412C244.383 107.122 243.073 108.383 241.433 108.383L228.913 108.412C227.183 108.412 225.883 107.292 225.883 105.422V36.5625C225.893 35.2425 227.213 33.8525 228.353 33.8425L237.073 33.7925C238.373 33.7925 239.603 35.2825 239.913 36.4025L241.573 42.4325C248.203 36.0525 255.853 32.3125 264.913 32.3125C273.973 32.3125 281.483 36.3125 286.343 43.8825C299.103 29.8625 322.703 27.8725 333.853 42.0625C338.043 47.3925 340.173 54.1625 340.193 61.0725L340.323 104.932C340.323 106.502 338.983 108.372 337.433 108.372L324.373 108.402C322.803 108.402 321.463 107.052 321.453 105.412L321.373 61.9925C321.373 57.1425 318.723 52.1725 314.543 49.9125C308.453 46.6225 300.713 48.1525 296.103 53.1725C293.913 55.5525 292.453 59.1525 292.453 62.5325L292.363 105.412C292.363 106.812 291.223 108.373 289.703 108.383L289.683 108.372Z" fill="#9F9F9F"/>
<path d="M430.866 68.96C432.116 92.93 413.156 111.4 389.076 109.72C379.576 109.06 371.456 105.36 364.626 98.03L362.166 105.84C361.856 106.82 360.406 108.34 359.436 108.35L351.256 108.42C349.876 108.43 348.086 107.55 348.086 105.66V3.26999C348.086 1.77999 349.486 0.019989 350.756 0.019989L363.916 0C364.976 0 366.826 1.33 366.826 2.59L366.806 41.93C372.746 36.57 379.346 33.69 386.936 32.69C401.546 30.78 415.576 36.69 424.096 48.71C428.046 54.86 430.466 61.55 430.856 68.96H430.866ZM412.086 71.04C412.086 58.43 401.866 48.2 389.246 48.2C376.626 48.2 366.406 58.42 366.406 71.04C366.406 83.66 376.626 93.88 389.246 93.88C401.866 93.88 412.086 83.66 412.086 71.04Z" fill="#9F9F9F"/>
<path d="M531.391 85.6056C531.971 85.0256 533.281 84.3156 533.971 84.3256C534.761 84.3356 536.171 85.1857 536.781 85.8357L543.111 92.6356C544.111 93.7056 543.841 95.2756 542.681 96.4956C529.221 110.646 507.421 114.146 490.421 104.326C471.761 93.5456 467.491 68.5356 477.441 50.6656C487.131 33.2756 509.771 27.8156 527.751 35.9856C535.551 39.5356 541.501 46.0556 544.821 53.8056C547.481 60.0156 550.371 73.5456 545.691 73.5456H490.721C490.571 82.7956 496.321 90.4656 505.401 92.8756C514.481 95.2856 524.481 92.4456 531.391 85.5956V85.6056ZM528.771 60.9956C526.901 52.1756 519.611 47.2556 511.211 47.4056C502.631 47.1356 494.411 51.8456 491.881 60.9656L528.771 60.9956Z" fill="#9F9F9F"/>
<path d="M470.783 95.6535L473.223 104.624C473.553 105.834 473.013 107.873 471.593 108.283C465.023 110.153 458.473 110.413 451.773 108.993C442.463 107.013 435.803 99.2235 435.803 89.4135L435.773 3.09351C435.773 1.25351 437.093 0.023498 438.763 0.023498H451.353C453.023 0.013498 454.333 1.24351 454.343 3.09351L454.413 87.6635C454.413 91.9035 458.113 94.9635 461.703 94.5135L467.203 93.8135C468.603 93.6335 470.333 93.9735 470.803 95.6735L470.783 95.6535Z" fill="#9F9F9F"/>
<path d="M39.8304 93.5384C54.5504 94.3584 58.7004 83.8385 61.4004 83.4985C62.0504 83.4185 63.4803 83.9685 64.0503 84.4485L73.2705 92.3285C75.6905 94.3985 67.6904 101.468 62.8204 104.228C49.3104 111.878 32.4204 111.808 19.0904 104.128C6.86037 97.0785 -0.0694748 85.0084 0.000525224 70.9484C0.0805252 56.7684 7.44056 44.0085 20.0406 37.3985C29.6606 32.3485 40.4404 31.2884 51.1004 33.4784C59.5104 35.2084 66.5805 39.4484 72.2205 45.8584C72.8005 46.5184 73.6004 47.5584 73.6404 48.2284C73.6804 48.8984 72.8704 50.2184 72.3304 50.6684L64.0603 57.5585C63.5203 58.0085 62.0905 58.6385 61.4305 58.4985C58.5405 57.8685 55.0004 48.5584 41.1504 48.4584C27.3004 48.3584 18.0305 58.6485 18.4505 72.0685C18.8105 83.6285 27.7504 92.8584 39.8304 93.5384Z" fill="#9F9F9F"/>
<path d="M94.3069 108.31L80.6169 108.35C79.1569 108.35 78.0469 106.87 78.0469 105.42V36.5402C78.0469 35.1302 79.7171 33.8102 80.9771 33.8102L89.6069 33.8302C90.3069 33.8302 91.957 34.7802 92.147 35.5402L94.217 43.5902L100.487 37.4902C106.597 32.3802 114.557 31.2202 122.147 33.3702C123.387 33.7202 124.297 35.1102 123.967 36.3802L120.647 49.1302C118.567 49.5802 116.607 49.3602 114.527 49.1102C109.987 48.5702 105.237 49.1002 101.907 52.4602C99.327 55.0602 97.167 59.1402 97.157 63.0802L96.9971 104.47C96.9971 105.95 96.1969 108.33 94.2969 108.33L94.3069 108.31Z" fill="#9F9F9F"/>
<path d="M129.628 84.4095C128.148 82.8195 126.718 79.8595 125.698 77.8295C124.378 75.2195 125.868 71.6895 126.618 69.1195C128.278 63.4495 124.568 58.2595 126.258 53.7695L129.708 44.5795C130.938 41.3095 135.078 39.5495 136.938 36.4795C137.648 35.3095 138.998 34.4095 140.298 34.3795C141.388 34.3495 142.418 35.9195 142.778 37.1795L146.018 48.4795L152.568 51.5795C153.678 52.0995 154.318 53.7995 154.978 55.1495C155.638 56.4995 158.128 56.1295 159.358 56.6495L165.318 59.1795L171.278 59.6695C173.918 60.6895 176.488 62.3695 179.378 61.8295C184.248 60.9195 188.558 58.4095 192.468 55.4895C193.938 51.9695 196.048 49.3595 199.168 47.1295L199.238 39.7895L202.308 35.3395C203.128 34.1495 204.068 32.8195 205.308 32.6995C206.908 32.5395 208.368 33.3595 209.288 34.7195C211.038 37.3095 213.718 39.6795 214.768 42.6095L215.788 54.7695L219.898 66.1195C220.208 66.9795 219.738 69.0195 219.398 69.8995C217.968 73.6095 217.678 77.3196 217.058 81.1396C215.338 84.2296 212.318 86.8795 210.428 89.8795C209.368 91.5595 208.968 94.1695 207.188 95.1595L200.498 98.8896C198.698 100.96 197.268 102.13 194.798 103.39C192.538 104.55 190.308 106.6 188.318 108.19C182.618 112.76 177.028 107.1 171.738 108.66C170.098 109.14 168.248 110.14 166.568 109.84C161.868 109 156.988 107.94 152.988 105.48C150.368 103.86 148.208 102.2 145.358 101.06C141.858 99.6595 136.328 95.4495 135.568 92.5395C134.588 88.8195 132.268 87.2295 129.638 84.4095H129.628ZM208.088 48.4995C207.428 48.3495 206.358 49.1495 205.928 49.8895C204.618 52.1895 205.078 54.2495 207.598 55.8295C210.088 52.3995 210.078 48.9395 208.098 48.4895L208.088 48.4995ZM139.088 61.7395C140.838 61.5795 140.678 59.2795 140.448 58.1995C139.898 55.6295 138.198 54.3395 135.698 54.6695L135.908 58.8995C135.958 59.9495 138.028 61.8395 139.078 61.7395H139.088ZM204.818 72.0595C206.698 70.8695 208.248 69.6695 209.288 68.1395L207.138 63.2695C206.358 61.4995 204.638 60.6295 202.668 60.7195C200.698 60.8095 197.698 64.9695 197.648 65.6295C197.608 66.1495 198.368 67.3795 198.788 67.6895L204.808 72.0695L204.818 72.0595ZM181.718 78.7295C186.848 76.4895 188.688 68.8695 187.598 67.7595C186.298 66.4395 182.998 69.6895 181.168 73.1295L177.738 74.4795C177.648 75.5295 177.988 77.0195 178.578 77.6495C179.168 78.2795 180.958 79.0695 181.728 78.7295H181.718ZM167.428 78.7795C166.198 75.6195 163.548 71.5695 161.758 70.8695C159.968 70.1695 157.388 70.1095 156.168 71.6995C155.048 73.1595 160.548 82.1495 167.428 78.7695V78.7795ZM150.098 83.6595C150.678 83.0795 150.518 80.9095 150.008 80.2995C148.348 78.3195 145.498 79.9095 143.018 74.8995C142.738 74.3295 142.198 72.9895 141.618 73.0595L139.328 73.3095C138.458 73.3995 136.388 75.0895 136.958 75.7895L142.648 82.8095C144.428 84.9995 147.728 86.0095 150.098 83.6695V83.6595ZM192.728 91.3896C196.458 89.4696 199.638 87.1996 202.428 84.0796C200.828 82.5096 197.448 81.2595 196.058 82.3195L190.498 86.5695C189.628 87.2395 187.778 88.5595 188.508 89.8995C189.078 90.9395 191.708 91.9096 192.728 91.3896ZM179.228 95.5295C177.338 92.8595 175.628 91.1196 173.508 89.8896C170.568 89.6896 168.238 89.2296 165.258 88.4496C163.398 91.0396 168.778 95.6095 172.808 96.6195C174.838 97.1295 177.328 96.5495 179.228 95.5295ZM151.438 97.1895C153.148 97.6095 155.468 97.3695 156.968 96.9195C157.398 94.2995 155.478 91.8195 153.008 91.4995C151.888 91.3495 149.778 92.8695 149.608 93.8795C149.738 94.7295 150.758 96.6195 151.438 97.1895Z" fill="#9F9F9F"/>
<path d="M176.541 28.8494C175.051 31.5894 172.071 33.1794 168.981 33.0894C167.841 32.1194 166.231 30.2094 165.461 29.1294L168.821 24.3594L174.511 25.5094C175.311 25.7394 176.271 27.7994 176.551 28.8594L176.541 28.8494Z" fill="#9F9F9F"/>
<path d="M190.406 42.202C188.846 44.182 186.446 45.872 184.126 44.222C182.426 43.012 183.386 40.162 185.086 39.152L186.886 35.832C187.276 35.102 188.886 34.362 189.656 34.522C190.686 34.742 191.576 36.022 191.806 37.222C192.176 39.192 191.706 40.562 190.416 42.202H190.406Z" fill="#9F9F9F"/>
<path d="M157.511 44.5562L155.231 42.7562C153.491 41.3762 152.021 39.4062 152.231 37.1162C152.701 36.3062 154.461 35.1662 155.351 35.2462C159.101 35.9862 160.811 41.8662 160.031 44.3362C159.841 44.9562 158.031 44.9762 157.501 44.5562H157.511Z" fill="#9F9F9F"/>
</svg>
