<svg width="462" height="468" viewBox="0 0 462 468" fill="none" xmlns="http://www.w3.org/2000/svg">
<path d="M315.73 294.329L250.56 311.129C236.37 314.789 228.39 329.179 231.49 343.169L234.03 356.529L125.14 356.399C112.94 356.389 100.78 349.109 95.98 337.789L62.91 259.939L9.14 134.019L0 112.399L136.27 77.1188L229.37 52.9688L431.3 0.428861C431.59 0.358861 432.26 -0.141153 432.3 0.0388467L432.56 1.27884L441.25 74.4289L444.18 99.5089L451.82 164.519L456.4 203.399L461.28 245.539C462.57 256.679 460.31 267.519 452.59 275.919C448.97 279.859 444.54 282.499 439.71 284.959L405.38 302.469L353.53 328.979C353.24 328.979 352.66 328.909 352.7 328.849L347.62 312.459C343.55 299.309 329.61 290.729 315.71 294.319L315.73 294.329ZM370.83 194.629L396.42 187.949L406.56 183.559C420.14 176.199 424.72 161.869 422.86 146.869C422.07 140.499 420.8 134.519 419.18 128.289L409.5 91.0588C407.9 84.9188 405.77 79.2988 402.73 73.7788C399.89 68.6188 396.02 64.2488 391 61.1588C380.19 54.4988 366.22 56.8289 354.25 59.9188L307.13 72.0789L295.37 75.1389L302.38 101.699L309.02 127.559L317.72 161.259L338.78 242.939L343.88 262.739L385.56 251.919L370.83 194.619V194.629ZM265.38 282.899L259.56 241.209L282.37 235.299L296.5 274.829L338.81 263.989L327.68 236.759L286.34 135.159L278.35 115.499L265.13 82.7888L251.52 86.4889L202.3 99.1989L206.01 133.469L209.35 164.479L214.4 210.539L217.83 242.539L223.6 293.599L265.39 282.899H265.38ZM210.87 245.879L200.82 206.849L185.7 148.919C181.94 134.509 173.69 119.269 158.49 115.729C148.3 113.359 137.59 115.839 127.38 118.469L70.91 133.019L75.4 150.829L118.98 320.579L183.7 304.079C190.29 302.399 196.26 299.779 201.68 295.889C217.97 284.579 215.4 263.449 210.88 245.899L210.87 245.879ZM439.03 227.679C439.03 216.569 430.02 207.559 418.91 207.559C407.8 207.559 398.79 216.569 398.79 227.679C398.79 238.789 407.8 247.799 418.91 247.799C430.02 247.799 439.03 238.789 439.03 227.679Z" fill="#9F9F9F"/>
<path d="M439.029 227.683C439.029 238.793 430.019 247.802 418.909 247.802C407.799 247.802 398.789 238.793 398.789 227.683C398.789 216.573 407.799 207.562 418.909 207.562C430.019 207.562 439.029 216.573 439.029 227.683ZM435.009 227.673C435.009 218.773 427.799 211.562 418.899 211.562C409.999 211.562 402.789 218.773 402.789 227.673C402.789 236.573 409.999 243.783 418.899 243.783C427.799 243.783 435.009 236.573 435.009 227.673Z" fill="#272727"/>
<path d="M210.868 245.881C215.388 263.441 217.958 284.571 201.668 295.871C196.258 299.761 190.278 302.381 183.688 304.061L118.968 320.561L75.3884 150.811L70.8984 133.001L127.368 118.451C137.588 115.821 148.298 113.341 158.478 115.711C173.688 119.241 181.928 134.481 185.688 148.901L200.808 206.831L210.858 245.861L210.868 245.881ZM168.528 254.811L161.588 227.671L152.358 191.711L144.658 162.041C144.038 159.641 142.888 157.531 141.658 155.461C139.288 152.911 135.918 151.981 132.498 152.831L121.038 155.701L132.708 200.791L151.678 274.441L164.148 271.061C170.718 269.281 170.218 261.451 168.518 254.801L168.528 254.811Z" fill="#272727"/>
<path d="M168.527 254.812C170.227 261.452 170.727 269.292 164.157 271.072L151.687 274.452L132.717 200.802L121.047 155.712L132.507 152.842C135.927 151.982 139.297 152.922 141.667 155.472C142.887 157.532 144.037 159.652 144.667 162.052L152.367 191.722L161.597 227.682L168.537 254.822L168.527 254.812Z" fill="#9F9F9F"/>
<path d="M265.379 282.899L223.589 293.599L217.819 242.539L214.389 210.539L209.339 164.479L205.999 133.469L202.289 99.1991L251.509 86.4891L265.119 82.7891L278.339 115.499L286.329 135.159L327.669 236.759L338.799 263.989L296.489 274.829L282.359 235.299L259.549 241.209L265.369 282.899H265.379ZM263.879 181.739L247.859 138.259C246.229 133.849 245.169 129.359 242.599 125.329L254.229 209.599L272.499 204.849L263.869 181.739H263.879Z" fill="#272727"/>
<path d="M263.879 181.738L272.509 204.848L254.239 209.598L242.609 125.328C245.179 129.358 246.249 133.848 247.869 138.258L263.889 181.738H263.879Z" fill="#9F9F9F"/>
<path d="M370.827 194.63L385.557 251.93L343.877 262.75L338.777 242.95L317.717 161.27L309.017 127.57L302.377 101.71L295.367 75.1503L307.127 72.0903L354.247 59.9303C366.217 56.8403 380.187 54.5103 390.997 61.1703C396.017 64.2603 399.887 68.6303 402.727 73.7903C405.767 79.3103 407.897 84.9303 409.497 91.0703L419.177 128.3C420.797 134.53 422.057 140.51 422.857 146.88C424.727 161.87 420.147 176.21 406.557 183.57L396.417 187.96L370.827 194.64V194.63ZM379.827 149.2L378.757 142.62L374.667 126.59L367.797 100.7C366.137 96.5703 362.417 93.6703 357.927 94.7703L345.527 97.8003L361.837 161.06L373.177 158C377.257 156.9 379.747 153.57 379.827 149.2Z" fill="#272727"/>
<path d="M379.831 149.196C379.751 153.566 377.261 156.896 373.181 157.996L361.841 161.056L345.531 97.7959L357.931 94.7659C362.421 93.6659 366.141 96.5659 367.801 100.696L374.671 126.586L378.761 142.616L379.831 149.196Z" fill="#9F9F9F"/>
<path d="M435.009 227.673C435.009 236.573 427.799 243.783 418.899 243.783C409.999 243.783 402.789 236.573 402.789 227.673C402.789 218.773 409.999 211.562 418.899 211.562C427.799 211.562 435.009 218.773 435.009 227.673ZM425.989 237.493L430.879 236.133L429.349 234.353L423.029 228.033C426.349 226.833 427.819 223.393 426.509 220.253C425.499 216.933 422.399 215.273 418.979 216.143L408.189 218.883L413.489 240.473L417.969 239.453L415.729 230.443C417.519 229.683 419.119 229.753 420.299 231.083L425.989 237.503V237.493Z" fill="#9F9F9F"/>
<path d="M425.988 237.487L420.298 231.067C419.128 229.737 417.518 229.667 415.728 230.427L417.967 239.437L413.488 240.457L408.188 218.867L418.978 216.127C422.398 215.257 425.498 216.927 426.508 220.237C427.818 223.377 426.337 226.817 423.027 228.017L429.348 234.337L430.878 236.117L425.988 237.477V237.487ZM420.228 225.697C422.208 225.197 422.798 223.397 422.438 222.007C421.988 220.277 420.458 219.497 418.608 219.967L413.358 221.297L414.948 227.037L420.228 225.697Z" fill="#272727"/>
<path d="M420.229 225.701L414.949 227.041L413.359 221.301L418.609 219.971C420.459 219.501 421.989 220.271 422.439 222.011C422.799 223.401 422.209 225.191 420.229 225.701Z" fill="#9F9F9F"/>
<path d="M373.737 441.29L271.127 467.98L245.697 341.03C244.417 334.65 246.517 326.96 253.627 325.13L319.547 308.15C325.377 306.65 331.277 310.61 333.437 315.66L336.327 324.65L373.737 441.29ZM318.217 356.06C318.217 344.21 308.617 334.61 296.767 334.61C284.917 334.61 275.317 344.21 275.317 356.06C275.317 367.91 284.917 377.51 296.767 377.51C308.617 377.51 318.217 367.91 318.217 356.06ZM333.517 414.73C333.517 402.87 323.897 393.25 312.037 393.25C300.177 393.25 290.557 402.87 290.557 414.73C290.557 426.59 300.177 436.21 312.037 436.21C323.897 436.21 333.517 426.59 333.517 414.73Z" fill="#9F9F9F"/>
<path d="M333.523 414.73C333.523 426.59 323.903 436.21 312.043 436.21C300.183 436.21 290.562 426.59 290.562 414.73C290.562 402.87 300.183 393.25 312.043 393.25C323.903 393.25 333.523 402.87 333.523 414.73ZM327.923 414.72C327.923 405.94 320.803 398.81 312.013 398.81C303.223 398.81 296.103 405.93 296.103 414.72C296.103 423.51 303.223 430.63 312.013 430.63C320.803 430.63 327.923 423.51 327.923 414.72Z" fill="#272727"/>
<path d="M318.22 356.059C318.22 367.909 308.62 377.509 296.77 377.509C284.92 377.509 275.32 367.909 275.32 356.059C275.32 344.209 284.92 334.609 296.77 334.609C308.62 334.609 318.22 344.209 318.22 356.059ZM312.63 356.049C312.63 347.289 305.52 340.179 296.76 340.179C288 340.179 280.89 347.289 280.89 356.049C280.89 364.809 288 371.919 296.76 371.919C305.52 371.919 312.63 364.809 312.63 356.049Z" fill="#272727"/>
<path d="M312.019 430.633C320.806 430.633 327.929 423.509 327.929 414.723C327.929 405.936 320.806 398.812 312.019 398.812C303.233 398.812 296.109 405.936 296.109 414.723C296.109 423.509 303.233 430.633 312.019 430.633Z" fill="#9F9F9F"/>
<path d="M296.761 371.92C305.525 371.92 312.631 364.814 312.631 356.05C312.631 347.285 305.525 340.18 296.761 340.18C287.996 340.18 280.891 347.285 280.891 356.05C280.891 364.814 287.996 371.92 296.761 371.92Z" fill="#9F9F9F"/>
</svg>
