<svg width="687" height="129" viewBox="0 0 687 129" fill="none" xmlns="http://www.w3.org/2000/svg">
<path d="M607.9 3.59752C569.4 3.59752 563.2 37.2975 563.2 37.2975V128.298H600.4V49.2975C600.4 49.2975 600.9 42.1975 608.6 42.1975C616.3 42.1975 616.9 49.2975 616.9 49.2975V128.798H652.1V38.2975C650.4 25.8975 640.2 3.59752 607.9 3.59752ZM509.7 86.7975C504.9 90.0975 500.6 92.8975 491.9 92.8975C483.2 92.8975 475.7 88.8975 470.4 82.5975C465.1 76.1975 459.8 62.5975 468.9 49.2975C475.8 39.7975 484.3 37.2975 492.3 37.0975C492.3 37.0975 509.7 36.4975 517.7 53.1975C522.5 63.8975 521.5 76.9975 509.7 86.7975ZM492.7 1.49752C474.4 2.09752 455 7.79752 439.4 29.2975C418.7 59.4975 430.6 90.6975 442.7 105.098C454.8 119.598 472 128.598 491.7 128.598C511.4 128.598 521.1 122.298 532.2 114.698C559 92.4975 561.3 62.5975 550.7 38.1975C532.4 0.197517 492.7 1.49752 492.7 1.49752ZM384.5 2.29752C366.6 2.29752 356.5 14.6975 355.4 15.9975C352.3 13.1975 344.6 2.49752 325.9 1.79752C294.6 3.69752 288.9 27.2975 288.9 27.2975V128.498H328.4V43.1975C328.4 43.1975 328.6 40.3975 332.4 40.3975C335.7 40.3975 336.1 42.7975 336.1 42.7975V128.598H374.3V43.5975C374.3 43.5975 374.2 40.2975 378.3 40.2975C382.4 40.2975 382.3 43.2975 382.3 43.2975V128.598H422.2V29.5975C417.3 8.19752 395.6 2.29752 384.5 2.29752ZM234.7 2.89752C189.1 4.09752 187.4 33.6975 187.4 33.6975V128.598H226.6V115.098H236.7V66.4975H226.2V44.9975C226.2 44.9975 226.3 39.4975 233.4 39.4975C240.5 39.4975 241.1 44.7975 241.1 44.7975V128.698H279.6V35.4975C278.3 20.9975 265.5 2.89752 234.7 2.89752ZM163.7 76.9975C177.5 64.6975 179 53.1975 179 46.6975C179 5.79752 138.4 3.29752 138.4 3.29752H82.1V128.498H119.7V39.3975H130.2C130.2 39.3975 137.2 39.2975 137.2 47.8975C137.2 56.4975 130.5 56.6975 130.5 56.6975H125.3V88.5975L142.1 128.498H182.4L163.9 78.5975C163.7 78.5975 163.6 78.1975 163.7 76.9975ZM0 31.0975V127.998H39.4V84.7975H70.3V52.4975H39.3V44.5975C39.3 39.8975 45 40.4975 45 40.4975H70.6V3.49752H31.7C2 5.69752 0 31.0975 0 31.0975Z" fill="#9F9F9F"/>
<path d="M684.802 13.6C684.802 20.3 679.402 25.7 672.702 25.7C666.002 25.7 660.602 20.3 660.602 13.6C660.602 6.9 666.002 1.5 672.702 1.5C679.302 1.5 684.802 6.9 684.802 13.6Z" stroke="#9F9F9F" stroke-width="3" stroke-miterlimit="10"/>
<path d="M666.898 20.9953V6.19531H673.198C674.498 6.19531 675.498 6.29531 676.098 6.59531C676.698 6.89531 677.198 7.29531 677.598 7.99531C677.998 8.59531 678.198 9.39531 678.198 10.1953C678.198 11.2953 677.898 12.1953 677.198 12.8953C676.498 13.5953 675.498 13.9953 674.198 14.1953C674.698 14.4953 675.098 14.6953 675.398 14.9953C675.998 15.5953 676.498 16.1953 676.898 16.8953L679.398 20.8953H676.998L675.098 17.7953C674.398 16.5953 673.798 15.7953 673.398 15.3953C672.998 14.9953 672.698 14.6953 672.298 14.5953C671.898 14.4953 671.498 14.3953 670.798 14.3953H668.598V20.9953H666.898ZM668.798 12.6953H672.798C673.698 12.6953 674.398 12.5953 674.798 12.3953C675.298 12.1953 675.598 11.8953 675.898 11.4953C676.198 11.0953 676.298 10.6953 676.298 10.0953C676.298 9.39531 675.998 8.79531 675.498 8.29531C674.998 7.89531 674.198 7.69531 673.198 7.69531H668.698V12.6953H668.798Z" fill="#9F9F9F"/>
<path d="M666.898 20.9953V6.19531H673.198C674.498 6.19531 675.498 6.29531 676.098 6.59531C676.698 6.89531 677.198 7.29531 677.598 7.99531C677.998 8.59531 678.198 9.39531 678.198 10.1953C678.198 11.2953 677.898 12.1953 677.198 12.8953C676.498 13.5953 675.498 13.9953 674.198 14.1953C674.698 14.4953 675.098 14.6953 675.398 14.9953C675.998 15.5953 676.498 16.1953 676.898 16.8953L679.398 20.8953H676.998L675.098 17.7953C674.398 16.5953 673.798 15.7953 673.398 15.3953C672.998 14.9953 672.698 14.6953 672.298 14.5953C671.898 14.4953 671.498 14.3953 670.798 14.3953H668.598V20.9953H666.898ZM668.798 12.6953H672.798C673.698 12.6953 674.398 12.5953 674.798 12.3953C675.298 12.1953 675.598 11.8953 675.898 11.4953C676.198 11.0953 676.298 10.6953 676.298 10.0953C676.298 9.39531 675.998 8.79531 675.498 8.29531C674.998 7.89531 674.198 7.69531 673.198 7.69531H668.698V12.6953H668.798Z" stroke="#9F9F9F" stroke-miterlimit="10"/>
</svg>
