<svg width="236" height="223" viewBox="0 0 236 223" fill="none" xmlns="http://www.w3.org/2000/svg">
<path d="M235.459 222.206H0V0H235.459V222.206ZM2.63812 219.498H232.82V2.70712H2.63812V219.498Z" fill="#9F9F9F"/>
<path d="M120.526 38.5078L145.727 94.8254H141.304L132.68 75.4937H106.023L97.4314 94.8254H93.0078L118.207 38.5078H120.522H120.526ZM131.077 71.8901L119.333 45.5537L107.627 71.8901H131.077Z" fill="#9F9F9F"/>
<path d="M146.249 95.1635H141.099L141.011 94.9658L132.478 75.8318H106.242L97.6506 95.1635H92.5L92.7155 94.685L118.002 38.1719H120.741L120.828 38.3697L146.247 95.166L146.249 95.1635ZM141.521 94.487H145.218L120.319 38.8459H118.426L93.5297 94.487H97.2266L105.818 75.1555H132.897L132.985 75.3533L141.521 94.487ZM131.594 72.2285H107.12L107.333 71.7497L119.337 44.7393L119.635 45.4133L131.594 72.2285ZM108.142 71.5519H130.566L119.334 46.3684L108.142 71.5519Z" fill="#9F9F9F"/>
<path d="M208.565 38.9062L187.38 64.8031V94.8236H183.165V64.8031L161.977 38.9062H167.069L185.298 61.0592L203.421 38.9062H208.565Z" fill="#9F9F9F"/>
<path d="M187.723 95.1695H182.848V64.9351L161.281 38.5781H167.235L167.336 38.6979L185.312 60.5424L203.28 38.5781H209.288L187.723 64.9351V95.1695ZM183.51 94.493H187.066V64.6889L187.142 64.5945L207.872 39.2547H203.59L185.312 61.5939L185.058 61.2856L166.93 39.2547H162.697L183.505 64.6889V94.493H183.51Z" fill="#9F9F9F"/>
<path d="M73.1951 38.9062L47.0919 66.8419L75.694 94.835H70.3281L41.7776 66.8901V94.835H37.5625V38.9062H41.7776V66.7314L67.9366 38.9062H73.1951Z" fill="#9F9F9F"/>
<path d="M76.5111 95.1857H70.1895L70.0953 95.0913L42.1014 67.6917V95.1832H37.2266V38.5781H42.1014V65.9039L67.7892 38.5781H73.9629L47.5525 66.8428L76.5111 95.1832V95.1857ZM70.4544 94.5091H74.8648L46.6194 66.8656L72.4172 39.2569H68.0698L42.1597 66.8152L70.4544 94.5091ZM37.8863 94.5091H41.4419V39.2569H37.8863V94.5091Z" fill="#9F9F9F"/>
<path d="M65.1121 126.414L90.3134 182.732H85.8895L77.2663 163.4H50.6092L42.0174 182.732H37.5938L62.7925 126.414H65.1076H65.1121ZM75.66 159.796L63.9164 133.458L52.211 159.796H75.66Z" fill="#9F9F9F"/>
<path d="M90.833 183.08H85.6824L85.595 182.882L77.0616 163.748H50.8284L42.2366 183.08H37.0859L62.5877 126.086H65.3268L65.4165 126.284L90.833 183.08ZM86.1065 182.404H89.8035L64.905 126.762H63.0117L38.1157 182.404H41.8125L50.4044 163.072H77.4855L77.5751 163.27L86.1065 182.404ZM76.1799 160.147H51.7034L63.9226 132.658L76.1799 160.147ZM52.7284 159.471H75.1524L63.9226 134.285L52.7284 159.471Z" fill="#9F9F9F"/>
<path d="M125.112 126.82V179.136H152.074V182.735H120.898V126.82H125.112Z" fill="#9F9F9F"/>
<path d="M152.397 183.076H120.562V126.484H125.437V178.8H152.399L152.397 183.076ZM121.222 182.399H151.738V179.477H124.775V127.161H121.22L121.222 182.399Z" fill="#9F9F9F"/>
<path d="M187.393 126.82V182.735H183.18V126.82H187.393Z" fill="#9F9F9F"/>
<path d="M187.716 183.076H182.844V126.484H187.716V183.076ZM183.506 182.399H187.059V127.161H183.506V182.399Z" fill="#9F9F9F"/>
</svg>
