<svg width="355" height="294" viewBox="0 0 355 294" fill="none" xmlns="http://www.w3.org/2000/svg">
<g clip-path="url(#clip0_144_765)">
<mask id="mask0_144_765" style="mask-type:luminance" maskUnits="userSpaceOnUse" x="0" y="0" width="355" height="294">
<path d="M354.217 0H0V294H354.217V0Z" fill="white"/>
</mask>
<g mask="url(#mask0_144_765)">
<path d="M354.217 1.42115C354.217 0.053416 352.846 -0.814916 351.477 1.1467C330.274 31.5473 258.474 38.8314 184.752 38.8314C125.598 38.8314 82.0917 48.9184 48.928 68.5392C15.764 88.1598 0 112.829 0 155.476V292.632C0 293.999 1.21678 294.75 2.73549 292.901C27.0214 263.379 101.867 241.873 178.911 241.873C236.217 241.873 276.059 235.33 303.599 218.905C339.759 197.34 354.217 159.786 354.217 108.091V1.42115Z" fill="#9F9F9F"/>
<path d="M324.074 176.882V175.366H325.376C325.9 175.366 326.137 175.735 326.137 176.108C326.137 176.306 326.067 176.504 325.935 176.639C325.796 176.797 325.585 176.882 325.326 176.882H324.074ZM325.165 177.363L325.147 177.342H325.174L325.165 177.363ZM325.787 177.558C326.534 177.374 326.922 176.734 326.918 176.099C326.913 175.371 326.385 174.633 325.376 174.633H323.525C323.408 174.633 323.312 174.727 323.312 174.84V179.06C323.312 179.177 323.408 179.267 323.525 179.267H323.862C323.98 179.267 324.071 179.173 324.071 179.06V177.62H324.868L326.247 179.194C326.286 179.24 326.346 179.267 326.408 179.267H326.832C326.945 179.267 327.039 179.173 327.039 179.06V179.019C327.039 178.966 327.018 178.916 326.986 178.881L325.778 177.561L325.787 177.558Z" fill="#272727"/>
<path d="M324.993 181.018C322.633 181.018 321.042 179.399 321.042 176.992C321.042 174.585 322.633 172.975 324.993 172.975C327.356 172.975 328.946 174.585 328.946 176.992C328.946 179.399 327.356 181.018 324.993 181.018ZM324.993 172.07C321.658 172.07 320.141 174.621 320.141 176.992C320.141 179.364 321.655 181.914 324.993 181.914C328.334 181.914 329.869 179.44 329.869 176.992C329.869 174.545 328.197 172.07 324.993 172.07Z" fill="#272727"/>
<path d="M212.507 156.458C207.64 168.178 202.318 173.46 198.081 173.559C193.769 173.667 192.325 168.84 196.716 157.317C200.474 147.437 206.949 139.636 211.813 139.514C215.615 139.42 218.013 143.208 212.507 156.458ZM327.654 153.822C326.464 152.967 324.946 153.515 323.256 155.842C316.085 165.726 310.272 169.415 305.955 169.415C302.579 169.415 300.983 166.73 302.538 161.965C303.617 158.654 305.932 154.609 308.091 149.079C310.196 143.703 309.236 139.523 305.716 137.008C303.052 135.105 298.213 133.8 295.302 132.275C297.609 126.971 294.721 121.513 288.704 121.513C283.07 121.513 279.339 126.111 279.339 130.943C279.344 134.628 281.439 137.562 285.499 139.136C275.297 159.544 264.823 169.636 258.171 169.636C254.471 169.636 253.571 166.307 255.319 161.51C256.851 157.326 261.724 149.151 262.885 145.111C264.008 141.183 263.291 137.602 259.573 135.33C257.482 134.048 254.471 133.126 252.542 132.163C254.278 127.538 252.402 121.288 245.828 121.288C240.384 121.288 236.454 125.688 236.544 130.907C236.617 134.786 238.825 137.535 242.525 138.83C240.118 141.984 236.454 143.487 233.597 143.68C231.971 143.793 230.664 143.64 229.704 143.14C228.771 142.655 227.995 141.935 226.923 139.766C224.228 134.331 220.172 131.434 213.313 131.434C208.378 131.434 203.29 133.036 197.842 136.752C193.763 139.532 190.221 143.019 185.999 148.575C181.835 154.064 179.063 157.61 175.936 160.822C171.199 165.686 167.058 168.489 163.664 169.334C161.753 169.811 160.194 169.487 159.419 168.331C158.644 167.166 158.806 165.344 159.689 163.09C161.753 157.853 168.144 148.418 169.757 142.371C171.321 136.518 168.91 131.668 162.429 131.668C155.949 131.668 148.693 134.961 141.433 141.35C142.686 136.032 140.843 132.527 137.274 131.668C130.753 130.089 122.848 134.439 115.439 142.601C110.031 148.562 103.555 156.696 98.0034 161.78C92.3701 166.927 88.3051 168.174 84.2672 167.71C75.1054 166.653 72.0815 150.38 63.5146 144.913C74.47 144.913 87.0388 141.98 95.9934 136.752C106.408 130.664 109.062 126.98 118.283 117.968C126.26 110.171 133.213 105.69 142.244 104.187C144.367 103.836 145.385 103.278 145.485 101.897C145.57 100.736 144.773 99.8004 142.947 99.5709C134.259 98.4866 123.078 100.669 113.416 106.342C102.925 112.506 96.1962 119.916 84.736 128.892C80.4277 132.262 76.8675 134.669 72.005 136.594C68.1923 138.106 63.5957 139.06 60.0445 138.983C63.7894 131.587 67.9129 123.263 71.081 117.144C81.0316 117.203 87.1065 110.589 87.1065 105.127C87.1065 100.862 83.4426 97.9062 78.4944 97.9062C72.2077 97.9062 66.917 101.083 62.7484 106.576C40.166 104.524 24.1046 113.37 18.5389 128.581C17.9215 130.269 17.624 131.366 17.6781 132.181C17.7278 132.869 18.0296 133.373 18.5885 133.647C19.1292 133.908 19.7737 133.962 20.4181 133.697C21.085 133.422 21.5448 132.851 22.2749 131.735C29.2556 120.987 39.8731 115.678 56.9619 117.032C55.3396 119.282 50.8104 127.465 45.4656 137.755C41.1079 136.869 36.5967 137.535 35.3575 141.642C34.4155 144.778 36.3624 147.995 40.22 148.072C33.068 161.065 26.529 173.824 24.722 177.356C23.0093 180.691 23.807 182.742 26.8219 182.558C30.2109 182.359 36.2092 180.574 38.9041 178.881C41.0583 177.528 41.856 176.443 43.609 172.794C46.9709 165.816 51.1844 157.326 54.9475 149.457C58.4176 151.923 59.657 161.546 62.2256 168.241C65.9661 177.995 71.3649 181.883 78.7918 181.883C86.7278 181.883 92.3115 179.008 99.495 170.54C111.41 156.485 117.715 147.01 123.619 142.677C125.421 141.354 126.525 141.026 127.206 141.345C128.31 141.867 127.913 143.307 127.035 145.161C122.645 154.375 111.839 174.216 110.604 176.933C109.103 180.236 109.829 182.085 112.519 181.892C114.655 181.739 115.516 181.541 118.242 180.74C120.883 179.961 123.934 178.921 125.57 176.317C127.017 174.009 127.463 172.614 128.346 170.716C130.55 165.996 131.483 163.742 135.327 157.556C142.168 146.528 150.392 141.062 153.943 141.984C155.007 142.263 155.489 143.316 155.061 145.026C154.8 146.051 154.2 147.163 153.245 148.913C149 156.696 143.835 163.647 142.596 170.635C141.42 177.266 145.106 181.892 151.51 181.892C160.262 181.892 170.271 175.066 180.785 163.184C178.644 174.067 184.499 181.833 195.756 181.833C202.826 181.833 209.852 179.178 216.373 173.001C222.471 167.229 226.846 158.964 228.123 150.128C233.039 151.567 241.154 148.202 246.864 141.287C249.569 142.906 249.857 144.477 248.775 147.352C247.328 151.203 245.883 153.547 242.931 158.905C239.969 164.277 238.627 168.534 239.05 172.884C239.555 178.05 243.318 181.892 249.528 181.892C263.413 181.892 276.369 169.312 290.443 141.377C294.969 143.213 295.815 145.413 295.126 148.742C294.432 152.071 292.751 154.834 290.263 159.661C287.812 164.412 286.581 167.404 286.581 171.562C286.581 177.455 290.344 181.915 297.671 181.915C307.306 181.915 318.469 172.902 326.6 159.918C328.672 156.602 328.92 154.744 327.645 153.826" fill="#272727"/>
<path d="M164.419 102.341C164.05 102.228 163.432 102.134 162.594 102.062C161.711 101.985 161.359 101.864 161.224 101.77C161.048 101.648 160.963 101.495 160.963 101.275C160.963 101.054 161.03 100.874 161.161 100.748C161.368 100.541 161.747 100.442 162.301 100.442H162.387C163.356 100.465 164.203 100.775 164.915 101.364L165.091 101.513L165.956 99.8258L165.825 99.7358C164.838 99.043 163.658 98.6875 162.31 98.6875C161.386 98.6875 160.616 98.944 160.03 99.4524C159.435 99.9607 159.129 100.649 159.129 101.495C159.129 102.12 159.286 102.62 159.593 102.984C160.061 103.538 160.891 103.866 162.053 103.952C163.153 104.024 163.351 104.046 163.396 104.06C164.009 104.195 164.081 104.505 164.081 104.721C164.081 104.991 163.955 105.211 163.689 105.382C163.374 105.598 162.892 105.693 162.252 105.684C161.355 105.661 160.548 105.328 159.854 104.685L159.669 104.514L158.867 106.26L158.975 106.35C159.809 107.038 160.94 107.389 162.346 107.389C163.5 107.389 164.41 107.132 165.055 106.619C165.681 106.129 166.001 105.445 166.001 104.586C166.001 103.929 165.816 103.394 165.451 102.998C165.158 102.683 164.816 102.462 164.428 102.345" fill="#272727"/>
<path d="M171.68 98.7734H169.773V107.331H171.68V98.7734Z" fill="#272727"/>
<path d="M181.383 103.803L177.558 98.8409L177.503 98.7734H175.805V107.331H177.567V102.08L181.587 107.331H183.142V98.7734H181.383V103.803Z" fill="#272727"/>
<path d="M193 104.505C192.296 105.216 191.448 105.571 190.476 105.571C190.106 105.571 189.767 105.513 189.475 105.4C188.997 105.22 188.627 104.905 188.379 104.464C188.136 104.046 188.014 103.56 188.014 103.025C188.014 102.489 188.141 101.981 188.398 101.544C188.65 101.117 189.002 100.82 189.479 100.631C189.767 100.514 190.097 100.456 190.456 100.456C191.354 100.456 192.128 100.735 192.782 101.31L192.959 101.486L193.779 99.9203L193.85 99.7539L193.688 99.6729C192.711 99.0205 191.602 98.6875 190.398 98.6875C189.119 98.6875 188.087 99.1195 187.325 99.9653C186.586 100.766 186.211 101.81 186.211 103.07C186.211 104.438 186.64 105.531 187.474 106.309C188.235 107.025 189.218 107.389 190.398 107.389C191.06 107.389 191.723 107.263 192.364 107.006C193.003 106.75 193.531 106.404 193.936 105.958L194.027 105.864L193.228 104.271L193.003 104.5L193 104.505Z" fill="#272727"/>
<path d="M198.991 103.759H202.101V102.031H198.991V100.524H203.629L203.65 98.7734H197.094V107.331H203.728V105.482H198.991V103.759Z" fill="#272727"/>
<path d="M214.663 98.9624C214.672 99.2908 214.623 99.5247 214.515 99.6507C214.469 99.7091 214.337 99.8127 213.946 99.9386L213.82 99.9792V101.671L214.022 101.648C214.217 101.626 214.387 101.594 214.541 101.549V107.331H216.231V98.7734H214.658V98.9578L214.663 98.9624Z" fill="#272727"/>
<path d="M224.64 105.512C224.293 105.674 223.893 105.764 223.45 105.764C223.009 105.764 222.604 105.679 222.262 105.512C221.851 105.314 221.647 105.049 221.647 104.693C221.647 104.338 221.851 104.091 222.265 103.892C222.604 103.726 223.004 103.641 223.45 103.641C223.896 103.641 224.302 103.726 224.64 103.892C225.051 104.091 225.258 104.351 225.258 104.693C225.258 105.035 225.051 105.314 224.64 105.512ZM223.45 100.302C224.194 100.302 224.695 100.469 224.929 100.802L224.938 100.811C224.993 100.878 225.023 100.982 225.023 101.117C225.023 101.319 225.023 101.935 223.45 101.935C221.877 101.935 221.883 101.319 221.883 101.117C221.883 100.914 221.883 100.298 223.45 100.298M226.14 102.799C226.587 102.439 226.808 101.917 226.808 101.238C226.808 100.365 226.434 99.6724 225.694 99.1954C225.081 98.7996 224.329 98.6016 223.455 98.6016C222.58 98.6016 221.815 98.804 221.215 99.1954C220.476 99.6768 220.103 100.365 220.103 101.238C220.103 101.576 220.174 101.9 220.319 102.201C220.436 102.462 220.576 102.655 220.756 102.795C220.165 103.236 219.867 103.87 219.867 104.693C219.867 105.161 219.966 105.575 220.156 105.935C220.678 106.934 221.787 107.442 223.459 107.442C223.955 107.442 224.415 107.397 224.83 107.312C225.501 107.159 226.041 106.857 226.443 106.412C226.843 105.967 227.051 105.386 227.051 104.698C227.051 104.171 226.902 103.694 226.61 103.276C226.456 103.074 226.303 102.921 226.149 102.804" fill="#272727"/>
<path d="M244.004 105.512C243.657 105.674 243.26 105.76 242.817 105.76C242.376 105.76 241.965 105.679 241.629 105.512C241.213 105.314 241.016 105.049 241.016 104.693C241.016 104.338 241.213 104.086 241.629 103.888C241.965 103.726 242.362 103.641 242.817 103.641C243.272 103.641 243.666 103.722 244.004 103.888C244.418 104.086 244.62 104.347 244.62 104.693C244.62 105.04 244.418 105.31 244.004 105.512ZM242.823 100.302C243.566 100.302 244.066 100.473 244.296 100.802V100.811C244.36 100.883 244.386 100.986 244.386 101.117C244.386 101.319 244.386 101.935 242.817 101.935C241.25 101.935 241.25 101.319 241.25 101.117C241.25 100.914 241.25 100.298 242.817 100.298M245.968 103.267C245.819 103.065 245.665 102.912 245.508 102.795C245.954 102.439 246.181 101.913 246.181 101.234C246.181 100.361 245.802 99.6679 245.061 99.191C244.454 98.795 243.701 98.6016 242.826 98.6016C241.953 98.6016 241.186 98.7996 240.582 99.191C239.844 99.6724 239.47 100.361 239.47 101.234C239.47 101.571 239.541 101.9 239.686 102.201C239.798 102.457 239.943 102.651 240.118 102.795C239.528 103.236 239.234 103.875 239.234 104.693C239.234 105.161 239.33 105.58 239.52 105.935C240.042 106.938 241.151 107.442 242.826 107.442C243.313 107.442 243.777 107.402 244.197 107.316C244.868 107.159 245.405 106.857 245.805 106.412C246.211 105.967 246.418 105.386 246.418 104.693C246.418 104.167 246.269 103.69 245.972 103.272" fill="#272727"/>
<path d="M236.291 101.067C236.291 100.266 235.97 99.6318 235.335 99.1819C234.786 98.795 234.109 98.6016 233.324 98.6016C232.798 98.6016 232.338 98.6644 231.95 98.7815C231.468 98.9434 231.072 99.1324 230.771 99.3484C230.514 99.5147 230.237 99.7533 229.851 100.176L231.019 101.548C231.532 100.793 232.338 100.307 233.208 100.307C234.293 100.307 234.415 100.779 234.415 101.135C234.415 101.49 234.276 101.589 234.182 101.638C233.916 101.751 233.564 101.809 233.146 101.809C232.889 101.809 232.551 101.809 232.172 101.796V103.541C232.572 103.533 232.933 103.528 233.225 103.528C234.947 103.528 234.947 104.297 234.947 104.545C234.947 105.049 234.789 105.719 233.415 105.719C232.834 105.719 232.326 105.625 231.892 105.44C231.495 105.265 231.054 104.959 230.581 104.536L230.409 104.383L229.508 105.998L229.621 106.097C230.64 106.961 231.81 107.406 233.096 107.429C233.149 107.429 233.195 107.429 233.245 107.429C234.196 107.429 234.975 107.226 235.579 106.835C236.341 106.34 236.729 105.589 236.729 104.599C236.729 103.685 236.403 103.011 235.763 102.588C236.116 102.232 236.291 101.719 236.291 101.053" fill="#272727"/>
</g>
</g>
<defs>
<clipPath id="clip0_144_765">
<rect width="354.217" height="294" fill="white"/>
</clipPath>
</defs>
</svg>
