<svg width="534" height="134" viewBox="0 0 534 134" fill="none" xmlns="http://www.w3.org/2000/svg">
<path d="M174.618 99.4219L174.438 73.8719L156.858 98.7819L139.177 73.8319L138.927 99.4019L122.188 99.4419L122.218 35.4319L129.458 35.4419L156.848 73.1219L184.068 35.4619L191.358 35.4219V99.4019L174.618 99.4219Z" fill="#9F9F9F"/>
<path d="M115.793 67.4706C115.793 86.5706 100.313 102.051 81.2128 102.051C62.1128 102.051 46.6328 86.5706 46.6328 67.4706C46.6328 48.3706 62.1128 32.8906 81.2128 32.8906C100.313 32.8906 115.793 48.3706 115.793 67.4706ZM99.5028 67.4606C99.5028 57.3906 91.3328 49.2206 81.2628 49.2206C71.1928 49.2206 63.0228 57.3906 63.0228 67.4606C63.0228 77.5306 71.1928 85.7006 81.2628 85.7006C91.3328 85.7006 99.5028 77.5306 99.5028 67.4606Z" fill="#9F9F9F"/>
<path d="M404.221 67.4931C404.221 86.5631 388.761 102.033 369.681 102.033C350.601 102.033 335.141 86.5731 335.141 67.4931C335.141 48.4131 350.601 32.9531 369.681 32.9531C388.761 32.9531 404.221 48.4131 404.221 67.4931ZM387.891 67.4531C387.891 57.3931 379.741 49.2431 369.681 49.2431C359.621 49.2431 351.471 57.3931 351.471 67.4531C351.471 77.5131 359.621 85.6631 369.681 85.6631C379.741 85.6631 387.891 77.5131 387.891 67.4531Z" fill="#9F9F9F"/>
<path d="M266.749 67.4641C266.749 86.5441 251.278 102.014 232.198 102.014C213.118 102.014 197.648 86.5441 197.648 67.4641C197.648 48.3841 213.118 32.9141 232.198 32.9141C251.278 32.9141 266.749 48.3841 266.749 67.4641ZM250.418 67.4441C250.418 57.3741 242.248 49.2041 232.178 49.2041C222.108 49.2041 213.938 57.3741 213.938 67.4441C213.938 77.5141 222.108 85.6841 232.178 85.6841C242.248 85.6841 250.418 77.5141 250.418 67.4441Z" fill="#9F9F9F"/>
<path d="M325.947 51.7406C332.977 66.8506 329.447 87.6306 313.897 95.4406C308.247 98.1306 302.207 99.4906 295.827 99.5006L273.297 99.5406V35.3906L297.827 35.5106C303.247 35.5406 308.227 37.1706 313.187 38.9806C318.667 41.9406 323.277 45.9806 325.947 51.7306V51.7406ZM312.687 68.5406C313.297 59.7706 307.727 52.7306 299.257 51.3706L289.867 50.9506V83.8206C293.387 83.8706 296.737 83.8007 300.127 83.1707C307.257 81.8407 312.167 75.9606 312.687 68.5506V68.5406Z" fill="#9F9F9F"/>
<path d="M31.24 66.6584L53.3099 99.4284L32.98 99.4384L16.7799 74.8684L16.5699 99.4185L0 99.4084V35.4184L16.5599 35.3984L16.72 59.6084L31.6699 35.4084L51.0399 35.3984L31.24 66.6584Z" fill="#9F9F9F"/>
<path d="M436.878 121.19L430.148 128.231C425.878 132.701 419.908 134.601 414.018 132.481C408.668 130.561 404.408 125.531 404.088 119.391C403.838 114.541 405.438 110.691 408.728 107.291L420.738 94.8605L431.248 83.8505L445.268 69.4105L447.718 66.6505L439.748 58.3705L431.728 49.8605L417.278 34.8905L408.248 25.4005C402.808 19.6905 402.658 10.5805 407.878 4.90052C413.098 -0.779477 421.928 -1.85949 428.328 3.45051L436.218 11.3905L444.248 19.8905L456.218 32.3805L467.708 44.3605L478.938 56.1105C484.328 61.7505 484.528 71.1805 479.218 76.8505L472.698 83.8305L461.218 95.8105L450.218 107.321L436.888 121.171L436.878 121.19Z" fill="#9F9F9F"/>
<path d="M504.331 50.7318C498.651 56.4318 489.52 54.2718 484.63 49.1518C479.42 43.6918 478.981 35.1118 484.001 29.1318L494.68 17.9018L506.36 5.67183C512.47 -0.71817 521.6 -2.11816 528.13 3.71184C534.66 9.54184 534.85 19.4018 528.67 25.9318L521.61 33.3918L504.321 50.7218L504.331 50.7318Z" fill="#9F9F9F"/>
<path d="M529.548 108.669C535.288 114.789 533.908 124.329 528.148 129.519C521.948 135.099 512.828 134.539 506.988 128.469L498.658 119.809L485.648 106.389C478.988 99.5286 478.768 89.1786 486.348 82.9186C491.788 78.4186 499.778 78.5486 505.238 83.3286L512.678 90.8386L522.658 101.319L529.558 108.659L529.548 108.669Z" fill="#9F9F9F"/>
</svg>
