<svg width="314" height="313" viewBox="0 0 314 313" fill="none" xmlns="http://www.w3.org/2000/svg">
<path d="M0 158.711V154.133L0.322589 146.821C4.92485 68.9111 67.1537 5.88961 145.039 0.341084L147.844 0.104519C153.93 0.0676514 159.807 -0.153552 165.841 0.18747C202.672 2.27047 237.413 17.3953 264.154 42.677C293.509 70.4258 310.809 108.482 312.975 148.892L313.16 152.317V160.523L312.978 163.958C311.246 202.967 294.781 239.819 267.186 267.343C239.911 294.551 203.572 310.816 165.027 312.822L161.592 313H151.546L148.108 312.819C68.8957 308.653 5.10304 245.318 0.325661 166.321L0 158.711ZM82.9913 131.257L89.6243 120.181L77.8145 113.665L71.0156 124.034L82.9913 131.257ZM109.155 156.486L147.807 151.654L171.467 149.187C182.345 148.053 192.972 147.921 203.851 148.081C207.12 148.127 210.131 148.612 213.259 149.46C214.964 149.921 216.635 150.154 218.426 150.176C225.17 149.779 227.244 145.008 229.726 139.22C232.374 146.532 240.866 149.54 248.187 149.841C255.118 150.127 258.264 144.182 259.023 137.623C259.761 131.241 258.516 124.83 254.774 119.68C252.608 116.7 249.622 114.851 246.172 114.734C242.59 114.611 239.505 116.335 237.143 119.189C233.935 123.066 231.48 127.376 228.829 131.715C227.198 134.378 224.488 136.099 221.806 137.579C215.803 136.384 210.085 135.795 203.987 135.672C196.401 135.521 189.144 135.604 181.568 136.378L151.819 139.426L119.892 142.827C109.566 143.927 99.5816 144.271 89.2157 144.108C73.9926 143.865 57.8171 141.856 44.0717 135.091C43.7553 138.815 45.7277 141.951 48.8829 143.832L55.7372 147.684C59.3993 149.743 61.7772 153.021 62.8925 157.027C78.0019 159.368 94.0392 158.385 109.158 156.492L109.155 156.486ZM161.088 202.229C162.941 201.486 163.804 199.784 163.875 198.159C163.946 196.533 163.088 195 161.568 194.069L155.672 190.463C154.67 189.851 154.142 188.567 154.382 187.553C154.621 186.539 155.586 185.802 156.683 185.645C159.463 185.243 161.595 186.856 162.062 189.648C162.145 190.146 162.333 190.533 163.101 190.847L163.168 187.24C163.205 185.273 157.657 183.071 153.389 185.129C151.69 185.949 151.014 187.553 151.091 189.255C151.159 190.816 152.065 192.269 153.552 193.209L159.368 196.893C160.345 197.51 160.643 199.151 160.234 200.085C159.826 201.019 158.735 201.56 157.651 201.652C154.64 201.962 152.299 200.171 152.068 197.099L151.641 196.509C151.546 196.377 150.996 196.773 151.005 196.936L151.153 200.303C151.23 202.051 156.52 204.06 161.092 202.226L161.088 202.229ZM64.3979 199.418C64.4163 200.859 65.3011 202.358 66.2812 202.933C67.3473 203.56 68.8527 203.95 70.0232 203.388C68.8097 202.457 67.9187 201.55 67.9126 200.149L67.8603 184.819L64.2934 184.813L58.8494 197.741L52.4283 184.803L49.0611 184.822L49.0673 202.429L50.5051 202.478L50.5819 188.358L57.4914 202.352L58.4807 202.454C58.6435 202.469 58.7787 201.941 58.8494 201.772L64.2596 188.926L64.401 199.418H64.3979ZM114.802 201.888C115.272 202.438 115.923 202.693 116.676 202.42L116.682 184.846L115.302 184.834L115.265 196.911L105.505 185.67C104.654 184.69 102.34 184.757 101.274 184.84L100.233 184.92C100.045 184.935 100.46 185.704 100.657 185.704C101.631 185.691 102.792 186.558 102.792 187.891L102.78 202.278C103.05 202.438 103.926 202.447 104.144 202.294L104.227 189.495L114.808 201.891L114.802 201.888ZM208.374 197.667C209.025 201.504 212.374 203.547 215.72 202.196C214.334 201.286 213.357 200.742 212.862 199.563L206.715 184.886L205.314 184.932L197.526 202.395L199.003 202.478L201.194 197.609L208.374 197.664V197.667ZM254.338 205.504C255.678 204.89 256.289 203.111 256.295 201.722L256.347 184.819H252.802L252.765 201.083C252.756 205.489 250.178 204.659 250.233 206.085C251.49 206.186 253.026 206.107 254.338 205.501V205.504Z" fill="#9F9F9F"/>
<path d="M207.601 196.261L201.828 196.31L204.781 189.594L207.601 196.261Z" fill="#9F9F9F"/>
<path d="M255.139 135.613C255.357 141.017 239.677 138.117 234.398 131.505C235.655 128.71 237.329 126.313 239.91 124.949C243.551 123.023 248.039 123.957 251.109 126.657C253.692 128.934 255.004 132.203 255.142 135.613H255.139Z" fill="#9F9F9F"/>
</svg>
