<svg width="577" height="125" viewBox="0 0 577 125" fill="none" xmlns="http://www.w3.org/2000/svg">
<path d="M485.511 65.3761L470.261 65.3361L470.281 52.9461H499.391V83.5461C495.541 88.2361 490.331 91.2461 484.451 93.0861C478.501 94.7261 472.411 95.3161 466.351 94.6661C447.421 92.6161 434.231 76.8061 434.791 57.9661C435.391 37.7761 452.021 22.0661 472.451 23.0261C481.081 23.2061 489.221 25.8961 495.931 31.7461L487.741 42.0861C483.341 38.0061 477.721 36.7961 471.981 36.7161C458.521 36.5361 448.791 46.7261 449.191 60.0261C449.561 72.1461 458.471 81.5561 470.961 81.4661C475.991 81.4261 480.901 80.4761 485.451 77.9761L485.511 65.3861V65.3761Z" fill="#9F9F9F"/>
<path d="M419.568 66.0059L390.748 66.0159L390.738 79.6759L427.068 79.6859L427.058 92.8159L376.088 92.8259L376.078 25.8459L426.558 25.8359L426.608 38.9459L390.768 38.9859L390.708 52.9359L419.538 52.9559L419.568 66.0059Z" fill="#9F9F9F"/>
<path d="M555.528 77.9494H527.368L521.298 92.8194H506.398L534.838 25.8794L548.398 25.8594L576.848 92.7594L561.568 92.8194L555.528 77.9394V77.9494ZM550.278 64.9594L541.438 43.5694L532.588 64.9794L550.278 64.9594Z" fill="#9F9F9F"/>
<path d="M365.344 49.4959C365.274 64.1259 353.444 72.6259 339.514 72.6759L327.044 72.7159L327.014 92.8259H312.344V25.8359L341.474 25.9059C347.564 25.9159 353.214 28.0159 357.834 31.6359C363.114 36.1559 365.394 42.5859 365.364 49.4959H365.344ZM347.044 41.7059C344.924 39.9859 342.034 39.1859 339.524 39.1759L327.024 39.1359V59.6159L340.464 59.4859C344.824 59.4459 348.574 56.5059 349.774 52.9259C351.094 48.9859 350.484 44.4759 347.054 41.6959L347.044 41.7059Z" fill="#9F9F9F"/>
<path d="M151.14 74.6441C106.72 79.5041 58.3801 95.9841 18.1401 115.284L0 124.524C18.38 80.8541 53.8801 36.314 95.3201 13.7641C106.13 7.88405 124.64 0.37405 135.9 2.23405C143.02 3.40405 147.1 9.41405 146.15 16.644C141.05 36.6641 142.99 55.2541 151.14 74.6541V74.6441Z" fill="#9F9F9F"/>
<path d="M254.479 68.3023C251.569 66.9023 248.559 66.8923 245.609 67.1223C238.359 67.6923 231.299 67.1923 224.389 65.2523C218.809 63.5023 213.869 60.9223 210.329 56.2323L209.049 56.1423C207.519 56.0423 210.869 61.7123 216.429 65.6223C221.989 69.5323 227.719 71.9223 234.139 73.9423C236.779 80.2423 238.709 86.5623 239.589 93.7923C215.049 75.3223 184.619 72.1223 154.779 74.3623C153.099 58.8123 154.039 42.9523 160.449 28.8523C172.069 3.9223 195.989 -1.8977 222.069 0.4923C231.519 1.3623 240.499 3.6123 248.429 8.7723L243.599 13.6923C242.949 14.3523 242.779 16.2523 243.599 16.8923L256.809 27.3023C256.509 33.4023 259.119 36.7823 263.289 41.2523L281.379 60.6123C282.959 62.3023 284.489 64.2723 283.259 66.8723C282.029 69.4723 280.359 72.5523 278.429 74.8723C276.259 77.4723 272.239 76.8323 269.529 75.5323L254.479 68.2923V68.3023ZM251.629 36.5623L253.109 31.5423C250.089 30.2223 247.089 31.0123 245.059 33.3323L251.629 36.5623Z" fill="#9F9F9F"/>
</svg>
