<svg width="686" height="86" viewBox="0 0 686 86" fill="none" xmlns="http://www.w3.org/2000/svg">
<path d="M462.805 44.8433L463.528 19.9639L444.027 76.6C442.13 77.1066 440.502 76.9988 438.422 76.7832L420.679 24.9226C420.021 22.993 419.547 21.3761 418.523 19.7591L419.482 47.0962L419.525 84.1242L411.656 84.081V8.97953L421.951 8.99031L441.235 65.9929L449.697 40.6931L460.369 9.00109L470.707 8.96875V84.1242L462.838 84.1134V44.8325L462.805 44.8433Z" fill="#9F9F9F"/>
<path d="M366.046 48.3262L338.741 48.4232V76.7843L372.136 76.8275L372.179 84.1684L330.44 84.1576L330.43 8.9375L370.864 8.94828L370.95 16.2676H338.73L338.741 41.0499L365.916 41.0392L366.046 48.3262Z" fill="#9F9F9F"/>
<path d="M294.444 76.8008L294.498 84.1848L255.034 84.174L255.023 9.00781H263.388L263.367 76.8115L294.444 76.8008Z" fill="#9F9F9F"/>
<path d="M218.827 76.7733L218.903 84.1788L180.031 84.1896V9.02344H188.396L188.407 76.7948L218.827 76.7733Z" fill="#9F9F9F"/>
<path d="M541.545 8.9375H532.21L507.719 84.1037L516.299 84.136L523.328 61.003L550.255 61.1431L557.337 84.1791L566.036 83.9959L541.534 8.94828L541.545 8.9375ZM525.581 53.9747L531.509 34.1618L536.565 15.7179L539.767 26.6376L547.981 53.8238L525.57 53.9639L525.581 53.9747Z" fill="#9F9F9F"/>
<path d="M652.732 84.0271L644.184 84.1457L633.878 65.4108L609.937 20.2334L610.681 42.5903L610.724 84.1242L602.855 83.9517L602.844 9.02265L611.554 9.01187L638.169 58.0591L645.768 72.4283L644.884 47.5597L644.852 8.96875L652.721 8.99031L652.732 84.0271Z" fill="#9F9F9F"/>
<path d="M673.424 0C666.481 0 660.844 5.62695 660.844 12.5798C660.844 19.5326 666.471 25.1596 673.424 25.1596C680.376 25.1596 686.003 19.5326 686.003 12.5798C686.003 5.62695 680.376 0 673.424 0ZM673.424 23.2839C667.506 23.2839 662.709 18.487 662.709 12.569C662.709 6.65102 667.506 1.85409 673.424 1.85409C679.342 1.85409 684.138 6.65102 684.138 12.569C684.138 18.487 679.342 23.2839 673.424 23.2839Z" fill="#9F9F9F"/>
<path d="M675.567 13.5898C677.345 12.6628 678.305 11.3585 678.294 9.70917C678.294 8.44796 677.626 6.6801 676.062 6.23814C673.874 5.6237 671.621 6.02255 669.023 5.96865V19.1198C669.886 19.3785 670.802 19.2383 671.104 18.8934C671.212 17.4381 670.662 15.4547 671.341 14.0534C671.611 13.4928 673.292 13.6761 673.551 14.1288L676.213 18.9365C676.548 19.5294 677.863 19.3461 678.326 18.9042L675.567 13.5898ZM671.169 11.9082L671.115 7.76884C672.29 7.46701 673.713 7.35922 675.017 7.85508C676.364 8.36172 676.655 10.744 675.254 11.5956C673.982 12.3717 672.527 12.1993 671.169 11.9082Z" fill="#9F9F9F"/>
<path d="M133.001 17.1767C127.924 11.0647 120.917 8.03558 113.069 7.73376C101.912 7.30257 92.4156 13.005 87.2845 22.9114C80.5473 35.9224 80.558 55.8431 86.9072 69.1667C91.0682 77.909 98.7756 84.2582 108.488 85.293C125.186 87.0717 136.353 76.4537 140.169 60.6724C143.554 46.6697 142.325 28.3875 133.001 17.1767ZM124.528 72.8426C116.077 80.9381 102.915 79.0085 96.6412 69.5009C93.6984 65.0381 92.0383 60.1873 91.2838 54.8191C89.3973 41.3338 91.5425 22.8252 104.435 16.9395C109.889 14.4495 116.54 14.8052 121.639 17.942C126.447 20.8957 129.53 25.6279 131.158 31.0177C135.071 44.0395 134.521 63.2811 124.528 72.8534V72.8426Z" fill="#9F9F9F"/>
<path d="M30.032 50.9152C43.5065 47.4872 47.7429 36.9017 45.4145 23.5134C44.1533 17.1966 39.7767 12.4966 33.6216 10.6426C29.6224 9.39212 25.5477 8.96094 21.2682 8.96094H0.0215592L0 83.9762L8.33264 84.1271L8.38653 51.9392L21.4299 51.9608L38.6018 84.1703L47.8076 83.9223L30.032 50.8936V50.9152ZM8.37575 44.8355L8.34341 15.9246L23.7583 16.0863C27.3263 16.1294 30.7003 17.2289 33.4922 19.2986C39.4749 24.1171 38.8928 36.8047 33.0718 41.3429C29.9026 43.8114 25.6339 44.7923 21.6778 44.8031L8.37575 44.8355Z" fill="#9F9F9F"/>
</svg>
