<svg width="611" height="95" viewBox="0 0 611 95" fill="none" xmlns="http://www.w3.org/2000/svg">
<path d="M220.479 76.5601C220.479 78.8901 218.859 80.6401 216.789 80.6401H210.379C208.699 80.6401 206.929 78.5501 206.909 76.8001L206.669 39.5001C206.619 32.1301 200.039 27.6001 193.329 27.5401C185.949 27.4701 179.529 32.6201 179.499 40.4301L179.379 76.8101C179.379 78.7701 177.809 80.6301 175.789 80.6301H169.459C167.429 80.6301 165.849 78.7901 165.859 76.8101L166.009 37.3601C166.049 27.7301 172.409 19.6201 181.009 16.0401C186.989 13.5501 193.439 12.9301 199.649 14.6101C208.179 16.9101 212.149 23.6201 214.059 23.2901C216.549 22.8501 223.619 10.5501 241.359 14.3901C252.919 16.8901 261.529 26.2001 261.529 38.4001L261.509 78.7201C261.509 80.9401 258.199 80.5801 256.839 80.7101C252.969 81.1001 248.149 79.1301 248.129 74.6001L247.929 39.8401C247.879 31.3501 239.659 26.2401 231.769 27.6201C225.609 28.7001 220.679 32.9401 220.649 39.6301L220.499 76.5501L220.479 76.5601Z" fill="#9F9F9F"/>
<path d="M332.423 80.9994C323.103 80.1794 321.593 73.5094 319.643 74.2394C317.693 74.9694 314.903 80.3594 303.363 81.0194C296.413 81.4094 289.633 79.4794 284.813 74.3694C279.993 69.2594 277.483 62.7894 277.393 55.8494L277.213 42.8394C277.013 28.2094 291.063 15.1194 305.903 15.0194L331.393 14.8594C333.293 14.8494 335.333 16.3394 335.333 18.5194L335.353 78.2494C335.353 80.0094 334.013 81.1495 332.423 81.0095V80.9994ZM322.523 50.6094L322.443 31.8394C322.433 29.5194 320.693 27.7494 318.393 27.7694L306.833 27.8794C299.013 27.9594 292.743 33.7594 290.663 41.1494C288.943 47.2494 289.303 53.5494 291.093 59.4994C292.983 65.8294 298.473 69.0994 304.873 68.9294C315.003 68.6594 322.583 61.0294 322.533 50.6094H322.523Z" fill="#9F9F9F"/>
<path d="M486.999 67.7347C491.849 66.0847 497.639 70.3047 497.629 73.0447C497.629 73.7547 496.729 74.9947 495.989 75.4447C488.519 79.9147 480.179 81.8147 471.339 80.8247C457.409 79.2647 446.739 67.8847 445.859 53.8347V40.7647C447.069 26.6247 458.659 15.0447 472.799 13.8247C491.699 12.1947 506.629 28.3247 505.069 46.8447C504.769 50.4247 503.139 54.2347 498.759 54.2447L459.289 54.3147C458.829 62.0947 464.549 68.5147 472.159 69.5547C477.199 70.2447 482.029 69.4247 487.009 67.7347H486.999ZM491.379 43.4547C491.649 37.9647 490.249 33.6447 486.939 30.2847C481.419 24.6847 468.979 24.7347 463.529 30.5247C460.279 33.9847 458.819 38.9247 459.509 43.4947L491.379 43.4547Z" fill="#9F9F9F"/>
<path d="M604.459 75.9109C589.629 88.2709 562.639 75.6709 567.379 69.7609L570.659 65.6709C572.219 63.7309 574.469 64.061 576.269 65.451C582.079 69.931 591.359 72.5309 596.099 66.5509C599.049 62.8309 598.179 57.6609 594.139 55.0009C588.459 51.2709 581.94 50.5509 575.59 46.6209C569.24 42.6909 566.219 35.2909 567.799 27.7409C569.239 20.8509 574.91 15.7309 582.36 14.3009C591.72 12.5009 601.339 14.7209 608.139 21.5709C609.489 22.9309 608.699 24.9409 607.449 25.8609C603.979 28.4309 600.289 28.4909 596.479 26.7409C589.999 23.7609 582.119 24.6909 580.629 29.9209C578.889 36.0309 585.159 39.4109 591.299 41.9109C600.489 45.6509 609.979 50.0409 610.809 60.7109C611.269 66.6309 609.009 72.1309 604.459 75.9209V75.9109Z" fill="#9F9F9F"/>
<path d="M417.019 59.7714C417.019 64.3914 420.799 68.1515 425.339 68.2215L431.409 68.3115C433.419 68.3415 435.289 69.7515 435.269 71.9215L435.219 77.1915C435.199 79.6915 432.548 80.8915 430.418 80.8015L417.409 80.2415C413.309 80.0615 409.069 77.9914 406.639 74.5314C404.339 71.2614 403.479 66.9714 403.469 62.7714L403.398 4.40147C403.398 1.71147 405.299 -0.0585206 407.889 0.00147945L413.699 0.131454C415.479 0.171454 416.969 2.12147 416.979 3.77147L417.009 12.8915C417.009 13.7515 418.369 14.8715 419.289 14.8715L429.958 14.8215C430.578 14.8215 431.859 15.3515 432.229 15.8015C434.019 17.9515 431.029 26.1015 425.779 27.1615L417.019 27.7615V59.7714Z" fill="#9F9F9F"/>
<path d="M534.055 76.563C534.055 78.983 532.385 80.633 530.295 80.643L524.305 80.673C522.735 80.673 520.545 79.043 520.555 77.233L520.625 36.013C520.645 23.063 532.645 14.523 545.875 14.853L556.165 15.103C557.885 15.143 557.605 18.213 557.715 19.333C558.135 23.473 556.365 28.133 551.805 28.233L543.325 28.413C538.295 28.523 534.125 32.453 534.115 37.693L534.055 76.573V76.563Z" fill="#9F9F9F"/>
<path d="M364.344 76.5315C364.344 79.0515 362.524 80.7015 360.344 80.6815L354.364 80.6215C353.124 80.6115 350.844 78.7615 350.844 77.3415V36.3515C350.854 23.8015 362.344 14.7815 374.354 14.9315L386.234 15.0715C388.414 15.1015 388.984 22.7715 386.384 26.0715C385.334 27.4015 382.974 28.3815 380.954 28.3815H373.764C368.984 28.3815 364.444 32.1815 364.424 37.4015L364.334 76.5315H364.344Z" fill="#9F9F9F"/>
<path d="M145.487 75.9703C131.957 87.1903 107.967 77.5203 108.047 71.5003C108.057 70.6203 108.797 69.1702 109.387 68.4602L111.507 65.9203C112.797 64.3803 114.967 63.7303 116.697 65.0103C123.307 69.8703 132.697 72.7903 137.407 66.3703C140.057 62.7603 139.367 58.1503 135.727 55.3703C130.487 51.3703 123.407 50.8003 116.677 46.5703C110.797 42.8703 107.867 36.5803 108.657 29.7003C109.337 23.7903 112.617 18.6503 118.207 16.1303C128.307 11.5903 140.207 13.3803 148.487 20.6703C149.187 21.2903 149.937 22.4603 150.027 23.1403C150.367 25.6803 144.767 29.8903 137.537 26.6803C131.227 23.8803 123.797 24.4603 121.897 29.7203C121.077 31.9903 121.687 34.9203 123.557 36.7003C128.717 41.6003 136.567 42.5403 143.997 47.6303C148.777 50.9003 151.727 55.8303 152.007 61.1303C152.317 66.9703 150.007 72.2002 145.477 75.9602L145.487 75.9703Z" fill="#9F9F9F"/>
<path d="M75.1356 65.82C78.5956 66.36 81.8056 67.55 84.6156 69.01C86.9656 70.23 87.6257 73.0199 86.2157 75.2299C82.1457 81.6199 72.6458 84.6599 65.0858 87.0499C56.7058 95.1299 42.1857 96.28 31.4057 92.88C30.3557 92.55 29.1354 91.19 28.9154 90.38C28.1154 87.44 33.1254 84.9999 37.6454 84.0999L52.1654 81.1899C47.5154 79.4499 42.9856 78.9099 38.0556 78.1199L15.6854 74.4899C10.9754 73.7299 3.06556 70.7599 2.80556 67.0399C2.47556 62.3699 9.38579 58.7399 14.5458 56.4999C10.3558 54.2199 6.50562 51.9799 3.61562 48.6899C-0.624384 43.8599 -1.18431 37.5199 2.19569 32.1499C4.45569 28.5499 7.60538 25.9699 11.3754 23.7199C11.7854 17.3699 14.9158 11.8399 20.2958 8.18995C33.4358 -0.720053 55.1856 -3.88007 65.5756 7.51993C67.5156 9.63993 68.3154 12.2399 67.1854 15.0899C75.5054 16.8499 88.6055 20.7799 88.4955 29.3599C88.3155 43.0299 47.4756 44.2099 37.3456 26.6199C31.1656 27.6199 25.5258 29.0499 19.5458 31.1799C23.8458 40.2499 36.1958 45.69 45.3358 48.83C56.5458 47.36 94.5955 43.6699 94.4755 51.5899C94.4555 52.6099 93.0254 54.1299 91.6254 54.1699C73.2454 54.7399 55.0955 56.05 37.0355 59.58C44.3755 61.38 50.9858 62.2399 58.0058 63.1599L75.1356 65.83V65.82ZM62.9555 14.4199C61.3055 11.8399 58.7155 10.5899 55.7855 9.88993C48.6355 8.19993 41.3256 8.98992 34.3056 11.2599C29.5256 12.7999 24.6158 14.6199 21.5858 18.9099C35.3458 14.4499 48.8557 13.1699 62.9657 14.4199H62.9555ZM81.8656 31.0599C82.2056 27.9299 75.0858 25.8399 70.0658 25.1499C60.8058 23.8899 51.7256 24.4199 42.0956 25.8699C50.7956 39.4899 81.2456 36.7399 81.8656 31.0499V31.0599ZM20.5058 54.2899L38.1059 49.7299L27.7455 45.5099C22.2955 42.4499 17.8054 38.7799 14.1454 33.7899C12.5354 34.9399 10.9654 36.0699 9.91542 37.2699C6.88542 40.7199 7.48567 45.07 10.6757 48.07C13.4457 50.68 16.8158 52.8199 20.5058 54.2799V54.2899ZM59.6454 79.9099L74.5756 76.0999C77.0256 75.4699 78.8955 74.1599 80.2255 71.8999C77.6355 70.5799 75.4554 69.6699 72.8754 69.2299L47.7455 64.9699L28.3656 61.7899C25.3356 61.2899 12.4658 65.4299 13.0258 67.4999C13.1358 67.9199 13.9457 68.8499 14.4857 68.9699L31.0858 72.64L52.3158 76.8399C54.8158 77.3299 57.1954 78.6499 59.6654 79.9099H59.6454Z" fill="#9F9F9F"/>
</svg>
