<svg width="337" height="371" viewBox="0 0 337 371" fill="none" xmlns="http://www.w3.org/2000/svg">
<path d="M160.965 369.072C153.645 367.912 151.905 359.232 146.645 363.272C142.115 366.752 137.185 369.232 131.295 369.292C128.135 369.322 125.045 368.222 123.185 365.502L117.895 357.782C116.955 356.402 114.795 358.212 114.125 359.102L107.595 367.712C106.955 368.562 105.075 369.362 104.135 369.302C98.2847 368.972 96.0547 357.372 91.2847 350.552C89.6147 348.162 86.5847 347.592 84.3847 349.472L70.6547 361.132L61.4247 368.522C60.7547 369.062 58.6948 368.912 57.9348 368.562C57.0548 368.152 56.5547 366.162 56.9147 364.912L64.4448 339.052C65.0648 336.942 67.7348 334.622 69.6848 336.042L72.5847 346.412C72.7347 346.932 73.7647 347.822 74.2147 347.842C74.6647 347.862 75.6548 347.362 75.9548 346.982L83.9548 336.982C85.8348 334.622 88.0448 331.602 91.4348 331.482C93.0548 331.432 94.8647 334.372 95.3647 335.862L100.255 350.512C101.045 352.892 102.535 355.182 104.435 356.792C106.115 358.212 108.695 357.782 110.115 356.122C111.535 354.462 113.255 352.042 113.665 349.872L115.605 339.692C116.255 336.282 120.485 332.072 123.155 333.692C126.305 335.602 126.605 342.902 125.095 348.212C123.755 352.942 125.535 358.472 130.245 360.462C136.405 363.072 143.175 360.092 146.445 354.362C141.645 341.032 141.035 327.052 145.545 313.662C147.535 307.752 151.465 300.492 157.035 300.392C159.585 300.342 161.975 301.562 163.705 303.552C166.815 307.132 167.515 311.692 167.655 316.432C167.985 327.362 165.815 337.722 160.725 347.312L156.905 354.502C159.945 360.872 167.235 365.442 173.315 361.642C171.195 351.822 174.315 341.322 181.955 334.672C184.215 332.712 187.365 331.522 190.125 332.062C193.555 332.732 195.465 335.502 196.795 338.392C201.495 348.552 194.075 354.552 185.345 360.322C190.295 364.002 196.545 362.812 200.845 358.882C204.265 355.762 206.965 351.782 208.775 347.422L213.615 335.732C214.275 334.142 216.245 331.872 218.095 332.602C219.795 334.412 220.635 337.422 221.295 339.842L224.835 352.862C225.905 356.802 228.605 362.262 231.475 362.242C232.295 362.242 233.875 361.322 234.405 360.582C237.915 355.762 238.155 350.022 236.885 344.352C235.955 340.192 236.625 335.632 239.085 332.362C240.715 330.192 243.565 328.722 246.095 330.252C251.255 333.372 243.815 363.672 229.375 368.892C224.355 370.702 219.745 368.582 218.005 363.552L214.855 354.472C214.725 354.082 214.095 353.322 213.805 353.102C213.445 352.822 212.175 353.152 211.875 353.482L206.435 359.482C201.185 365.262 194.635 369.012 186.865 369.502C182.445 369.782 178.495 368.482 175.705 364.932C171.385 367.912 166.385 369.922 160.995 369.072H160.965ZM158.395 311.462C151.645 309.382 151.035 332.332 153.115 343.022C153.255 343.762 154.415 345.052 155.065 345.002C158.755 344.712 166.085 313.832 158.395 311.462ZM182.645 356.492C187.435 355.492 189.975 351.572 189.835 346.872C189.765 344.722 189.235 342.022 187.185 341.012C184.795 339.832 182.215 341.622 181.235 343.892C179.445 348.052 179.975 352.942 182.655 356.492H182.645Z" fill="#9F9F9F"/>
<path d="M4.63677 313.46C6.35677 308.67 10.5567 305.92 15.4067 306.9C16.1967 309.61 16.1168 312.28 15.4968 315.01C12.9668 326.08 11.8867 337.14 13.3367 348.45C13.9167 352.98 15.5968 357.37 18.8268 360.5C22.0568 363.63 26.7168 364.22 31.3868 363.25C41.9268 361.05 44.6668 345.6 44.9368 334.93C45.2068 324.26 39.2867 319.58 41.3567 311.86C42.2967 308.36 45.9668 304.65 49.6868 306.25C54.8868 308.48 54.1967 324.71 54.0367 332.41C53.8767 340.11 52.4167 347.83 48.9067 354.77C43.8467 364.77 34.2767 370.33 23.1067 369.17C17.3667 368.57 11.7667 367.01 7.59673 362.73C-3.36327 351.49 -0.723263 328.41 4.66674 313.45L4.63677 313.46Z" fill="#9F9F9F"/>
<path d="M258.605 337.064C261.885 334.114 266.125 332.364 270.315 333.364C274.875 334.454 278.205 338.604 278.865 343.244C279.525 347.884 276.695 352.414 272.505 354.714L263.345 358.584C262.845 358.794 262.035 359.314 261.885 359.734C260.945 362.254 268.575 365.534 275.405 361.594C283.235 357.074 287.205 347.174 289.895 338.624C290.495 336.704 292.025 334.604 294.345 334.594C295.445 334.594 296.245 337.024 296.395 338.174L298.185 351.394C298.405 353.024 299.465 355.294 301.305 355.674C302.665 354.784 303.575 352.544 304.235 350.974C306.485 345.654 308.865 340.664 312.485 336.314C316.865 331.064 323.105 328.194 329.785 329.794C333.375 330.654 336.695 333.604 336.525 337.324C336.375 340.644 333.625 342.504 330.965 342.644C327.805 342.814 325.755 341.034 324.385 338.024C321.055 335.894 315.325 341.014 313.435 344.714L305.855 359.584L301.115 368.804C300.305 370.374 297.615 371.184 296.275 369.764C294.625 368.024 293.645 365.414 293.075 363.054L290.375 351.884C284.535 363.284 274.835 372.224 262.575 370.114C255.705 368.934 251.505 363.784 251.165 356.894C250.805 349.484 252.855 342.244 258.595 337.064H258.605ZM267.795 351.214C270.745 348.584 271.305 343.894 268.335 341.324C265.995 339.294 262.415 340.504 260.835 343.104C258.765 346.504 258.905 350.494 259.695 354.784C262.585 354.404 265.345 353.404 267.795 351.214Z" fill="#9F9F9F"/>
<path d="M127.538 314.646C125.218 317.046 121.328 317.276 119.058 314.726C116.398 311.736 116.948 307.516 119.648 304.716C122.348 301.916 126.968 301.826 129.108 305.136C131.118 308.236 129.968 312.126 127.538 314.636V314.646Z" fill="#9F9F9F"/>
<path d="M242.808 113.714C252.198 116.834 247.798 126.384 258.318 134.014C266.098 139.654 271.058 147.414 274.438 156.394C276.538 145.774 266.808 134.724 259.988 126.854C257.368 123.824 255.078 121.284 252.998 117.624L257.918 118.444C262.798 119.254 266.388 122.684 268.178 127.214L273.128 139.744L277.228 151.774C278.938 147.114 281.208 142.594 284.028 138.124C277.028 134.774 269.178 130.274 272.478 123.284C274.518 118.974 278.018 115.674 282.668 113.964C283.118 115.024 283.438 116.584 283.288 117.534L281.688 127.614C281.268 130.284 282.348 134.184 285.188 134.924C290.128 131.574 292.318 125.374 291.598 119.734C290.628 112.944 285.108 107.924 278.278 108.014C272.158 110.934 265.998 112.844 259.228 112.544C241.928 112.114 233.298 97.0037 233.078 80.5938C236.718 82.9938 240.598 83.3537 244.788 83.0837L255.548 82.3838C261.838 81.9738 266.758 85.4838 270.948 89.9138L280.108 101.754L288.108 107.184C295.258 113.034 297.558 122.744 292.978 130.934L287.108 139.484C284.258 143.644 281.418 147.504 280.178 152.764C282.548 152.524 284.148 150.824 285.768 149.144L289.978 144.754C290.738 143.964 293.048 143.814 294.058 144.314C298.938 146.714 294.448 159.004 288.808 163.714C288.948 160.564 288.758 157.314 285.958 155.734C283.948 154.604 280.978 155.744 279.798 157.684L275.108 165.424C271.478 152.954 266.608 140.074 253.898 136.394L246.908 134.364C243.298 133.314 240.688 129.574 241.418 125.734L242.858 118.154C243.068 117.054 242.908 115.464 242.778 113.724L242.808 113.714ZM268.098 103.204L274.918 103.334C272.278 99.5137 268.878 99.7237 268.518 93.7737C268.458 92.7037 267.158 91.6637 266.278 92.1137L265.148 97.6237C263.218 97.7337 261.368 96.6537 260.418 94.8737L257.498 89.3737C257.338 89.0737 256.758 88.6138 256.508 88.4538C256.338 88.3438 255.628 88.9938 255.638 89.1938L255.788 93.6537C255.798 94.0837 255.338 95.0337 254.948 95.2137C254.558 95.3937 253.288 95.0537 252.988 94.7137L248.408 89.4238C248.028 88.9838 246.718 88.7138 246.228 88.9238C245.738 89.1338 245.988 90.5138 246.228 91.0438L247.968 95.0038L242.468 96.3538C241.958 96.4838 241.038 97.3538 241.208 97.7938C241.348 98.1438 242.428 98.7637 242.898 98.7137L251.048 97.7638C251.588 97.7038 252.988 98.3237 252.898 98.8337C252.818 99.2337 252.408 100.184 252.078 100.514L249.068 103.554C250.028 105.284 251.768 104.584 253.038 103.874L259.838 100.074C260.848 99.5138 263.358 99.9137 263.568 100.964L260.368 105.624C260.098 106.024 260.138 107.424 260.508 107.674C262.138 108.764 265.268 103.144 268.098 103.194V103.204Z" fill="#9F9F9F"/>
<path d="M188.885 45.36L193.775 36.11C194.055 35.58 194.495 34.09 194.105 33.65C193.715 33.21 192.495 32.93 191.825 32.8L186.695 31.78L192.725 26.98C193.345 26.49 194.375 25.18 194.375 24.43C194.375 23.68 193.205 22.48 192.455 22.12L187.485 19.71C187.715 16.59 192.885 17.14 193.925 13.69L187.565 4.31C187.395 4.05 187.275 3.11999 187.255 2.89999C187.235 2.56999 188.505 2.58 188.805 2.73L198.135 7.34C198.385 7.46 199.225 7.6 199.495 7.59C199.865 7.58 200.365 6.7 200.415 6.27L201.175 0C205.165 1.21 205.345 5.69999 210.125 3.56999C218.125 0.00999212 226.645 -0.289997 234.635 3.3C241.365 6.32 245.915 12.16 246.925 19.59C247.655 25 247.245 30.61 244.545 35.5C237.675 47.96 221.575 51.48 209.815 43.64C208.795 42.96 206.955 42.44 205.995 42.77L202.095 47.52L200.825 41.07C200.665 40.28 199.305 38.76 198.615 39.32L191.255 45.25C190.925 45.52 189.885 45.6 188.905 45.38L188.885 45.36ZM230.735 32.16L219.845 30.78C219.415 33.72 222.175 36.12 221.025 38.91L212.945 35.39C212.255 35.09 210.705 35.47 210.445 36.08C209.495 38.34 214.175 41.14 218.975 41.95C225.175 43 231.635 40.93 235.215 35.63C240.255 28.15 239.085 13.77 231.785 8.66C226.515 4.98 219.355 4.76 213.755 7.55C212.265 8.29 210.855 10.28 211.815 11.72C212.345 12.52 214.715 12.39 215.645 12.15L223.025 10.23C222.605 12.98 219.785 15.09 220.895 16.18C221.185 16.46 222.135 16.86 222.605 16.89L230.685 17.49C231.115 17.52 232.215 18.1 232.055 18.39C231.895 18.68 231.335 19.4 230.965 19.57L223.425 23C225.415 26.74 230.355 27.96 230.755 32.16H230.735ZM208.315 29.26L213.895 30.86L211.265 25.68L217.885 24.26L211.475 21.31L214.305 16.5L208.745 18.12L205.635 12.07L203.755 18.02L197.715 18.35C199.245 20.41 200.025 20.95 202.045 22.55L197.395 27.43L203.505 27.78L204.375 33.69L208.315 29.26Z" fill="#9F9F9F"/>
<path d="M202.184 219.418L199.014 218.648L199.914 215.668C200.024 215.298 200.034 214.408 199.974 214.018C199.574 211.448 192.004 218.048 183.614 216.248C177.434 214.918 174.494 209.958 175.754 208.128C176.534 207.008 179.354 208.228 179.424 207.778L179.704 206.018C179.954 204.438 180.154 202.968 181.434 201.888L188.014 206.258C194.374 210.488 209.844 209.588 217.934 205.528C217.454 214.528 212.784 222.998 204.874 227.638C194.584 233.668 181.074 232.578 171.944 224.868C162.314 216.728 158.824 203.748 162.844 191.678C166.524 180.638 176.694 172.298 189.014 171.288C194.304 170.858 200.114 172.258 199.624 174.748C199.204 176.908 194.334 175.768 192.274 178.508C194.434 179.268 196.464 179.848 197.914 180.858C198.514 181.278 198.534 183.378 198.134 183.978C197.674 184.658 196.304 185.628 195.434 185.588L189.754 185.338C187.374 185.238 184.804 185.948 183.544 187.698L186.124 189.518C186.724 189.938 186.884 192.038 186.324 192.538C182.874 195.658 175.524 195.268 172.524 199.718C167.964 206.478 170.234 214.888 176.454 219.988C182.674 225.088 191.914 226.388 199.744 223.588C201.504 222.958 202.684 221.368 202.174 219.428L202.184 219.418Z" fill="#9F9F9F"/>
<path d="M258.477 36.1334C261.047 36.9634 263.846 36.2434 265.006 34.5934C266.476 32.5034 266.337 29.3234 264.237 27.5834C258.937 23.2134 253.377 23.4434 248.607 20.4534C253.067 18.1034 257.596 17.4134 262.996 16.9634C259.596 12.2934 254.736 9.20343 249.026 7.88343C247.496 7.53343 245.996 7.02343 244.516 6.19343C252.016 2.62343 268.386 1.65342 271.396 6.84342C273.506 10.4734 270.047 13.8534 270.197 19.5834C270.257 21.8934 272.197 23.2134 273.967 23.2734C278.847 23.4234 278.177 16.6334 277.567 10.6434C277.327 8.29343 278.127 5.87343 279.687 4.38343C281.247 2.89343 283.766 2.35343 286.006 2.85343L292.786 4.36343C286.866 8.96343 292.787 15.0234 293.047 25.1334C293.677 49.0234 263.247 49.7834 243.477 46.3034C246.057 43.3634 251.326 42.5534 250.746 37.1034L250.006 30.1734C253.376 32.4334 254.967 34.9834 258.457 36.1134L258.477 36.1334ZM286.886 8.62342C286.886 7.17342 285.706 5.99343 284.256 5.99343C282.806 5.99343 281.626 7.17342 281.626 8.62342C281.626 10.0734 282.806 11.2534 284.256 11.2534C285.706 11.2534 286.886 10.0734 286.886 8.62342ZM286.266 30.3334C287.786 26.6034 286.566 22.3234 282.506 20.8234C282.066 31.4834 275.376 35.7034 266.016 38.9534C274.246 39.6034 283.386 37.3834 286.266 30.3334Z" fill="#9F9F9F"/>
<path d="M232.988 221.947C232.368 220.947 233.868 218.927 234.588 218.367L246.158 209.397C249.728 206.627 250.068 201.917 248.398 201.647C247.818 201.557 246.628 201.927 246.188 202.347L240.978 207.227C236.998 210.947 228.718 218.997 225.178 217.137C222.948 215.957 222.018 212.777 222.828 210.467C223.168 209.477 225.528 208.597 226.598 208.407C239.518 206.007 242.108 196.367 247.668 193.447C255.438 189.367 265.658 191.867 270.338 199.367C273.748 204.817 273.408 211.667 270.518 217.407C266.228 225.937 259.758 233.737 251.328 238.577C248.678 240.097 244.658 234.387 246.528 232.547C251.128 229.847 255.758 227.957 259.038 223.837C262.638 219.317 265.418 213.007 262.908 212.087C262.338 211.877 261.018 212.377 260.658 212.867L252.818 223.627C251.148 225.917 248.168 228.147 245.218 228.407C240.408 228.837 235.628 226.207 232.968 221.957L232.988 221.947ZM267.868 204.297C268.418 201.017 266.668 198.527 263.898 197.247C262.188 196.247 258.768 194.677 257.028 196.287C254.418 198.687 256.168 203.207 258.998 204.707C261.688 206.457 265.118 206.257 267.868 204.297Z" fill="#9F9F9F"/>
<path d="M217.011 163.512C215.861 163.072 218.462 160.652 218.342 158.092C215.462 157.252 212.692 156.912 209.812 157.742C208.932 158.082 209.312 160.612 209.842 161.382L213.161 166.182C214.211 167.702 213.852 170.082 211.962 170.792C208.472 172.102 203.841 170.662 202.401 166.942C200.961 163.222 206.361 159.592 204.401 157.082C202.251 155.972 200.481 158.072 199.401 159.612C195.981 164.462 191.302 167.662 185.102 168.022C187.832 165.222 188.872 162.052 188.562 158.252L188.082 152.432C188.002 151.522 188.902 149.942 189.562 149.422C190.312 148.832 192.782 148.642 193.572 149.372L197.462 153.012C198.242 153.742 199.842 154.342 200.932 154.022C201.882 153.742 202.882 151.862 202.712 150.602C202.382 148.142 200.592 146.542 198.572 145.312L191.442 140.982C185.602 137.432 187.141 128.042 190.991 121.922C193.771 129.742 204.212 126.252 203.942 136.582L203.741 144.172C203.711 145.132 205.181 146.282 206.001 146.232C207.401 146.142 208.191 145.012 208.121 143.572L207.842 137.972C207.792 137.042 208.701 135.362 209.401 134.792C210.101 134.222 212.342 133.642 213.232 134.022L218.241 136.122C220.401 137.022 222.301 137.612 224.871 138.152C223.791 140.382 221.671 141.752 219.361 142.662L212.511 145.362C211.301 145.842 210.141 147.512 209.861 148.552C209.491 149.892 209.911 152.302 211.111 153.142C213.221 154.632 215.992 154.962 218.302 154.062C219.332 151.692 217.961 148.802 218.741 148.742L220.161 148.642C224.731 151.232 228.552 154.372 232.172 158.182L232.562 159.722C232.672 160.142 231.772 160.772 231.312 161.162C227.142 162.812 222.891 163.732 218.411 164.032L217.031 163.512H217.011Z" fill="#9F9F9F"/>
<path d="M257.304 167.429C255.114 164.079 250.164 161.969 248.404 163.469C247.824 163.959 247.374 165.709 247.584 166.549C248.774 171.439 252.314 174.739 256.424 177.339L260.514 179.929L253.554 181.109L254.344 188.019C254.374 188.249 254.224 189.209 254.004 189.169C251.694 188.749 250.954 185.559 247.744 183.439L242.194 187.449C242.594 184.669 243.074 183.279 243.954 181.239C246.674 174.939 246.604 166.769 243.304 165.489C242.504 165.179 240.684 165.689 240.034 166.279C233.104 172.509 237.044 179.589 234.014 184.789L232.404 180.309L231.774 178.739C231.624 178.369 230.304 178.599 229.924 178.789L224.574 181.439L228.144 174.619L220.984 172.459C221.394 171.829 222.464 171.169 223.244 171.049C230.664 169.969 239.564 166.269 239.334 159.799C239.254 157.499 238.044 154.869 235.914 153.379L224.874 145.679L231.614 144.719L231.984 136.969L236.994 142.659C239.604 141.719 240.314 138.449 243.204 138.059C243.534 144.339 239.634 149.729 241.994 155.289C242.324 156.069 243.404 157.009 244.074 157.129C246.884 157.589 249.154 153.339 248.774 149.119L247.944 139.789C251.074 140.549 251.884 145.609 254.394 143.939L259.354 140.639C258.994 144.149 256.014 146.529 257.594 148.189C259.074 148.629 261.354 149.029 263.324 150.159L254.884 152.279C250.894 153.279 248.134 156.249 249.064 158.529C249.304 159.129 250.474 159.909 251.154 160.159C257.334 160.859 261.994 158.819 267.954 156.329C267.324 159.659 262.784 162.679 265.014 164.169L271.354 168.429L263.564 168.709L262.794 175.809L257.304 167.429Z" fill="#9F9F9F"/>
<path d="M206.764 266.732C201.894 266.272 199.304 261.692 199.834 257.582C200.494 252.462 202.754 248.042 206.084 244.372C207.704 242.592 209.204 242.932 211.244 243.512C220.264 246.062 229.844 243.502 237.384 237.992C240.864 238.122 242.974 242.062 242.694 245.532C241.594 259.072 221.804 268.152 206.754 266.732H206.764ZM226.944 256.522C229.894 255.652 234.144 249.362 231.174 246.482C226.874 249.142 222.244 249.942 217.344 249.822C217.524 253.372 217.074 256.162 216.164 259.692L226.934 256.512L226.944 256.522Z" fill="#9F9F9F"/>
<path d="M251.817 52.5405C256.027 50.8505 260.597 61.7805 260.547 67.5605C260.497 73.3405 247.677 76.9305 238.797 74.5405C229.747 72.1105 223.027 63.5805 223.047 54.1405C228.937 53.9505 233.937 53.2105 238.757 50.5605C240.367 49.6705 242.247 50.7705 243.037 52.3305C243.827 54.1105 245.577 55.0305 247.437 54.2905L251.817 52.5405ZM253.017 63.4605C245.937 63.2705 239.877 62.4005 233.167 59.9205C232.647 61.7805 233.697 63.1805 235.117 64.3705C240.977 69.2705 252.167 68.6705 253.017 63.4605Z" fill="#9F9F9F"/>
<path d="M274.611 194.341L267.441 190.841C264.561 189.431 262.891 186.881 263.191 183.811C263.451 181.111 265.271 178.371 268.411 177.681C271.041 177.111 273.631 177.971 276.561 179.071C274.411 175.131 274.091 170.661 277.441 167.801C280.401 165.281 284.691 166.211 287.081 169.201C294.701 178.741 289.531 194.981 280.051 203.821C279.871 199.801 278.401 196.191 274.591 194.321L274.611 194.341Z" fill="#9F9F9F"/>
<path d="M290.905 97.6572C289.335 101.387 272.255 86.1772 271.125 76.6872C277.275 76.7472 283.005 74.8272 287.355 70.7772L291.245 65.8672C292.415 67.1072 293.395 68.9172 293.325 70.5972L292.515 91.9572C292.455 93.5772 291.455 96.3572 290.905 97.6672V97.6572Z" fill="#9F9F9F"/>
<path d="M190.216 86.7669C186.696 80.7469 186.486 73.2569 190.066 67.2269C195.376 72.9069 200.956 69.7569 202.086 71.0469C202.346 71.3469 202.166 72.4169 201.946 72.7769L200.116 75.7869C203.856 77.3969 207.806 76.5369 211.106 74.2869C214.216 72.1669 215.736 68.2969 215.896 64.0469C218.726 69.5769 218.236 76.4669 213.776 81.1569C209.316 85.8469 202.316 86.6969 196.456 84.4869C195.866 84.2669 194.606 83.8669 194.176 84.1169C193.656 84.4169 193.166 85.3069 192.756 86.0669L191.976 87.5369C191.806 87.8469 190.716 87.1069 190.206 86.7669H190.216Z" fill="#9F9F9F"/>
<path d="M221.067 194.508C219.867 199.978 215.137 202.738 210.277 201.728C205.417 200.718 201.897 195.748 203.557 190.638L206.327 182.078C207.237 179.258 206.717 176.688 205.147 173.898C215.077 175.658 223.157 185.008 221.077 194.508H221.067ZM215.077 188.188C215.697 185.088 214.217 182.248 211.167 181.408L210.017 186.828C209.777 187.978 210.687 189.618 211.647 189.958C212.807 190.368 214.797 189.598 215.087 188.188H215.077Z" fill="#9F9F9F"/>
<path d="M233.023 232.993C232.923 240.023 220.903 241.523 213.113 238.723C211.063 237.983 210.663 236.513 210.603 234.533C210.523 231.953 210.923 230.243 213.413 229.013C218.573 226.463 224.853 226.343 230.313 228.403C232.373 229.183 233.053 230.933 233.023 232.993Z" fill="#9F9F9F"/>
<path d="M208.388 69.2315L202.608 63.6015C201.988 62.6115 203.598 60.4715 204.808 59.8315C202.588 57.8115 199.588 57.4215 196.748 58.2715C194.538 58.9315 192.528 61.0715 190.868 63.3115C189.458 58.8615 191.428 53.8715 195.468 51.8215C200.288 49.3815 205.928 50.5615 210.018 54.0215L213.138 52.9415C213.828 52.7615 214.418 54.6415 214.358 55.5815C214.038 60.7315 212.618 65.7515 208.398 69.2315H208.388Z" fill="#9F9F9F"/>
<path d="M289.948 61.4906C283.438 73.5806 265.598 75.3006 265.688 68.3606C265.708 66.7806 267.408 65.2306 269.248 65.1906C275.448 65.0606 281.278 62.8506 285.038 57.9906C286.758 55.7706 286.948 53.3906 286.198 50.6406C287.518 50.9706 289.368 51.7806 289.958 52.8006C291.508 55.4906 291.458 58.7106 289.958 61.5006L289.948 61.4906Z" fill="#9F9F9F"/>
<path d="M233.797 202.182C230.837 203.452 227.997 202.632 226.217 200.832C221.537 196.092 228.367 190.742 225.767 184.742C232.297 185.282 238.327 189.792 237.977 196.092C237.847 198.422 236.297 201.112 233.797 202.182Z" fill="#9F9F9F"/>
<path d="M223.973 128.94C221.713 132.63 217.663 133.51 214.423 131.71C211.183 129.91 209.563 125.96 211.683 122.56C213.803 119.16 217.573 118.18 220.903 119.71C224.233 121.24 226.103 125.48 223.973 128.94Z" fill="#9F9F9F"/>
<path d="M280.893 56.3014C275.753 61.4314 266.213 63.5014 264.853 58.0814L263.703 53.4914C271.493 55.1014 277.393 49.1414 280.913 50.9214C283.063 52.0114 282.243 54.9514 280.883 56.3014H280.893Z" fill="#9F9F9F"/>
<path d="M224.325 98.9098C222.875 102.21 219.355 103.47 216.215 102.45C213.575 101.59 211.195 98.4898 212.005 95.3798C212.985 91.6098 216.535 89.8198 219.995 90.5898C223.455 91.3598 225.985 95.1498 224.325 98.9198V98.9098Z" fill="#9F9F9F"/>
<path d="M206.517 112.803C202.817 112.723 200.367 109.983 200.447 106.903C200.527 103.553 203.247 100.893 206.757 101.003C210.267 101.113 212.827 103.653 212.817 106.873C212.807 110.093 210.317 112.883 206.517 112.803Z" fill="#9F9F9F"/>
<path d="M193.146 118.98C196.316 118.98 198.886 116.41 198.886 113.24C198.886 110.07 196.316 107.5 193.146 107.5C189.976 107.5 187.406 110.07 187.406 113.24C187.406 116.41 189.976 118.98 193.146 118.98Z" fill="#9F9F9F"/>
<path d="M200.787 200.598C199.737 203.488 197.057 204.428 194.807 203.708C192.217 202.878 191.267 200.068 192.177 197.358C192.857 195.348 192.717 193.528 191.797 191.508C197.557 191.758 202.317 196.368 200.787 200.588V200.598Z" fill="#9F9F9F"/>
<path d="M228.923 121.721C226.823 120.931 225.573 119.231 225.643 117.331C225.703 115.721 227.113 113.821 228.903 113.251C230.843 112.631 232.993 113.321 234.203 114.801C235.413 116.281 235.513 118.261 234.383 119.921C233.343 121.451 231.093 122.531 228.923 121.711V121.721Z" fill="#9F9F9F"/>
<path d="M229.572 108.87C231.864 108.87 233.722 107.012 233.722 104.72C233.722 102.428 231.864 100.57 229.572 100.57C227.28 100.57 225.422 102.428 225.422 104.72C225.422 107.012 227.28 108.87 229.572 108.87Z" fill="#9F9F9F"/>
<path d="M194.851 103.17C197.038 103.17 198.811 101.397 198.811 99.21C198.811 97.0229 197.038 95.25 194.851 95.25C192.664 95.25 190.891 97.0229 190.891 99.21C190.891 101.397 192.664 103.17 194.851 103.17Z" fill="#9F9F9F"/>
<path d="M218.686 115.723C220.851 115.723 222.606 113.968 222.606 111.803C222.606 109.638 220.851 107.883 218.686 107.883C216.521 107.883 214.766 109.638 214.766 111.803C214.766 113.968 216.521 115.723 218.686 115.723Z" fill="#9F9F9F"/>
<path d="M205.201 123.699C207.366 123.699 209.121 121.944 209.121 119.779C209.121 117.614 207.366 115.859 205.201 115.859C203.036 115.859 201.281 117.614 201.281 119.779C201.281 121.944 203.036 123.699 205.201 123.699Z" fill="#9F9F9F"/>
<path d="M221.978 87.6338C220.208 86.9738 219.078 84.9838 219.398 83.4938C219.768 81.8038 221.418 80.5838 223.228 80.5938C225.638 80.6138 227.448 82.4338 227.098 84.7138C226.798 86.6838 224.488 88.5738 221.968 87.6338H221.978Z" fill="#9F9F9F"/>
<path d="M230.557 133.417C228.767 133.257 227.227 131.717 227.077 130.337C226.867 128.437 228.137 126.847 230.027 126.317C232.307 125.677 234.677 127.247 234.877 129.327C235.087 131.567 233.317 133.657 230.557 133.417Z" fill="#9F9F9F"/>
<path d="M202.811 96.8368C201.511 96.0568 200.561 94.5669 200.701 93.4069C200.831 92.3769 201.961 90.8869 203.021 90.4369C204.821 89.6669 206.681 90.2368 207.831 91.7068C208.751 92.8868 208.771 94.7968 207.561 96.1168C206.551 97.2268 204.531 97.8768 202.801 96.8368H202.811Z" fill="#9F9F9F"/>
<path d="M130.758 22.5219L136.278 28.7419C137.448 30.0619 138.828 32.7619 137.388 34.2519C136.108 35.5819 133.079 35.2519 131.339 34.7319L115.038 29.8319C114.438 29.6519 113.039 29.8219 112.489 30.0719C111.939 30.3219 111.508 32.0319 111.748 32.6319L115.408 41.5719C117.178 45.8919 121.008 53.4219 118.818 55.4219C116.778 57.2819 111.559 52.7419 108.339 50.2019L100.589 44.0819C100.099 43.6919 98.6985 43.4919 98.2185 43.6319C97.6485 43.8019 96.8984 44.8519 96.7584 45.5019L95.3884 52.0819C95.2784 52.6119 94.4684 53.5319 94.0084 53.6619C93.5484 53.7919 92.2785 53.3819 91.9485 52.9919L88.2985 48.7719C88.0085 48.4419 87.0284 47.9619 86.6184 47.8919C86.0984 47.8019 85.0484 48.7019 84.9084 49.2319L82.4185 58.7319L79.5685 67.1519C79.3685 67.7419 78.1285 68.3919 77.6085 68.4019C76.9885 68.4219 75.7484 67.5319 75.6184 66.8919L74.1085 59.3019L72.9785 51.2419C72.9185 50.8419 72.2085 49.9519 71.8685 49.7719C71.4485 49.5419 70.2585 49.7919 69.8785 50.1119L63.3585 55.5919C62.7785 56.0819 61.0085 56.2119 60.3585 55.9719C59.6185 55.7019 58.7285 54.0619 58.8085 53.2119L59.6785 43.4919C59.8085 42.0719 59.6684 40.3919 58.8384 39.0819C51.7684 40.2719 36.4585 52.4519 33.4385 48.9119C30.9785 46.0419 42.1984 35.6819 45.4084 31.6819L50.5385 25.2919C50.7785 25.0019 50.8885 23.9419 50.6885 23.6519C50.4885 23.3619 49.5584 22.7819 49.1584 22.7719L37.9985 22.2619C35.1485 22.1319 33.0884 22.0919 30.3984 21.1319C31.0084 19.2719 31.9185 18.2219 33.5185 17.2019L43.9585 10.5619C44.4185 10.2719 44.9884 9.29188 45.0284 8.91188C45.0784 8.43188 44.0785 7.71187 43.5185 7.56187L32.5685 4.63188C32.1385 4.51188 31.2585 3.74188 31.0685 3.36188C30.8485 2.90188 31.9185 1.79188 32.4185 1.66188C42.0385 -0.83812 58.9185 2.32187 58.7085 4.98187C58.6785 5.39187 58.1785 6.47187 57.7985 6.73187L51.9485 10.7519C50.2785 11.9019 48.2885 12.8719 47.6085 14.8819C47.2685 15.8919 49.3985 17.1019 50.4585 17.2219L61.0385 18.5019C61.6285 18.5719 62.9185 19.2619 63.1285 19.7519C63.3785 20.3219 62.8785 21.4119 62.5085 22.3219L52.2285 32.5519L52.0284 34.2219C51.9884 34.5719 53.3685 34.5919 53.7385 34.4219L63.9185 29.6819C64.5285 29.4019 65.8084 29.3719 66.3484 29.5419C66.9784 29.7519 67.4885 31.3919 67.3685 32.0519L65.5785 41.4119C65.4585 42.0519 65.7385 43.4419 66.2485 43.6519C66.7585 43.8619 68.1185 43.1819 68.4785 42.6719L73.8685 35.1519C74.2285 34.6519 75.5585 33.9519 76.0985 34.1319C76.6385 34.3119 77.1785 35.5719 77.2285 36.2819L77.9385 46.8819C77.9785 47.4319 78.7685 48.4319 79.1685 48.6219C79.5685 48.8119 80.6985 47.8819 80.8185 47.4519L83.1985 38.5419C83.6285 36.9519 84.0585 36.1019 85.5385 34.8219L89.7484 41.1419C90.0384 41.5719 90.9285 42.3019 91.2885 42.5319C91.6485 42.7619 92.7584 42.0519 92.7784 41.5419L93.1584 31.5619C98.7784 32.4919 102.488 39.3519 108.038 42.3719C108.558 40.2319 108.008 38.9419 107.258 37.2819C104.968 32.1919 101.258 25.0719 102.868 21.9219C103.198 21.2619 105.058 20.8419 105.778 21.0919L116.388 24.7019C117.718 25.1519 120.268 25.8519 121.278 24.5319C121.958 23.6419 120.738 21.0219 119.928 20.1719L110.298 10.1919C109.768 9.64188 109.008 8.20188 109.038 7.49188C109.068 6.70188 110.349 5.64187 111.229 5.01187C118.679 1.80187 126.579 0.711875 134.739 0.671875L136.328 1.97188C136.678 2.25188 135.458 3.42188 135.018 3.60188L123.109 8.41188C122.459 8.67188 121.419 9.75187 121.089 10.2919C119.729 12.4619 126.978 19.0519 130.758 22.5619V22.5219Z" fill="#9F9F9F"/>
<path d="M185.589 268.25L193.739 268.12C194.819 269.15 193.639 271.27 192.189 271.97C185.049 275.4 173.379 276.34 170.779 268.35C155.769 277.94 135.459 276.53 121.879 265.44C118.429 262.62 114.779 261.42 110.339 261.35C103.709 261.25 97.9994 257.37 93.8594 252.7C97.5794 252.89 101.229 252.9 104.719 251.91C111.009 250.13 113.969 244.4 112.669 237.82C118.939 241.08 122.659 246.63 123.909 253.24C127.219 254.82 130.759 255.2 134.129 254.37C137.689 253.5 139.769 250.64 140.249 247.07C151.139 246.08 160.449 239.87 162.569 229.32C166.929 231.1 170.169 233.54 173.289 236.72C179.299 235.22 185.229 236.06 190.919 237.95C191.159 236.28 191.929 234.92 192.979 234.79C196.789 234.32 194.969 239.04 198.449 241.89C199.319 242.61 199.629 244.47 199.029 245.52C198.569 246.33 196.669 246.54 195.279 246.53L191.569 257.13C190.139 261.22 186.079 262.96 181.919 261.71C176.199 259.98 172.199 255.37 169.899 249.86C169.359 248.56 167.929 247.25 166.889 247.03C165.339 246.71 163.449 247.33 162.379 248.55C153.719 258.37 141.429 262.33 127.949 260.65C130.529 264.2 134.939 264.34 138.809 264.49C148.069 264.84 156.509 261.72 162.939 255.11C163.769 254.26 166.109 254 166.569 255.12C169.819 262.96 176.719 268.38 185.569 268.24L185.589 268.25ZM186.719 247.2C186.719 244.9 184.859 243.04 182.559 243.04C180.259 243.04 178.399 244.9 178.399 247.2C178.399 249.5 180.259 251.36 182.559 251.36C184.859 251.36 186.719 249.5 186.719 247.2Z" fill="#9F9F9F"/>
<path d="M50.8718 159.204C52.1218 157.394 53.3918 153.734 51.9318 152.104L47.4017 147.024C46.6917 146.224 45.6118 145.304 44.6418 145.194C43.8118 145.104 42.2818 146.184 41.9218 146.974C40.6618 149.754 40.9818 152.444 42.6818 154.894C44.9218 158.104 41.4017 163.864 37.9017 167.074C36.7317 168.144 34.6317 168.124 33.7917 166.654C27.0717 154.874 30.7318 124.804 36.1918 124.764C36.6518 124.764 36.9318 125.984 36.9318 126.594V138.424C36.9318 138.874 37.8318 139.834 38.2618 139.994C38.7718 140.184 40.0718 139.374 40.2018 138.754L42.2917 128.984C43.2517 124.514 43.9618 119.324 47.2618 118.484C47.9218 118.314 49.1417 119.744 49.0317 120.544L47.7217 130.024L46.7118 138.024C46.6618 138.454 47.3518 139.434 47.6918 139.644C48.0318 139.854 49.2018 139.274 49.3718 138.834L52.3318 131.094L56.5518 119.194C56.9418 118.094 58.7118 116.104 59.8318 116.034C61.3818 115.934 61.9418 118.404 61.5718 119.624L57.2118 133.914C56.3418 136.764 55.4217 139.564 55.2917 142.604C56.7317 142.904 58.0218 142.044 58.7618 140.924C62.1918 135.684 64.3518 130.164 66.5118 124.244C66.9818 122.954 68.8318 120.984 70.2118 122.554C73.3618 126.124 65.9817 142.994 62.6017 149.764L54.5917 165.784C51.3417 172.284 50.8317 178.484 56.2217 183.454L52.7317 183.274C49.0017 183.084 46.4818 180.974 44.6818 177.384C41.9418 182.524 41.2318 189.884 44.6818 193.324L53.1318 201.744C57.2518 205.854 57.7618 211.484 54.5018 216.584L46.5917 210.854C39.4617 205.684 36.5017 197.344 36.8417 188.494C37.1017 181.794 39.5918 175.584 43.3918 170.054L50.8517 159.204H50.8718Z" fill="#9F9F9F"/>
<path d="M110.72 156.223C111.1 158.833 108.09 161.073 105.49 160.493L103.17 157.253L98.3197 152.733C98.7597 150.383 98.5397 149.123 97.4997 147.443L94.8097 143.073C93.8097 141.443 94.4498 139.703 95.3598 137.853L92.7398 128.203C92.6198 127.763 93.8697 126.543 94.1597 126.353C94.5397 123.113 95.0297 119.723 96.4197 116.613L98.3897 114.013C89.3197 112.693 80.4797 117.083 76.0097 124.673C75.0497 118.693 77.2197 112.663 82.5797 109.793C84.9197 108.543 88.4397 108.413 91.0097 108.793L99.4397 110.023C95.5197 104.563 87.3597 99.9428 81.6297 103.693C81.3297 101.053 81.2298 97.2528 83.3398 95.0828C85.8698 92.4828 89.8997 93.4428 92.6997 95.2628C97.1997 98.1928 99.7598 102.433 102.48 107.523L103.11 96.8328C103.21 95.1728 104.36 93.3928 105.7 92.1328C110.28 93.6628 114.07 96.8428 115.56 101.603C110.89 101.183 108.58 105.573 106.7 110.193C111.43 107.463 115.34 104.783 120.43 103.673C124.33 102.823 128.62 103.123 131.65 105.773C134.97 108.673 134.41 113.353 131.96 117.133C129.32 109.493 117.8 110.113 109.3 113.053C113.3 114.453 117.13 114.703 119.94 117.463C123.08 120.533 122.48 125.653 119.46 128.693C117.17 130.993 114.49 132.713 111.26 133.823C113.75 126.413 110.6 119.203 104.57 116.163L101.15 122.843C100.13 124.843 99.9597 126.633 101.67 128.003L100.79 135.563C100.58 137.403 101.32 138.713 102.95 139.563L104.44 148.413C107.64 149.363 106.9 153.103 110.7 156.203L110.72 156.223Z" fill="#9F9F9F"/>
<path d="M86.9692 209.829C84.2592 210.129 81.6892 211.439 80.7192 213.869C79.6792 216.499 80.4592 219.929 82.3092 222.049C85.2592 225.449 89.9491 226.619 94.1191 225.339C96.1091 224.729 97.1391 222.819 96.4091 220.979C92.9991 221.269 89.9692 221.129 87.4692 218.849C86.5492 218.009 86.1191 215.989 86.6291 215.039C87.2691 213.809 88.8992 213.169 90.3392 213.349C94.4192 213.859 97.2691 216.459 98.9291 219.989C100.249 222.789 100.309 225.739 98.7392 228.499C97.3692 230.919 94.6592 232.439 91.3492 232.589C83.8492 232.919 76.9391 228.629 74.2891 221.629C72.8191 217.739 72.7491 213.959 75.0291 210.119C76.6491 207.389 80.1392 204.839 84.2292 204.319C92.4092 203.279 100.459 207.559 104.629 214.739C107.839 220.289 109.159 226.579 108.269 232.969C107.429 238.969 103.309 243.959 97.4392 245.569C82.6792 249.619 67.2392 241.819 61.9392 227.509C59.1192 219.889 62.0591 211.109 69.3991 207.489C68.8991 211.519 68.4891 215.369 69.1691 219.219C70.9291 229.279 79.1692 236.319 89.3392 236.689C93.2992 236.839 97.5592 236.509 100.439 233.559C103.319 230.609 103.699 225.729 102.799 221.649C101.159 214.219 94.8092 208.979 86.9692 209.839V209.829Z" fill="#9F9F9F"/>
<path d="M118.052 93.078C114.522 89.438 113.332 84.608 112.092 79.798L107.012 84.338C102.042 88.778 94.5519 90.728 88.1219 88.378C82.0519 86.158 80.2019 79.418 81.7919 73.568C82.0419 72.658 83.5819 71.098 84.1819 71.638C85.8219 74.138 84.9419 78.618 87.7819 79.578C88.8119 79.928 91.042 79.478 91.822 78.458C94.522 74.918 95.6919 69.458 93.6919 65.328C92.2619 63.958 89.432 65.208 87.862 66.148C90.012 59.338 96.6419 54.998 103.652 55.838C111.422 56.758 114.612 64.988 113.982 73.488C116.702 70.168 118.952 66.838 122.692 65.078C126.192 63.428 130.852 63.498 133.392 66.608C137.312 71.398 138.192 78.858 135.142 84.338C132.622 82.028 134.612 76.548 132.102 75.928C128.532 75.048 127.982 89.098 130.752 88.588L133.662 88.048C133.472 91.298 131.172 94.488 128.372 95.578C124.722 96.988 120.872 95.988 118.052 93.088V93.078ZM98.0319 83.328L100.442 80.178C102.582 73.578 104.322 67.358 104.782 60.298C103.152 60.048 102.342 61.038 101.442 62.308C98.8019 68.468 97.0619 74.838 96.1819 81.588L96.572 83.078C96.642 83.358 97.8619 83.568 98.0319 83.338V83.328ZM110.692 75.038C111.622 71.518 110.572 66.998 108.622 67.348C105.862 67.848 102.982 76.628 105.182 80.348C107.582 79.248 110.062 77.428 110.692 75.038ZM126.102 70.148C122.102 71.308 118.742 90.058 122.052 88.868C126.722 87.188 128.172 69.548 126.102 70.148ZM119.342 73.628C117.222 73.568 115.552 75.938 115.072 77.588C114.482 79.578 115.162 81.908 116.742 83.228C119.152 80.808 119.882 77.428 119.342 73.638V73.628Z" fill="#9F9F9F"/>
<path d="M136.807 187.323C127.937 188.673 118.407 184.083 114.247 175.703C111.077 169.323 113.327 162.023 118.097 157.233C121.687 160.253 126.387 162.493 127.767 160.203C128.087 159.683 127.747 157.983 127.147 157.603L120.857 153.583C118.187 151.873 115.577 150.173 113.927 147.543C112.277 144.913 113.087 141.923 115.487 140.153L124.907 133.203C128.417 130.613 129.227 126.723 127.637 122.133C131.047 123.423 133.647 126.233 135.407 129.563C138.167 134.783 134.537 139.253 130.807 143.463C128.207 146.403 129.037 150.163 132.147 152.333C136.267 155.213 138.317 158.763 135.847 163.043L130.907 171.603C129.047 174.823 129.027 178.943 130.697 182.203C131.897 184.543 134.127 185.693 136.827 187.313L136.807 187.323Z" fill="#9F9F9F"/>
<path d="M111.552 194.285C109.942 188.345 112.402 183.915 113.692 184.645L115.292 185.555C119.192 190.315 124.692 192.535 130.822 192.535C136.542 193.265 144.502 191.145 144.852 187.255C144.922 186.495 144.202 184.795 143.552 184.385L139.212 181.625C137.152 180.315 135.152 178.305 135.432 175.565C135.712 172.825 137.052 170.465 138.652 168.375C139.572 173.035 142.212 175.765 146.192 177.715L151.142 180.135C154.982 182.015 156.322 185.965 156.442 189.975C156.752 200.295 150.482 208.385 140.622 210.885C127.872 214.125 115.052 207.185 111.542 194.285H111.552ZM140.182 204.965C148.122 206.455 153.732 193.245 150.372 191.775C149.942 191.585 149.062 191.935 148.572 192.205L142.612 195.425C141.562 195.995 140.362 197.235 140.332 198.465L140.172 204.975L140.182 204.965Z" fill="#9F9F9F"/>
<path d="M84.7075 158.744C86.8675 165.324 89.1674 173.484 83.2474 176.364C80.9274 177.494 78.3774 177.184 76.6574 175.554C74.9374 173.924 74.1575 171.074 75.8475 168.764C76.7475 170.404 77.6074 171.254 79.1274 171.184C83.7474 170.964 81.9874 161.154 79.6574 154.764C77.7774 149.634 77.1775 144.794 77.0975 139.154C75.1975 141.754 74.5574 144.724 74.5174 147.634L74.2774 163.534C74.2374 166.074 72.5774 169.014 70.6774 170.184C68.1474 171.734 65.4674 171.684 63.3574 169.904C61.7474 168.544 60.5074 165.274 62.2574 163.294C63.6274 164.654 65.2574 165.764 66.8974 165.394C71.0474 164.454 71.0674 158.014 70.8474 152.074C70.3474 138.894 76.3275 128.674 87.4575 121.484C81.8675 136.014 88.5174 146.784 96.7674 158.664C102.697 167.214 111.157 177.754 102.477 184.724C98.5875 187.844 92.5874 186.724 90.2974 182.224C88.8974 179.464 89.2775 176.204 92.0975 174.174C92.2075 177.054 93.5374 178.584 95.9974 178.374C98.2374 178.184 99.7774 176.284 99.1574 173.664C98.4274 170.544 96.8974 167.554 95.1574 164.724C88.5274 153.874 82.6274 144.554 81.9074 131.234C79.5874 136.264 79.0575 141.604 80.7375 146.704L84.6974 158.744H84.7075Z" fill="#9F9F9F"/>
<path d="M91.295 20.9146C90.685 20.1146 88.615 19.5646 87.815 19.8246C87.015 20.0846 85.885 21.3846 85.605 22.4546L83.735 29.8246C83.625 30.2446 82.825 31.0146 82.515 31.2146C82.125 31.4546 81.225 30.2646 81.185 29.7346L80.6149 22.9046C80.5249 21.7946 79.605 20.2446 78.785 19.8446C77.905 19.4146 75.745 19.5946 74.925 20.2146L69.385 24.3846C69.175 24.5446 68.085 24.5546 67.815 24.5146C67.455 24.4646 67.505 23.2246 67.755 22.8946L72.645 16.4046C72.995 15.9346 73.215 14.6546 73.175 14.1046C73.135 13.5546 71.765 12.7446 71.195 12.8146L64.395 13.6446C62.545 13.8746 61.195 14.4846 59.375 13.0546L68.485 9.19457C69.305 8.84457 70.385 7.27457 70.345 6.42457C70.285 5.26457 69.015 4.25456 67.905 3.70456L65.335 2.44457C68.745 0.92457 72.555 0.644571 76.205 1.41457C78.805 1.96457 80.2549 6.76456 84.1249 6.76456C88.8849 6.76456 89.4349 1.81457 94.0049 1.36457C97.1549 1.05457 99.785 1.29457 103.065 2.33457L99.165 4.60457C98.565 4.95457 97.675 6.23457 97.695 6.91457C97.715 7.59457 98.505 8.89456 99.235 9.37456L106.215 13.9446C106.515 14.1446 106.885 15.1546 106.865 15.4246C106.835 15.7846 105.895 16.0646 105.495 15.9846L98.795 14.5946C98.075 14.4446 96.385 14.9546 95.905 15.4946C95.425 16.0346 95.185 17.8046 95.465 18.4946L98.3849 25.6446C98.5549 26.0546 98.4549 27.3646 98.1349 27.6146C97.7349 27.9346 96.295 27.4246 95.965 26.9846L91.305 20.9146H91.295Z" fill="#9F9F9F"/>
<path d="M124.891 239.878C121.331 238.438 118.971 236.058 118.711 232.248L126.331 232.708C129.691 232.908 132.701 231.348 134.261 228.418L137.391 222.568C138.601 220.298 141.021 218.708 143.111 218.508C146.011 218.238 148.201 219.078 150.431 221.238C152.821 217.688 149.321 215.138 150.681 212.748C151.081 212.048 152.851 211.298 153.581 211.668C154.761 212.278 155.501 213.698 155.991 214.868C157.311 213.958 159.321 213.968 160.461 215.078C161.921 216.508 161.191 218.508 159.891 219.838C161.221 220.578 162.351 222.128 161.591 223.458C160.891 224.698 158.861 225.278 157.571 224.318C156.021 223.158 154.231 222.748 152.671 224.008C154.061 227.738 153.761 231.658 150.761 234.648C144.281 241.088 133.591 243.378 124.891 239.868V239.878Z" fill="#9F9F9F"/>
<path d="M79.8289 194.614C81.0289 198.554 79.2289 202.414 75.7789 203.754C71.9589 205.244 67.9589 203.104 66.8389 199.044C64.0789 200.504 61.0689 200.764 58.6689 198.674C56.7389 196.984 55.2789 194.354 56.3089 191.324C57.1489 188.844 59.6189 186.794 62.9289 186.464C61.3589 182.524 62.8089 178.374 66.5289 176.974C70.2289 175.574 74.0889 177.434 75.3389 181.854C78.9289 179.304 82.8489 180.144 84.9089 183.534C86.2689 185.764 87.1089 188.084 85.7789 190.604C84.8289 192.404 82.9089 193.994 79.8389 194.624L79.8289 194.614ZM75.0789 190.294C75.0789 188.044 73.2489 186.214 70.9989 186.214C68.7489 186.214 66.9189 188.044 66.9189 190.294C66.9189 192.544 68.7489 194.374 70.9989 194.374C73.2489 194.374 75.0789 192.544 75.0789 190.294Z" fill="#9F9F9F"/>
<path d="M63.4593 81.2143C62.6993 92.7143 49.5693 101.884 38.6793 98.2243C34.7793 96.9143 32.3793 98.1343 31.3193 96.9443C30.9893 96.5643 30.9093 95.3543 31.0293 94.8643L32.0293 90.7243C33.2193 81.8843 39.9993 75.1343 49.0693 74.2743L57.6693 74.0943C60.3993 74.0343 58.5793 78.7243 63.4693 81.2143H63.4593ZM54.3993 77.9643C53.8093 76.9343 50.6393 77.1043 49.7393 78.1043C48.9793 84.0643 55.2393 89.9543 58.0693 87.5543C61.2193 84.8743 56.4793 83.2343 54.3993 77.9643ZM50.5193 92.1643C45.4693 90.1743 43.1393 86.4843 42.4493 81.3743C38.6993 82.7143 38.1293 86.9043 40.0593 89.9743C41.4493 92.1743 43.4493 94.0043 46.1493 94.3543C47.8393 94.5743 50.0593 93.8343 50.5093 92.1743L50.5193 92.1643Z" fill="#9F9F9F"/>
<path d="M127.867 228.911C121.967 229.841 115.777 227.341 112.377 222.471C110.947 220.431 110.317 217.401 110.027 214.881C109.337 209.011 106.047 204.011 100.237 202.121L91.5873 199.301C90.4373 198.931 89.1373 197.751 88.9673 196.671C88.7873 195.531 89.7373 193.771 90.9673 193.081C97.2573 189.541 104.877 192.081 108.477 198.521C112.567 205.841 110.707 213.211 116.867 212.711C120.937 212.381 124.527 213.621 127.307 216.601C129.377 218.831 131.327 221.411 131.737 224.561C132.017 226.681 130.287 228.551 127.877 228.921L127.867 228.911ZM126.617 222.981C126.757 222.621 126.757 221.541 126.597 221.201C124.407 216.611 118.407 215.121 117.127 217.491C115.117 221.201 125.487 225.841 126.627 222.991L126.617 222.981Z" fill="#9F9F9F"/>
<path d="M75.1522 110.614C72.6422 112.844 69.0722 112.534 66.2822 111.134C59.9422 107.954 60.6323 96.9037 66.6923 90.5938C70.2723 91.8937 73.3023 93.6037 75.5723 96.3737C78.9723 100.524 79.4222 106.814 75.1522 110.614Z" fill="#9F9F9F"/>
<path d="M55.2475 68.4204C47.8875 68.4304 40.4175 65.1404 39.4575 58.1204C38.9175 54.1404 41.7075 50.7804 45.5875 50.3204C49.4675 49.8604 52.9275 51.9704 54.5575 55.4804C56.4075 59.4504 56.5375 63.7204 55.2375 68.4204H55.2475Z" fill="#9F9F9F"/>
<path d="M135.051 58.8887C128.421 53.2887 124.012 46.2887 119.832 39.1787L119.781 37.4087C119.721 35.2787 132.422 43.9287 137.572 49.4187C140.012 52.0187 138.241 57.1387 135.051 58.8887Z" fill="#9F9F9F"/>
<path d="M43.0219 70.7141C40.8319 72.8541 37.3718 73.4441 34.3518 72.6841C30.7118 71.7641 28.4418 68.7241 28.2818 65.3441C28.1218 61.9641 30.2618 58.3341 33.9018 57.4141C33.2718 63.8141 36.4619 68.7941 43.0119 70.7141H43.0219Z" fill="#9F9F9F"/>
<path d="M61.0196 112.441C58.4196 113.821 55.4696 113.781 53.0896 112.411C50.7096 111.041 49.8996 108.361 50.4896 105.651C51.5196 102.471 54.0196 99.9912 57.5196 99.0312C56.1896 104.071 57.2496 108.581 61.0196 112.451V112.441Z" fill="#9F9F9F"/>
<path d="M46.9888 114.699C44.3188 117.199 41.2088 119.099 37.7488 120.379C33.8988 121.799 29.9687 120.109 28.8387 116.139C28.2887 114.199 28.0087 112.169 27.9688 109.969C30.6388 113.689 34.2988 115.999 38.9188 115.539L46.9888 114.699Z" fill="#9F9F9F"/>
<path d="M43.1911 26.6429C40.6411 31.9429 31.5811 37.8429 31.1711 34.3729C30.9011 32.0829 31.3811 28.9229 33.2611 27.6329C36.1111 25.6829 39.8911 25.4129 43.1911 26.6429Z" fill="#9F9F9F"/>
<path d="M137.88 18.1957C133.39 18.2757 129.53 15.8557 127.07 12.3257C130.72 10.3557 134.75 9.76574 138.36 11.1357C139.29 13.0857 139 15.8757 137.88 18.1957Z" fill="#9F9F9F"/>
<path d="M45.9802 104.758C42.5102 108.878 36.8302 110.738 33.5602 107.388C31.9902 105.788 31.5702 103.028 31.6702 100.898C34.1002 102.918 36.4902 104.458 39.3702 104.548L45.9802 104.748V104.758Z" fill="#9F9F9F"/>
<path d="M64.391 74.7984C62.631 74.2084 61.461 72.3384 61.501 70.8584C61.541 69.0884 63.041 67.5184 65.001 67.2184C66.661 66.9684 68.461 67.7484 69.241 68.9984C70.121 70.4284 70.011 72.1584 68.961 73.4084C67.961 74.5984 66.301 75.4284 64.391 74.7884V74.7984Z" fill="#9F9F9F"/>
<path d="M71.6206 84.1306C68.9106 84.2706 67.0606 82.2306 67.2206 79.9306C67.3806 77.6306 69.4006 75.9506 72.0106 76.3906C74.1806 76.7506 75.5706 78.2406 75.5706 80.3806C75.5706 82.1406 74.0006 84.0106 71.6206 84.1306Z" fill="#9F9F9F"/>
</svg>
