<svg width="746" height="73" viewBox="0 0 746 73" fill="none" xmlns="http://www.w3.org/2000/svg">
<g clip-path="url(#clip0_144_956)">
<path d="M1.84 1.64062H19.44L32.98 23.6906L47 1.64062H63.63L41.48 34.6206L65.56 70.6906H47.47L32.38 46.8006L17 70.6906H0L24.08 34.5206L1.84 1.64062Z" fill="#9F9F9F"/>
<path d="M138.976 22.1C140.526 17.68 142.746 13.83 145.646 10.54C148.546 7.25 152.106 4.67 156.336 2.8C160.556 0.93 165.316 0 170.606 0C175.896 0 180.726 0.94 184.916 2.8C189.106 4.67 192.656 7.25 195.556 10.54C198.456 13.83 200.686 17.68 202.226 22.1C203.776 26.52 204.546 31.3 204.546 36.46C204.546 41.62 203.776 46.18 202.226 50.53C200.676 54.88 198.456 58.67 195.556 61.89C192.656 65.12 189.106 67.64 184.916 69.48C180.726 71.32 175.956 72.24 170.606 72.24C165.256 72.24 160.566 71.32 156.336 69.48C152.116 67.64 148.546 65.11 145.646 61.89C142.746 58.67 140.516 54.88 138.976 50.53C137.426 46.18 136.656 41.49 136.656 36.46C136.656 31.43 137.426 26.51 138.976 22.1ZM152.856 44.92C153.536 47.66 154.616 50.13 156.096 52.32C157.576 54.51 159.516 56.27 161.896 57.59C164.276 58.91 167.186 59.57 170.596 59.57C174.006 59.57 176.916 58.91 179.296 57.59C181.676 56.27 183.616 54.51 185.096 52.32C186.576 50.13 187.656 47.66 188.336 44.92C189.016 42.18 189.356 39.36 189.356 36.46C189.356 33.56 189.016 30.5 188.336 27.66C187.656 24.82 186.576 22.29 185.096 20.07C183.616 17.85 181.676 16.07 179.296 14.75C176.906 13.43 174.006 12.77 170.596 12.77C167.186 12.77 164.276 13.43 161.896 14.75C159.506 16.07 157.576 17.84 156.096 20.07C154.616 22.29 153.536 24.83 152.856 27.66C152.176 30.5 151.836 33.43 151.836 36.46C151.836 39.49 152.176 42.18 152.856 44.92Z" fill="#9F9F9F"/>
<path d="M298.071 1.64062V57.9306H331.731V70.7006H282.891V1.64062H298.071Z" fill="#9F9F9F"/>
<path d="M407.547 22.1C409.097 17.68 411.317 13.83 414.217 10.54C417.117 7.25 420.677 4.67 424.907 2.8C429.127 0.93 433.887 0 439.177 0C444.467 0 449.297 0.94 453.487 2.8C457.677 4.67 461.227 7.25 464.127 10.54C467.027 13.83 469.257 17.68 470.797 22.1C472.347 26.52 473.117 31.3 473.117 36.46C473.117 41.62 472.347 46.18 470.797 50.53C469.247 54.88 467.027 58.67 464.127 61.89C461.227 65.12 457.677 67.64 453.487 69.48C449.297 71.32 444.527 72.24 439.177 72.24C433.827 72.24 429.137 71.32 424.907 69.48C420.687 67.64 417.117 65.11 414.217 61.89C411.317 58.67 409.087 54.88 407.547 50.53C405.997 46.18 405.227 41.49 405.227 36.46C405.227 31.43 405.997 26.51 407.547 22.1ZM421.427 44.92C422.107 47.66 423.187 50.13 424.667 52.32C426.147 54.51 428.087 56.27 430.467 57.59C432.847 58.91 435.757 59.57 439.167 59.57C442.577 59.57 445.487 58.91 447.867 57.59C450.247 56.27 452.187 54.51 453.667 52.32C455.147 50.13 456.227 47.66 456.907 44.92C457.587 42.18 457.927 39.36 457.927 36.46C457.927 33.56 457.587 30.5 456.907 27.66C456.227 24.82 455.147 22.29 453.667 20.07C452.187 17.85 450.247 16.07 447.867 14.75C445.477 13.43 442.577 12.77 439.167 12.77C435.757 12.77 432.847 13.43 430.467 14.75C428.077 16.07 426.147 17.84 424.667 20.07C423.187 22.29 422.107 24.83 421.427 27.66C420.747 30.5 420.407 33.43 420.407 36.46C420.407 39.49 420.747 42.18 421.427 44.92Z" fill="#9F9F9F"/>
<path d="M602.24 65.4306C597.02 69.9806 589.8 72.2506 580.58 72.2506C571.36 72.2506 563.99 69.9906 558.87 65.4806C553.74 60.9706 551.18 54.0006 551.18 44.5906V1.64062H566.36V44.5806C566.36 46.4506 566.52 48.2906 566.84 50.0906C567.16 51.9006 567.84 53.4906 568.87 54.8806C569.9 56.2706 571.34 57.3906 573.17 58.2706C575.01 59.1406 577.47 59.5806 580.57 59.5806C585.99 59.5806 589.73 58.3706 591.79 55.9506C593.85 53.5306 594.89 49.7506 594.89 44.5906V1.64062H610.07V44.5806C610.07 53.9306 607.46 60.8806 602.24 65.4206V65.4306Z" fill="#9F9F9F"/>
<path d="M725.433 0.9375C728.523 0.9375 731.313 1.4375 733.803 2.4375C736.283 3.4375 738.413 4.8075 740.183 6.5475C741.953 8.2875 743.313 10.3075 744.243 12.5875C745.173 14.8775 745.643 17.3475 745.643 19.9875C745.643 24.0475 745.643 25.8775 743.933 28.8375C742.223 31.8075 741.093 33.3475 737.473 35.7875C736.333 36.4775 734.703 37.0775 734.143 37.2375C735.843 37.8275 738.343 38.3175 739.983 39.1475C741.623 39.9775 743.113 41.2275 743.973 42.8575C745.053 44.8775 745.103 47.2675 745.123 49.5575C745.203 56.3575 745.143 63.1875 745.363 69.9875H728.563C728.553 67.0575 728.633 64.6475 728.563 62.1475C728.473 59.1175 728.623 55.7975 728.473 52.5275C728.303 48.8875 728.873 46.5975 727.193 44.9275C725.513 43.2475 719.363 43.0075 715.563 43.0075H705.383V69.9875H690.203V0.9375H725.443H725.433ZM720.023 32.1775C723.503 32.1775 726.113 31.4075 727.853 29.8575C729.593 28.3075 730.463 25.7975 730.463 22.3175C730.463 18.8375 729.593 16.5275 727.853 15.0175C726.113 13.5075 723.503 12.7475 720.023 12.7475H705.393V32.1875H720.023V32.1775Z" fill="#9F9F9F"/>
</g>
<defs>
<clipPath id="clip0_144_956">
<rect width="745.65" height="72.25" fill="white"/>
</clipPath>
</defs>
</svg>
